<svg xmlns="http://www.w3.org/2000/svg" width="168.884" height="71.745" viewBox="0 0 168.884 71.745">
  <g id="grafika_02" transform="translate(-1649.116 -813.162)">
    <g id="Group_59" data-name="Group 59" transform="translate(1703.347 860.247)">
      <path id="Path_40" data-name="Path 40" d="M-8.88-39.448A19.129,19.129,0,0,1,10.228-58.556,19.13,19.13,0,0,1,29.337-39.448h5.551a24.688,24.688,0,0,0-24.66-24.659A24.687,24.687,0,0,0-14.431-39.448H-8.88Z" transform="translate(14.431 64.107)" fill="#d80012"/>
    </g>
    <g id="Group_60" data-name="Group 60" transform="translate(1711.673 868.573)">
      <path id="Path_41" data-name="Path 41" d="M-8.88-26.128A10.794,10.794,0,0,1,1.9-36.91,10.794,10.794,0,0,1,12.685-26.128h5.551A16.352,16.352,0,0,0,1.9-42.461,16.352,16.352,0,0,0-14.431-26.128H-8.88Z" transform="translate(14.431 42.461)" fill="#ffd400"/>
    </g>
    <g id="Group_61" data-name="Group 61" transform="translate(1719.999 876.899)">
      <path id="Path_42" data-name="Path 42" d="M-8.88-12.808a2.459,2.459,0,0,1,2.457-2.456,2.458,2.458,0,0,1,2.456,2.456H1.583a8.015,8.015,0,0,0-8.007-8.007,8.016,8.016,0,0,0-8.008,8.007H-8.88Z" transform="translate(14.431 20.815)" fill="#003583"/>
    </g>
    <g id="Group_62" data-name="Group 62" transform="translate(1768.681 860.247)">
      <path id="Path_43" data-name="Path 43" d="M-8.88-39.448A19.129,19.129,0,0,1,10.228-58.556,19.13,19.13,0,0,1,29.337-39.448h5.551a24.688,24.688,0,0,0-24.66-24.659A24.687,24.687,0,0,0-14.431-39.448H-8.88Z" transform="translate(14.431 64.107)" fill="#d80012"/>
    </g>
    <g id="Group_63" data-name="Group 63" transform="translate(1777.007 868.573)">
      <path id="Path_44" data-name="Path 44" d="M-8.88-26.128A10.794,10.794,0,0,1,1.9-36.91,10.794,10.794,0,0,1,12.685-26.128h5.551A16.352,16.352,0,0,0,1.9-42.461,16.352,16.352,0,0,0-14.431-26.128H-8.88Z" transform="translate(14.431 42.461)" fill="#ffd400"/>
    </g>
    <g id="Group_64" data-name="Group 64" transform="translate(1785.334 876.899)">
      <path id="Path_45" data-name="Path 45" d="M-8.879-12.808a2.459,2.459,0,0,1,2.457-2.456,2.458,2.458,0,0,1,2.456,2.456H1.584a8.015,8.015,0,0,0-8.007-8.007,8.016,8.016,0,0,0-8.007,8.007h5.551Z" transform="translate(14.43 20.815)" fill="#003583"/>
    </g>
    <g id="Group_77" data-name="Group 77" transform="translate(1649.116 860.247)">
      <path id="Path_58" data-name="Path 58" d="M-8.88-39.448A19.129,19.129,0,0,1,10.228-58.556,19.13,19.13,0,0,1,29.337-39.448h5.551a24.688,24.688,0,0,0-24.66-24.659A24.687,24.687,0,0,0-14.431-39.448H-8.88Z" transform="translate(14.431 64.107)" fill="#d80012"/>
    </g>
    <g id="Group_78" data-name="Group 78" transform="translate(1657.442 868.573)">
      <path id="Path_59" data-name="Path 59" d="M-8.88-26.128A10.794,10.794,0,0,1,1.9-36.91,10.794,10.794,0,0,1,12.685-26.128h5.551A16.352,16.352,0,0,0,1.9-42.461,16.352,16.352,0,0,0-14.431-26.128H-8.88Z" transform="translate(14.431 42.461)" fill="#ffd400"/>
    </g>
    <g id="Group_79" data-name="Group 79" transform="translate(1665.768 876.899)">
      <path id="Path_60" data-name="Path 60" d="M-8.88-12.808a2.459,2.459,0,0,1,2.457-2.456,2.458,2.458,0,0,1,2.456,2.456H1.583a8.015,8.015,0,0,0-8.007-8.007,8.016,8.016,0,0,0-8.008,8.007H-8.88Z" transform="translate(14.431 20.815)" fill="#003583"/>
    </g>
    <g id="Group_80" data-name="Group 80" transform="translate(1676.231 840.066)">
      <path id="Path_61" data-name="Path 61" d="M-70.018,0A19.131,19.131,0,0,1-89.127,19.109,19.13,19.13,0,0,1-108.235,0h-5.551A24.687,24.687,0,0,0-89.127,24.659,24.688,24.688,0,0,0-64.467,0Z" transform="translate(113.786)" fill="#d80012"/>
    </g>
    <g id="Group_81" data-name="Group 81" transform="translate(1684.558 840.066)">
      <path id="Path_62" data-name="Path 62" d="M-26.13-26.129A16.353,16.353,0,0,0-9.8-42.462h-5.551A10.794,10.794,0,0,1-26.13-31.68,10.8,10.8,0,0,1-36.913-42.462h-5.551A16.353,16.353,0,0,0-26.13-26.129" transform="translate(42.464 42.462)" fill="#ffd400"/>
    </g>
    <g id="Group_82" data-name="Group 82" transform="translate(1692.884 840.066)">
      <path id="Path_63" data-name="Path 63" d="M-12.81-12.809A8.016,8.016,0,0,0-4.8-20.816h-5.551A2.459,2.459,0,0,1-12.81-18.36a2.459,2.459,0,0,1-2.457-2.456h-5.551a8.017,8.017,0,0,0,8.008,8.007" transform="translate(20.818 20.816)" fill="#003583"/>
    </g>
    <g id="Group_83" data-name="Group 83" transform="translate(1676.231 813.162)">
      <path id="Path_64" data-name="Path 64" d="M-8.88-39.448A19.129,19.129,0,0,1,10.228-58.556,19.13,19.13,0,0,1,29.337-39.448h5.551a24.688,24.688,0,0,0-24.66-24.659A24.688,24.688,0,0,0-14.431-39.448H-8.88Z" transform="translate(14.431 64.107)" fill="#d80012"/>
    </g>
    <g id="Group_84" data-name="Group 84" transform="translate(1684.557 821.488)">
      <path id="Path_65" data-name="Path 65" d="M-8.88-26.128A10.794,10.794,0,0,1,1.9-36.91,10.794,10.794,0,0,1,12.685-26.128h5.551A16.352,16.352,0,0,0,1.9-42.461,16.353,16.353,0,0,0-14.431-26.128H-8.88Z" transform="translate(14.431 42.461)" fill="#ffd400"/>
    </g>
    <g id="Group_85" data-name="Group 85" transform="translate(1692.884 829.814)">
      <path id="Path_66" data-name="Path 66" d="M-8.88-12.808a2.459,2.459,0,0,1,2.457-2.456,2.459,2.459,0,0,1,2.456,2.456H1.584a8.015,8.015,0,0,0-8.007-8.007,8.016,8.016,0,0,0-8.008,8.007H-8.88Z" transform="translate(14.431 20.815)" fill="#003583"/>
    </g>
  </g>
</svg>
