<svg xmlns="http://www.w3.org/2000/svg" width="196" height="52.094" viewBox="0 0 196 52.094">
  <g id="grafika_06" transform="translate(-1662 -3256.796)">
    <path id="Path_34" data-name="Path 34" d="M-70.018,0A19.131,19.131,0,0,1-89.127,19.109,19.13,19.13,0,0,1-108.235,0h-5.551A24.687,24.687,0,0,0-89.127,24.659,24.688,24.688,0,0,0-64.467,0Z" transform="translate(1830.017 3284.231)" fill="#d80012"/>
    <path id="Path_35" data-name="Path 35" d="M-26.13-26.129A16.353,16.353,0,0,0-9.8-42.462h-5.551A10.794,10.794,0,0,1-26.13-31.68,10.8,10.8,0,0,1-36.913-42.462h-5.551A16.353,16.353,0,0,0-26.13-26.129" transform="translate(1767.022 3326.693)" fill="#ffd400"/>
    <path id="Path_36" data-name="Path 36" d="M-12.81-12.809A8.016,8.016,0,0,0-4.8-20.816h-5.551A2.459,2.459,0,0,1-12.81-18.36a2.459,2.459,0,0,1-2.457-2.456h-5.551a8.017,8.017,0,0,0,8.008,8.007" transform="translate(1753.702 3305.047)" fill="#003583"/>
    <path id="Path_37" data-name="Path 37" d="M-70.018,0A19.132,19.132,0,0,1-89.127,19.109,19.131,19.131,0,0,1-108.235,0h-5.551A24.687,24.687,0,0,0-89.127,24.659,24.688,24.688,0,0,0-64.467,0Z" transform="translate(1775.786 3284.231)" fill="#d80012"/>
    <path id="Path_38" data-name="Path 38" d="M-26.13-26.129A16.353,16.353,0,0,0-9.8-42.462h-5.551A10.794,10.794,0,0,1-26.13-31.68,10.8,10.8,0,0,1-36.913-42.462h-5.551A16.352,16.352,0,0,0-26.13-26.129" transform="translate(1712.79 3326.693)" fill="#ffd400"/>
    <path id="Path_39" data-name="Path 39" d="M-12.81-12.809A8.016,8.016,0,0,0-4.8-20.816h-5.551A2.459,2.459,0,0,1-12.81-18.36a2.459,2.459,0,0,1-2.457-2.456h-5.551a8.017,8.017,0,0,0,8.008,8.007" transform="translate(1699.47 3305.047)" fill="#003583"/>
    <path id="Path_40" data-name="Path 40" d="M-8.88-39.448A19.129,19.129,0,0,1,10.228-58.556,19.13,19.13,0,0,1,29.337-39.448h5.551a24.688,24.688,0,0,0-24.66-24.659A24.687,24.687,0,0,0-14.431-39.448H-8.88Z" transform="translate(1757.778 3320.903)" fill="#d80012"/>
    <path id="Path_41" data-name="Path 41" d="M-8.88-26.128A10.794,10.794,0,0,1,1.9-36.91,10.794,10.794,0,0,1,12.685-26.128h5.551A16.352,16.352,0,0,0,1.9-42.461,16.352,16.352,0,0,0-14.431-26.128H-8.88Z" transform="translate(1766.104 3307.583)" fill="#ffd400"/>
    <path id="Path_42" data-name="Path 42" d="M-8.88-12.808a2.459,2.459,0,0,1,2.457-2.456,2.458,2.458,0,0,1,2.456,2.456H1.583a8.015,8.015,0,0,0-8.007-8.007,8.016,8.016,0,0,0-8.008,8.007H-8.88Z" transform="translate(1774.43 3294.264)" fill="#003583"/>
    <path id="Path_43" data-name="Path 43" d="M-8.88-39.448A19.129,19.129,0,0,1,10.228-58.556,19.13,19.13,0,0,1,29.337-39.448h5.551a24.688,24.688,0,0,0-24.66-24.659A24.687,24.687,0,0,0-14.431-39.448H-8.88Z" transform="translate(1823.112 3320.903)" fill="#d80012"/>
    <path id="Path_44" data-name="Path 44" d="M-8.88-26.128A10.794,10.794,0,0,1,1.9-36.91,10.794,10.794,0,0,1,12.685-26.128h5.551A16.352,16.352,0,0,0,1.9-42.461,16.352,16.352,0,0,0-14.431-26.128H-8.88Z" transform="translate(1831.438 3307.583)" fill="#ffd400"/>
    <path id="Path_45" data-name="Path 45" d="M-8.879-12.808a2.459,2.459,0,0,1,2.457-2.456,2.458,2.458,0,0,1,2.456,2.456H1.584a8.015,8.015,0,0,0-8.007-8.007,8.016,8.016,0,0,0-8.007,8.007h5.551Z" transform="translate(1839.764 3294.264)" fill="#003583"/>
    <path id="Path_49" data-name="Path 49" d="M-8.88-39.448A19.129,19.129,0,0,1,10.228-58.556,19.13,19.13,0,0,1,29.337-39.448h5.551a24.688,24.688,0,0,0-24.66-24.659A24.687,24.687,0,0,0-14.431-39.448H-8.88Z" transform="translate(1776.887 3348.337)" fill="#d80012"/>
    <path id="Path_50" data-name="Path 50" d="M-8.88-26.128A10.794,10.794,0,0,1,1.9-36.91,10.794,10.794,0,0,1,12.685-26.128h5.551A16.352,16.352,0,0,0,1.9-42.461,16.352,16.352,0,0,0-14.431-26.128H-8.88Z" transform="translate(1785.213 3335.018)" fill="#ffdb44"/>
    <path id="Path_51" data-name="Path 51" d="M-8.88-12.808a2.459,2.459,0,0,1,2.457-2.456,2.458,2.458,0,0,1,2.456,2.456H1.583a8.015,8.015,0,0,0-8.007-8.007,8.016,8.016,0,0,0-8.008,8.007H-8.88Z" transform="translate(1793.54 3321.698)" fill="#003583"/>
    <path id="Path_52" data-name="Path 52" d="M-8.88,0A19.132,19.132,0,0,0,10.229,19.109,19.13,19.13,0,0,0,29.337,0h5.551A24.687,24.687,0,0,1,10.229,24.659,24.688,24.688,0,0,1-14.431,0Z" transform="translate(1823.112 3284.231)" fill="#d80012"/>
    <path id="Path_53" data-name="Path 53" d="M-26.128-26.129A16.352,16.352,0,0,1-42.461-42.462h5.551A10.794,10.794,0,0,0-26.128-31.68,10.794,10.794,0,0,0-15.345-42.462h5.551A16.353,16.353,0,0,1-26.128-26.129" transform="translate(1859.468 3326.693)" fill="#ffd400"/>
    <path id="Path_54" data-name="Path 54" d="M-12.808-12.809a8.016,8.016,0,0,1-8.007-8.007h5.551a2.459,2.459,0,0,0,2.456,2.456,2.459,2.459,0,0,0,2.457-2.456H-4.8a8.017,8.017,0,0,1-8.008,8.007" transform="translate(1846.148 3305.047)" fill="#003583"/>
    <path id="Path_58" data-name="Path 58" d="M-8.88-39.448A19.129,19.129,0,0,1,10.228-58.556,19.13,19.13,0,0,1,29.337-39.448h5.551a24.688,24.688,0,0,0-24.66-24.659A24.687,24.687,0,0,0-14.431-39.448H-8.88Z" transform="translate(1703.547 3320.903)" fill="#d80012"/>
    <path id="Path_59" data-name="Path 59" d="M-8.88-26.128A10.794,10.794,0,0,1,1.9-36.91,10.794,10.794,0,0,1,12.685-26.128h5.551A16.352,16.352,0,0,0,1.9-42.461,16.352,16.352,0,0,0-14.431-26.128H-8.88Z" transform="translate(1711.873 3307.583)" fill="#ffd400"/>
    <path id="Path_60" data-name="Path 60" d="M-8.88-12.808a2.459,2.459,0,0,1,2.457-2.456,2.458,2.458,0,0,1,2.456,2.456H1.583a8.015,8.015,0,0,0-8.007-8.007,8.016,8.016,0,0,0-8.008,8.007H-8.88Z" transform="translate(1720.199 3294.264)" fill="#003583"/>
  </g>
</svg>
