<svg xmlns="http://www.w3.org/2000/svg" width="196" height="52.094" viewBox="0 0 196 52.094">
  <g id="grafika_03" transform="translate(-1432 -1429.162)">
    <g id="Group_53" data-name="Group 53" transform="translate(1573.769 1481.256) rotate(180)">
      <path id="Path_34" data-name="Path 34" d="M-70.018,0A19.131,19.131,0,0,1-89.127,19.109,19.13,19.13,0,0,1-108.235,0h-5.551A24.687,24.687,0,0,0-89.127,24.659,24.688,24.688,0,0,0-64.467,0Z" transform="translate(113.786)" fill="#d80012"/>
    </g>
    <g id="Group_54" data-name="Group 54" transform="translate(1565.442 1481.255) rotate(180)">
      <path id="Path_35" data-name="Path 35" d="M-26.13-26.129A16.353,16.353,0,0,0-9.8-42.462h-5.551A10.794,10.794,0,0,1-26.13-31.68,10.8,10.8,0,0,1-36.913-42.462h-5.551A16.353,16.353,0,0,0-26.13-26.129" transform="translate(42.464 42.462)" fill="#ffd400"/>
    </g>
    <g id="Group_55" data-name="Group 55" transform="translate(1557.116 1481.255) rotate(180)">
      <path id="Path_36" data-name="Path 36" d="M-12.81-12.809A8.016,8.016,0,0,0-4.8-20.816h-5.551A2.459,2.459,0,0,1-12.81-18.36a2.459,2.459,0,0,1-2.457-2.456h-5.551a8.017,8.017,0,0,0,8.008,8.007" transform="translate(20.818 20.816)" fill="#003583"/>
    </g>
    <g id="Group_56" data-name="Group 56" transform="translate(1628 1481.256) rotate(180)">
      <path id="Path_37" data-name="Path 37" d="M-70.018,0A19.132,19.132,0,0,1-89.127,19.109,19.131,19.131,0,0,1-108.235,0h-5.551A24.687,24.687,0,0,0-89.127,24.659,24.688,24.688,0,0,0-64.467,0Z" transform="translate(113.786)" fill="#d80012"/>
    </g>
    <g id="Group_57" data-name="Group 57" transform="translate(1619.674 1481.255) rotate(180)">
      <path id="Path_38" data-name="Path 38" d="M-26.13-26.129A16.353,16.353,0,0,0-9.8-42.462h-5.551A10.794,10.794,0,0,1-26.13-31.68,10.8,10.8,0,0,1-36.913-42.462h-5.551A16.352,16.352,0,0,0-26.13-26.129" transform="translate(42.464 42.462)" fill="#ffd400"/>
    </g>
    <g id="Group_58" data-name="Group 58" transform="translate(1611.348 1481.255) rotate(180)">
      <path id="Path_39" data-name="Path 39" d="M-12.81-12.809A8.016,8.016,0,0,0-4.8-20.816h-5.551A2.459,2.459,0,0,1-12.81-18.36a2.459,2.459,0,0,1-2.457-2.456h-5.551a8.017,8.017,0,0,0,8.008,8.007" transform="translate(20.818 20.816)" fill="#003583"/>
    </g>
    <g id="Group_65" data-name="Group 65" transform="translate(1554.659 1453.822) rotate(180)">
      <path id="Path_46" data-name="Path 46" d="M-70.018,0A19.132,19.132,0,0,1-89.128,19.109,19.13,19.13,0,0,1-108.235,0h-5.551A24.687,24.687,0,0,0-89.128,24.659,24.688,24.688,0,0,0-64.467,0Z" transform="translate(113.786)" fill="#d80012"/>
    </g>
    <g id="Group_66" data-name="Group 66" transform="translate(1546.333 1453.821) rotate(180)">
      <path id="Path_47" data-name="Path 47" d="M-26.13-26.129A16.353,16.353,0,0,0-9.8-42.462h-5.551A10.794,10.794,0,0,1-26.13-31.68,10.8,10.8,0,0,1-36.913-42.462h-5.551A16.353,16.353,0,0,0-26.13-26.129" transform="translate(42.464 42.462)" fill="#ffd400"/>
    </g>
    <g id="Group_67" data-name="Group 67" transform="translate(1538.007 1453.821) rotate(180)">
      <path id="Path_48" data-name="Path 48" d="M-12.81-12.809A8.016,8.016,0,0,0-4.8-20.816h-5.551A2.459,2.459,0,0,1-12.81-18.36a2.459,2.459,0,0,1-2.457-2.456h-5.551a8.017,8.017,0,0,0,8.008,8.007" transform="translate(20.818 20.816)" fill="#003583"/>
    </g>
    <g id="Group_68" data-name="Group 68" transform="translate(1527.544 1481.256) rotate(180)">
      <path id="Path_49" data-name="Path 49" d="M-8.88-39.448A19.129,19.129,0,0,1,10.228-58.556,19.13,19.13,0,0,1,29.337-39.448h5.551a24.688,24.688,0,0,0-24.66-24.659A24.687,24.687,0,0,0-14.431-39.448H-8.88Z" transform="translate(14.431 64.107)" fill="#d80012"/>
    </g>
    <g id="Group_69" data-name="Group 69" transform="translate(1519.218 1472.93) rotate(180)">
      <path id="Path_50" data-name="Path 50" d="M-8.88-26.128A10.794,10.794,0,0,1,1.9-36.91,10.794,10.794,0,0,1,12.685-26.128h5.551A16.352,16.352,0,0,0,1.9-42.461,16.352,16.352,0,0,0-14.431-26.128H-8.88Z" transform="translate(14.431 42.461)" fill="#ffdb44"/>
    </g>
    <g id="Group_70" data-name="Group 70" transform="translate(1510.891 1464.603) rotate(180)">
      <path id="Path_51" data-name="Path 51" d="M-8.88-12.808a2.459,2.459,0,0,1,2.457-2.456,2.458,2.458,0,0,1,2.456,2.456H1.583a8.015,8.015,0,0,0-8.007-8.007,8.016,8.016,0,0,0-8.008,8.007H-8.88Z" transform="translate(14.431 20.815)" fill="#003583"/>
    </g>
    <g id="Group_71" data-name="Group 71" transform="translate(1481.319 1481.256) rotate(180)">
      <path id="Path_52" data-name="Path 52" d="M-8.88,0A19.132,19.132,0,0,0,10.229,19.109,19.13,19.13,0,0,0,29.337,0h5.551A24.687,24.687,0,0,1,10.229,24.659,24.688,24.688,0,0,1-14.431,0Z" transform="translate(14.431)" fill="#d80012"/>
    </g>
    <g id="Group_72" data-name="Group 72" transform="translate(1472.993 1481.255) rotate(180)">
      <path id="Path_53" data-name="Path 53" d="M-26.128-26.129A16.352,16.352,0,0,1-42.461-42.462h5.551A10.794,10.794,0,0,0-26.128-31.68,10.794,10.794,0,0,0-15.345-42.462h5.551A16.353,16.353,0,0,1-26.128-26.129" transform="translate(42.461 42.462)" fill="#ffd400"/>
    </g>
    <g id="Group_73" data-name="Group 73" transform="translate(1464.667 1481.255) rotate(180)">
      <path id="Path_54" data-name="Path 54" d="M-12.808-12.809a8.016,8.016,0,0,1-8.007-8.007h5.551a2.459,2.459,0,0,0,2.456,2.456,2.459,2.459,0,0,0,2.457-2.456H-4.8a8.017,8.017,0,0,1-8.008,8.007" transform="translate(20.815 20.816)" fill="#003583"/>
    </g>
    <g id="Group_74" data-name="Group 74" transform="translate(1500.428 1453.822) rotate(180)">
      <path id="Path_55" data-name="Path 55" d="M-70.018,0A19.129,19.129,0,0,1-89.126,19.107,19.131,19.131,0,0,1-108.235,0h-5.551a24.688,24.688,0,0,0,24.66,24.659A24.688,24.688,0,0,0-64.467,0h-5.551Z" transform="translate(113.786 0.002)" fill="#d80012"/>
    </g>
    <g id="Group_75" data-name="Group 75" transform="translate(1492.102 1453.822) rotate(180)">
      <path id="Path_56" data-name="Path 56" d="M-43.378,0A10.794,10.794,0,0,1-54.162,10.781,10.794,10.794,0,0,1-64.943,0h-5.551A16.352,16.352,0,0,0-54.162,16.331,16.353,16.353,0,0,0-37.827,0h-5.551Z" transform="translate(70.494 0.002)" fill="#ffd400"/>
    </g>
    <g id="Group_76" data-name="Group 76" transform="translate(1483.776 1453.822) rotate(180)">
      <path id="Path_57" data-name="Path 57" d="M-16.739,0A2.459,2.459,0,0,1-19.2,2.454,2.458,2.458,0,0,1-21.651,0H-27.2A8.015,8.015,0,0,0-19.2,8.005,8.016,8.016,0,0,0-11.188,0h-5.551Z" transform="translate(27.202 0.002)" fill="#003583"/>
    </g>
  </g>
</svg>
