<svg xmlns="http://www.w3.org/2000/svg" width="103.551" height="71.745" viewBox="0 0 103.551 71.745">
  <g id="grafika_04" transform="translate(-65.334)">
    <g id="Group_59" data-name="Group 59" transform="translate(65.334 47.085)">
      <path id="Path_40" data-name="Path 40" d="M29.337-39.448A19.129,19.129,0,0,0,10.229-58.556,19.13,19.13,0,0,0-8.88-39.448h-5.551a24.688,24.688,0,0,1,24.66-24.659A24.687,24.687,0,0,1,34.888-39.448H29.337Z" transform="translate(14.431 64.107)" fill="#d80012"/>
    </g>
    <g id="Group_60" data-name="Group 60" transform="translate(73.66 55.411)">
      <path id="Path_41" data-name="Path 41" d="M12.685-26.128A10.794,10.794,0,0,0,1.9-36.91,10.794,10.794,0,0,0-8.88-26.128h-5.551A16.352,16.352,0,0,1,1.9-42.461,16.352,16.352,0,0,1,18.236-26.128H12.685Z" transform="translate(14.431 42.461)" fill="#ffd400"/>
    </g>
    <g id="Group_61" data-name="Group 61" transform="translate(81.987 63.737)">
      <path id="Path_42" data-name="Path 42" d="M-3.968-12.808a2.459,2.459,0,0,0-2.457-2.456A2.458,2.458,0,0,0-8.88-12.808h-5.551a8.015,8.015,0,0,1,8.007-8.007,8.016,8.016,0,0,1,8.008,8.007H-3.968Z" transform="translate(14.431 20.815)" fill="#003583"/>
    </g>
    <g id="Group_77" data-name="Group 77" transform="translate(119.566 47.085)">
      <path id="Path_58" data-name="Path 58" d="M29.337-39.448A19.129,19.129,0,0,0,10.229-58.556,19.13,19.13,0,0,0-8.88-39.448h-5.551a24.688,24.688,0,0,1,24.66-24.659A24.687,24.687,0,0,1,34.888-39.448H29.337Z" transform="translate(14.431 64.107)" fill="#d80012"/>
    </g>
    <g id="Group_78" data-name="Group 78" transform="translate(127.892 55.411)">
      <path id="Path_59" data-name="Path 59" d="M12.685-26.128A10.794,10.794,0,0,0,1.9-36.91,10.794,10.794,0,0,0-8.88-26.128h-5.551A16.352,16.352,0,0,1,1.9-42.461,16.352,16.352,0,0,1,18.236-26.128H12.685Z" transform="translate(14.431 42.461)" fill="#ffd400"/>
    </g>
    <g id="Group_79" data-name="Group 79" transform="translate(136.218 63.737)">
      <path id="Path_60" data-name="Path 60" d="M-3.968-12.808a2.459,2.459,0,0,0-2.457-2.456A2.458,2.458,0,0,0-8.88-12.808h-5.551a8.015,8.015,0,0,1,8.007-8.007,8.016,8.016,0,0,1,8.008,8.007H-3.968Z" transform="translate(14.431 20.815)" fill="#003583"/>
    </g>
    <g id="Group_80" data-name="Group 80" transform="translate(92.45 26.904)">
      <path id="Path_61" data-name="Path 61" d="M-108.235,0A19.131,19.131,0,0,0-89.126,19.109,19.131,19.131,0,0,0-70.018,0h5.551A24.688,24.688,0,0,1-89.126,24.659,24.688,24.688,0,0,1-113.786,0Z" transform="translate(113.786)" fill="#d80012"/>
    </g>
    <g id="Group_81" data-name="Group 81" transform="translate(100.776 26.904)">
      <path id="Path_62" data-name="Path 62" d="M-26.131-26.129A16.353,16.353,0,0,1-42.464-42.462h5.551A10.794,10.794,0,0,0-26.131-31.68,10.8,10.8,0,0,0-15.348-42.462H-9.8A16.353,16.353,0,0,1-26.131-26.129" transform="translate(42.464 42.462)" fill="#ffd400"/>
    </g>
    <g id="Group_82" data-name="Group 82" transform="translate(109.102 26.904)">
      <path id="Path_63" data-name="Path 63" d="M-12.811-12.809a8.016,8.016,0,0,1-8.007-8.007h5.551a2.459,2.459,0,0,0,2.456,2.456,2.459,2.459,0,0,0,2.457-2.456H-4.8a8.017,8.017,0,0,1-8.008,8.007" transform="translate(20.818 20.816)" fill="#003583"/>
    </g>
    <g id="Group_83" data-name="Group 83" transform="translate(92.45)">
      <path id="Path_64" data-name="Path 64" d="M29.337-39.448A19.129,19.129,0,0,0,10.229-58.556,19.13,19.13,0,0,0-8.88-39.448h-5.551a24.688,24.688,0,0,1,24.66-24.659A24.688,24.688,0,0,1,34.888-39.448H29.337Z" transform="translate(14.431 64.107)" fill="#d80012"/>
    </g>
    <g id="Group_84" data-name="Group 84" transform="translate(100.776 8.326)">
      <path id="Path_65" data-name="Path 65" d="M12.685-26.128A10.794,10.794,0,0,0,1.9-36.91,10.794,10.794,0,0,0-8.88-26.128h-5.551A16.352,16.352,0,0,1,1.9-42.461,16.353,16.353,0,0,1,18.236-26.128H12.685Z" transform="translate(14.431 42.461)" fill="#ffd400"/>
    </g>
    <g id="Group_85" data-name="Group 85" transform="translate(109.102 16.652)">
      <path id="Path_66" data-name="Path 66" d="M-3.967-12.808a2.459,2.459,0,0,0-2.457-2.456A2.459,2.459,0,0,0-8.88-12.808h-5.551a8.015,8.015,0,0,1,8.007-8.007,8.016,8.016,0,0,1,8.008,8.007H-3.967Z" transform="translate(14.431 20.815)" fill="#003583"/>
    </g>
  </g>
</svg>
