<svg xmlns="http://www.w3.org/2000/svg" width="315.597" height="208.983" viewBox="0 0 315.597 208.983">
  <g id="grafika_01" transform="translate(-3463 -663.162)">
    <path id="Path_34" data-name="Path 34" d="M-21.561,0A40.313,40.313,0,0,1-61.826,40.265,40.311,40.311,0,0,1-102.089,0h-11.7a52.02,52.02,0,0,0,51.96,51.961A52.02,52.02,0,0,0-9.864,0Z" transform="translate(3691.059 820.184)" fill="#d80012"/>
    <path id="Path_35" data-name="Path 35" d="M-8.046-8.046A34.457,34.457,0,0,0,26.369-42.462h-11.7A22.745,22.745,0,0,1-8.046-19.742a22.746,22.746,0,0,1-22.722-22.72h-11.7A34.457,34.457,0,0,0-8.046-8.046" transform="translate(3637.282 862.647)" fill="#ffd400"/>
    <path id="Path_36" data-name="Path 36" d="M-3.945-3.944A16.892,16.892,0,0,0,12.926-20.816H1.23a5.181,5.181,0,0,1-5.174,5.175,5.182,5.182,0,0,1-5.178-5.175h-11.7A16.894,16.894,0,0,0-3.945-3.944" transform="translate(3633.18 841.001)" fill="#003583"/>
    <path id="Path_37" data-name="Path 37" d="M-21.561,0A40.313,40.313,0,0,1-61.826,40.265,40.312,40.312,0,0,1-102.09,0h-11.7a52.02,52.02,0,0,0,51.96,51.961A52.021,52.021,0,0,0-9.864,0Z" transform="translate(3576.786 820.184)" fill="#d80012"/>
    <path id="Path_38" data-name="Path 38" d="M-8.046-8.046A34.457,34.457,0,0,0,26.369-42.462h-11.7A22.745,22.745,0,0,1-8.046-19.742a22.746,22.746,0,0,1-22.722-22.72h-11.7A34.457,34.457,0,0,0-8.046-8.046" transform="translate(3523.009 862.647)" fill="#ffd400"/>
    <path id="Path_39" data-name="Path 39" d="M-3.945-3.944A16.892,16.892,0,0,0,12.926-20.816H1.23a5.181,5.181,0,0,1-5.174,5.175,5.182,5.182,0,0,1-5.178-5.175h-11.7A16.893,16.893,0,0,0-3.945-3.944" transform="translate(3518.907 841.001)" fill="#003583"/>
    <path id="Path_40" data-name="Path 40" d="M-2.734-12.147A40.308,40.308,0,0,1,37.529-52.41,40.31,40.31,0,0,1,77.794-12.147v0h11.7v0a52.02,52.02,0,0,0-51.962-51.96,52.02,52.02,0,0,0-51.96,51.96v0h11.7Z" transform="translate(3648.841 826.483)" fill="#d80012"/>
    <path id="Path_41" data-name="Path 41" d="M-2.734-8.046A22.745,22.745,0,0,1,19.987-30.764,22.744,22.744,0,0,1,42.705-8.046v0H54.4v0A34.456,34.456,0,0,0,19.987-42.461,34.457,34.457,0,0,0-14.431-8.046v0h11.7Z" transform="translate(3666.385 822.382)" fill="#ffd400"/>
    <path id="Path_42" data-name="Path 42" d="M-2.734-3.944A5.181,5.181,0,0,1,2.442-9.118,5.18,5.18,0,0,1,7.617-3.944v0h11.7v0A16.889,16.889,0,0,0,2.442-20.815,16.891,16.891,0,0,0-14.431-3.944v0h11.7Z" transform="translate(3683.929 818.28)" fill="#003583"/>
    <path id="Path_49" data-name="Path 49" d="M-2.734-12.147A40.308,40.308,0,0,1,37.529-52.41,40.31,40.31,0,0,1,77.794-12.147v0h11.7v0a52.02,52.02,0,0,0-51.962-51.96,52.02,52.02,0,0,0-51.96,51.96v0h11.7Z" transform="translate(3689.106 884.291)" fill="#d80012"/>
    <path id="Path_50" data-name="Path 50" d="M-2.734-8.046A22.745,22.745,0,0,1,19.987-30.764,22.744,22.744,0,0,1,42.705-8.046v0H54.4v0A34.456,34.456,0,0,0,19.987-42.461,34.457,34.457,0,0,0-14.431-8.046v0h11.7Z" transform="translate(3706.651 880.189)" fill="#ffdb44"/>
    <path id="Path_51" data-name="Path 51" d="M-2.734-3.944A5.181,5.181,0,0,1,2.442-9.118,5.18,5.18,0,0,1,7.617-3.944v0h11.7v0A16.889,16.889,0,0,0,2.442-20.815,16.891,16.891,0,0,0-14.431-3.944v0h11.7Z" transform="translate(3724.195 876.088)" fill="#003583"/>
    <path id="Path_58" data-name="Path 58" d="M-2.734-12.147A40.308,40.308,0,0,1,37.529-52.41,40.31,40.31,0,0,1,77.794-12.147v0h11.7v0a52.02,52.02,0,0,0-51.962-51.96,52.02,52.02,0,0,0-51.96,51.96v0h11.7Z" transform="translate(3534.567 826.483)" fill="#d80012"/>
    <path id="Path_59" data-name="Path 59" d="M-2.734-8.046A22.745,22.745,0,0,1,19.987-30.764,22.744,22.744,0,0,1,42.705-8.046v0H54.4v0A34.456,34.456,0,0,0,19.987-42.461,34.457,34.457,0,0,0-14.431-8.046v0h11.7Z" transform="translate(3552.112 822.382)" fill="#ffd400"/>
    <path id="Path_60" data-name="Path 60" d="M-2.734-3.944A5.181,5.181,0,0,1,2.442-9.118,5.18,5.18,0,0,1,7.617-3.944v0h11.7v0A16.889,16.889,0,0,0,2.442-20.815,16.891,16.891,0,0,0-14.431-3.944v0h11.7Z" transform="translate(3569.656 818.28)" fill="#003583"/>
    <path id="Path_61" data-name="Path 61" d="M-21.561,0A40.313,40.313,0,0,1-61.826,40.265,40.311,40.311,0,0,1-102.089,0h-11.7a52.02,52.02,0,0,0,51.96,51.961A52.02,52.02,0,0,0-9.864,0Z" transform="translate(3691.059 719.852)" fill="#d80012"/>
    <path id="Path_62" data-name="Path 62" d="M-8.046-8.046A34.457,34.457,0,0,0,26.369-42.462h-11.7A22.745,22.745,0,0,1-8.046-19.742a22.746,22.746,0,0,1-22.722-22.72h-11.7A34.457,34.457,0,0,0-8.046-8.046" transform="translate(3637.282 762.314)" fill="#ffd400"/>
    <path id="Path_63" data-name="Path 63" d="M-3.945-3.944A16.892,16.892,0,0,0,12.926-20.816H1.23a5.181,5.181,0,0,1-5.174,5.175,5.182,5.182,0,0,1-5.178-5.175h-11.7A16.894,16.894,0,0,0-3.945-3.944" transform="translate(3633.18 740.668)" fill="#003583"/>
    <path id="Path_64" data-name="Path 64" d="M-2.734-12.147A40.308,40.308,0,0,1,37.529-52.41,40.31,40.31,0,0,1,77.794-12.147v0h11.7v0a52.02,52.02,0,0,0-51.962-51.96,52.02,52.02,0,0,0-51.96,51.96v0h11.7Z" transform="translate(3591.704 727.269)" fill="#d80012"/>
    <path id="Path_65" data-name="Path 65" d="M-2.734-8.046A22.745,22.745,0,0,1,19.988-30.764,22.744,22.744,0,0,1,42.706-8.046v0H54.4v0A34.456,34.456,0,0,0,19.988-42.461,34.457,34.457,0,0,0-14.431-8.046v0h11.7Z" transform="translate(3609.248 723.167)" fill="#ffd400"/>
    <path id="Path_66" data-name="Path 66" d="M-2.734-3.944A5.181,5.181,0,0,1,2.443-9.118,5.181,5.181,0,0,1,7.617-3.944v0h11.7v0A16.889,16.889,0,0,0,2.443-20.815,16.892,16.892,0,0,0-14.431-3.944v0h11.7Z" transform="translate(3626.792 719.066)" fill="#003583"/>
  </g>
</svg>
