<svg xmlns="http://www.w3.org/2000/svg" width="425.895" height="111.125" viewBox="0 0 425.895 111.125">
  <g id="logo_sportovec_roku" transform="translate(-54.999 -396.922)">
    <g id="Group_1" data-name="Group 1" transform="translate(387.961 422.223)">
      <path id="Path_1" data-name="Path 1" d="M239.451,438.239l.572-5.594a11.262,11.262,0,0,1,1.856-5.612,7.3,7.3,0,0,1,4.347-2.578l5.661-1.348a5.022,5.022,0,0,0,2.446-1.146,3.368,3.368,0,0,0,.859-2.089l.135-1.114a3.271,3.271,0,0,0-.607-2.63,4.707,4.707,0,0,0-5.444.119,6.883,6.883,0,0,0-1.264,3.488l-6.271-.336a9.747,9.747,0,0,1,3.186-6.37q2.543-2.09,7.567-2.09,4.988,0,7.264,2.006t1.87,5.78l-.168,1.518a8.7,8.7,0,0,1-1.72,4.767,7.648,7.648,0,0,1-4.246,2.311l-5.7,1.348a4.741,4.741,0,0,0-2.509,1.246,4.541,4.541,0,0,0-.928,2.664l-.1,1.009h14.091l-.505,4.652Z" transform="translate(-239.451 -410.938)" fill="#003583"/>
      <path id="Path_2" data-name="Path 2" d="M262.5,438.577q-4.885,0-7.2-3.016t-1.735-8.477l.471-4.516a13.993,13.993,0,0,1,3.54-8.56,10.38,10.38,0,0,1,7.82-3.069q4.887,0,7.177,3.069t1.72,8.56l-.471,4.516a13.837,13.837,0,0,1-3.507,8.477A10.407,10.407,0,0,1,262.5,438.577Zm.473-4.381a3.356,3.356,0,0,0,3.253-1.769,17.841,17.841,0,0,0,1.366-5.95l.336-3.3a17.008,17.008,0,0,0-.117-6.033q-.555-1.822-2.883-1.821a3.371,3.371,0,0,0-3.269,1.821,18.164,18.164,0,0,0-1.383,6.033l-.338,3.3a16.062,16.062,0,0,0,.137,5.95Q260.647,434.195,262.973,434.2Z" transform="translate(-228.175 -410.938)" fill="#003583"/>
      <path id="Path_3" data-name="Path 3" d="M266.774,438.088l.505-4.652h6.2l1.718-16.38h-.875a6.705,6.705,0,0,1-2.444,3.54,6.958,6.958,0,0,1-3.692,1.449l.236-4.652a8.521,8.521,0,0,0,4.314-1.886,9.689,9.689,0,0,0,3.136-4.383h6.235l-2.325,22.312h5.628l-.505,4.652Z" transform="translate(-217.452 -410.787)" fill="#003583"/>
      <path id="Path_4" data-name="Path 4" d="M288.234,438.577q-4.887,0-6.894-1.718a7.267,7.267,0,0,1-2.24-5.293l6.639-.774a3.937,3.937,0,0,0,.912,2.747,3.771,3.771,0,0,0,2.459.657,3.39,3.39,0,0,0,2.915-1.163,9.492,9.492,0,0,0,1.2-4.332l.3-2.9h-.439a6.184,6.184,0,0,1-2.392,1.7,9.28,9.28,0,0,1-3.607.625q-3.978,0-5.729-1.989t-1.314-6.033l.067-.742a8.821,8.821,0,0,1,3.117-6.184q2.713-2.239,7.972-2.242,5.191,0,7.434,2.46t1.733,7.179l-.841,8.157a11.777,11.777,0,0,1-3.033,7.179Q293.931,438.578,288.234,438.577Zm1.585-14.326a3.982,3.982,0,0,0,3.116-1.078,5.847,5.847,0,0,0,1.2-3.338l.067-.437a4.366,4.366,0,0,0-.554-3.1,3.532,3.532,0,0,0-2.915-.978,4.089,4.089,0,0,0-3.083,1.013,5.037,5.037,0,0,0-1.164,3.067l-.067.437a4.931,4.931,0,0,0,.522,3.338A3.309,3.309,0,0,0,289.819,424.251Z" transform="translate(-207.528 -410.938)" fill="#003583"/>
    </g>
    <g id="Group_2" data-name="Group 2" transform="translate(54.999 422.223)">
      <path id="Path_5" data-name="Path 5" d="M64.671,438.527a18.183,18.183,0,0,1-4.937-.706A20.676,20.676,0,0,1,55,435.83l1.617-4.751a19.242,19.242,0,0,0,4.466,2.072,15.587,15.587,0,0,0,4.7.726,4.336,4.336,0,0,0,2.849-.827,3.107,3.107,0,0,0,1.13-2.173,2.013,2.013,0,0,0-1.011-2.09,17.758,17.758,0,0,0-4.45-1.415,13.327,13.327,0,0,1-5.847-2.695q-1.874-1.719-1.534-5.091a9.219,9.219,0,0,1,3.219-6.184,10.929,10.929,0,0,1,7.434-2.444,16.824,16.824,0,0,1,4.852.708,13.646,13.646,0,0,1,3.944,1.82L75.052,418a20.026,20.026,0,0,0-3.959-1.769,12.539,12.539,0,0,0-3.793-.625,4.854,4.854,0,0,0-2.8.742,2.931,2.931,0,0,0-1.247,2.191,2.044,2.044,0,0,0,.928,2.089,17.861,17.861,0,0,0,4.567,1.518,12.93,12.93,0,0,1,5.95,2.865,5.975,5.975,0,0,1,1.4,5.123,8.575,8.575,0,0,1-3.352,6.083Q69.794,438.531,64.671,438.527Z" transform="translate(-54.999 -410.923)" fill="#003583"/>
      <path id="Path_6" data-name="Path 6" d="M68.433,438.088l2.832-26.963H81.309q4.045,0,6.017,1.971t1.567,5.679l-.37,3.607a7.657,7.657,0,0,1-2.747,5.444,9.924,9.924,0,0,1-6.387,1.9H75.614l-.876,8.358Zm7.652-12.975h2.663a3.674,3.674,0,0,0,2.495-.742,4.082,4.082,0,0,0,1.045-2.7l.235-2.325a3.669,3.669,0,0,0-.437-2.78,2.92,2.92,0,0,0-2.327-.794H77.1Z" transform="translate(-44.183 -410.787)" fill="#003583"/>
      <path id="Path_7" data-name="Path 7" d="M90.174,438.577q-4.92,0-7.313-2.376t-1.955-6.591l1.011-9.573a9.6,9.6,0,0,1,3.338-6.674,11.807,11.807,0,0,1,7.82-2.426q4.955,0,7.314,2.426t1.921,6.674L101.3,429.61a9.419,9.419,0,0,1-3.32,6.591A11.9,11.9,0,0,1,90.174,438.577Zm.473-4.65a4.111,4.111,0,0,0,3.168-1.045,6.944,6.944,0,0,0,1.247-3.811l.877-8.493q.3-2.862-.4-3.926T92.6,415.59a4.119,4.119,0,0,0-3.184,1.061,7.148,7.148,0,0,0-1.265,3.926l-.875,8.493q-.3,2.767.421,3.811T90.647,433.927Z" transform="translate(-34.194 -410.938)" fill="#003583"/>
      <path id="Path_8" data-name="Path 8" d="M100.524,438.088H94.219l2.832-26.963h11.56q3.91,0,5.816,1.9t1.533,5.477l-.235,2.359a8.971,8.971,0,0,1-1.686,4.567,7.348,7.348,0,0,1-3.742,2.545l4.551,10.111H107.7l-4.347-9.638h-1.821Zm1.482-14.257h4.28a3.329,3.329,0,0,0,2.191-.625,3.579,3.579,0,0,0,.942-2.376l.2-2.089q.2-1.82-.4-2.394a2.971,2.971,0,0,0-2.058-.574h-4.28Z" transform="translate(-23.421 -410.787)" fill="#003583"/>
      <path id="Path_9" data-name="Path 9" d="M112.739,438.088l2.359-22.313h-7.009l.469-4.65h20.36l-.473,4.65H121.4l-2.359,22.313Z" transform="translate(-12.254 -410.787)" fill="#003583"/>
      <path id="Path_10" data-name="Path 10" d="M129.257,438.577q-4.923,0-7.314-2.376t-1.955-6.591L121,420.038a9.6,9.6,0,0,1,3.338-6.674,11.807,11.807,0,0,1,7.82-2.426q4.955,0,7.314,2.426t1.921,6.674l-1.011,9.573a9.412,9.412,0,0,1-3.32,6.591A11.9,11.9,0,0,1,129.257,438.577Zm.471-4.65a4.108,4.108,0,0,0,3.168-1.045,6.957,6.957,0,0,0,1.249-3.811l.875-8.493q.3-2.862-.4-3.926t-2.933-1.061a4.119,4.119,0,0,0-3.184,1.061,7.149,7.149,0,0,0-1.265,3.926l-.875,8.493q-.3,2.767.421,3.811T129.729,433.927Z" transform="translate(-2.728 -410.938)" fill="#003583"/>
      <path id="Path_11" data-name="Path 11" d="M145.327,438.088h-8.493l-3.37-26.963H139.8l2.056,21.808,6.674-21.808h5.9Z" transform="translate(8.176 -410.787)" fill="#003583"/>
      <path id="Path_12" data-name="Path 12" d="M144.9,438.088l2.83-26.963h17.427l-.471,4.65H153.568l-.607,5.6H162.7l-.471,4.652h-9.742l-.776,7.414h11.125l-.507,4.652Z" transform="translate(17.388 -410.787)" fill="#003583"/>
      <path id="Path_13" data-name="Path 13" d="M167.144,438.577q-5.665,0-8-2.376t-1.906-6.591l1.011-9.573a9.692,9.692,0,0,1,3.287-6.674q2.846-2.423,8.511-2.426,5.191,0,7.482,2.343t1.955,7.331l-6.338.336q.171-3.1-.639-4.228a3.552,3.552,0,0,0-3.067-1.13,4.968,4.968,0,0,0-3.59,1.061,6.637,6.637,0,0,0-1.365,3.96l-.877,8.459q-.3,2.8.522,3.827t3.356,1.029a4.378,4.378,0,0,0,3.3-1.1,8.079,8.079,0,0,0,1.549-4.128l6.271.337q-.745,4.92-3.507,7.23T167.144,438.577Z" transform="translate(27.259 -410.938)" fill="#003583"/>
    </g>
    <g id="Group_3" data-name="Group 3" transform="translate(111.022 455.107)">
      <path id="Path_14" data-name="Path 14" d="M92.339,456.306H86.034l2.832-26.965h11.56q3.91,0,5.816,1.9t1.533,5.477l-.236,2.361a8.953,8.953,0,0,1-1.684,4.565,7.338,7.338,0,0,1-3.742,2.545l4.551,10.112H99.517l-4.347-9.639H93.348Zm1.482-14.259H98.1a3.339,3.339,0,0,0,2.191-.623,3.584,3.584,0,0,0,.942-2.377l.2-2.089q.2-1.82-.4-2.392a2.964,2.964,0,0,0-2.058-.574H94.7Z" transform="translate(-86.034 -429.005)" fill="#003583"/>
      <path id="Path_15" data-name="Path 15" d="M109.152,456.792q-4.92,0-7.313-2.376t-1.955-6.589l1.011-9.573a9.592,9.592,0,0,1,3.338-6.674,11.8,11.8,0,0,1,7.82-2.426q4.955,0,7.314,2.426t1.921,6.674l-1.011,9.573a9.418,9.418,0,0,1-3.32,6.589A11.9,11.9,0,0,1,109.152,456.792Zm.473-4.65a4.1,4.1,0,0,0,3.168-1.045,6.942,6.942,0,0,0,1.247-3.809l.877-8.493q.3-2.865-.4-3.926t-2.933-1.063a4.113,4.113,0,0,0-3.184,1.063,7.137,7.137,0,0,0-1.265,3.926l-.875,8.493q-.3,2.765.421,3.809T109.625,452.142Z" transform="translate(-74.937 -429.155)" fill="#003583"/>
      <path id="Path_16" data-name="Path 16" d="M120.714,444.712,119.5,456.306H113.2l2.832-26.965h6.3L121.22,440.06H122.4l6.91-10.719h6.876l-8.932,12.437,6,14.528h-7.248l-4.045-11.594Z" transform="translate(-64.165 -429.005)" fill="#003583"/>
      <path id="Path_17" data-name="Path 17" d="M135.413,456.642q-5.356,0-7.549-2.24t-1.686-7.231l1.888-17.829h6.3l-1.821,17.427q-.3,2.832.422,3.892t2.948,1.063a4.062,4.062,0,0,0,3.17-1.063,7.2,7.2,0,0,0,1.247-3.892l1.82-17.427h6.3l-1.888,17.829q-.506,4.99-3.168,7.231T135.413,456.642Z" transform="translate(-53.789 -429.005)" fill="#003583"/>
    </g>
    <g id="Group_4" data-name="Group 4" transform="translate(327.301 455.253)">
      <path id="Path_18" data-name="Path 18" d="M212.349,448.126l-2.6-11.9-1.765,16.8h-2.135l2.061-19.625h3.361l2.7,12.585,5.349-12.585H222.5l-2.06,19.625H218.31l1.765-16.828L215,448.126Z" transform="translate(-205.847 -425.878)" fill="#003583"/>
      <path id="Path_19" data-name="Path 19" d="M222.021,456.634a5.939,5.939,0,0,1-4.7-1.691q-1.481-1.692-1.114-4.979l.686-6.674a7.791,7.791,0,0,1,2.208-5.065,7.144,7.144,0,0,1,5.054-1.7,5.668,5.668,0,0,1,4.464,1.655,6.626,6.626,0,0,1,1.276,4.943l-2.307.245a5.769,5.769,0,0,0-.762-3.715,3.5,3.5,0,0,0-2.919-1.092,4.534,4.534,0,0,0-3.349,1.1,6,6,0,0,0-1.361,3.63l-.688,6.674a4.834,4.834,0,0,0,.6,3.554,3.825,3.825,0,0,0,3.128,1.081,4.3,4.3,0,0,0,3.188-1.09,6.532,6.532,0,0,0,1.471-3.621l2.258.247a7.588,7.588,0,0,1-2.246,4.856A7.036,7.036,0,0,1,222.021,456.634Zm1.5-22.42-3.41-3.63,1.13-1.349,3.359,2.7,3.85-2.7.885,1.349-4.146,3.63Z" transform="translate(-197.564 -429.236)" fill="#003583"/>
      <path id="Path_20" data-name="Path 20" d="M228.063,453.033l2.061-19.625h5.764a5.108,5.108,0,0,1,3.852,1.289,4.629,4.629,0,0,1,.957,3.84l-.246,2.379a5.671,5.671,0,0,1-1.765,3.852,6.116,6.116,0,0,1-4.146,1.3h-3.433l-.736,6.968Zm3.24-8.953h3.359a3.078,3.078,0,0,0,3.507-3.164l.245-2.33a2.98,2.98,0,0,0-.516-2.392,3.049,3.049,0,0,0-2.329-.749h-3.361Z" transform="translate(-187.96 -425.878)" fill="#003583"/>
      <path id="Path_21" data-name="Path 21" d="M237.869,453.033h-2.307l2.061-19.625h7.385a4.714,4.714,0,0,1,3.7,1.3,4.831,4.831,0,0,1,.883,3.85l-.146,1.5a6.388,6.388,0,0,1-1.386,3.594,5.068,5.068,0,0,1-3.152,1.632l3.408,7.751h-2.648l-3.361-7.679h-3.63Zm1.031-9.69h4.93a3.164,3.164,0,0,0,2.33-.785,4.114,4.114,0,0,0,.98-2.5l.148-1.52a3.032,3.032,0,0,0-.466-2.343,2.743,2.743,0,0,0-2.182-.749h-4.932Z" transform="translate(-181.922 -425.878)" fill="#003583"/>
      <path id="Path_22" data-name="Path 22" d="M256.06,453.033l-1.079-5.74h-6.7l-2.305,5.74h-2.305l8.217-19.625h2.525l4.072,19.625Zm-1.473-7.825-1.764-9.3-3.706,9.3Z" transform="translate(-175.392 -425.878)" fill="#003583"/>
      <path id="Path_23" data-name="Path 23" d="M252.981,453.033l2.061-19.625h2.3l-.832,7.948h7.946l.834-7.948H267.6l-2.061,19.625h-2.305l1.005-9.593h-7.948l-1.005,9.593Z" transform="translate(-167.897 -425.878)" fill="#003583"/>
      <path id="Path_24" data-name="Path 24" d="M273.434,453.033l-1.079-5.74h-6.7l-2.305,5.74h-2.307l8.219-19.625h2.525l4.072,19.625Zm-1.473-7.825-1.764-9.3-3.706,9.3Z" transform="translate(-161.405 -425.878)" fill="#003583"/>
      <path id="Path_25" data-name="Path 25" d="M274.09,453.033l.222-2.036h4.513l1.424-13.687h-.419a5.231,5.231,0,0,1-1.863,2.377,5.306,5.306,0,0,1-2.773,1.005l.051-2.305a5.479,5.479,0,0,0,3.408-1.446,7.075,7.075,0,0,0,2.061-3.534h2.256L281.132,451h4.1l-.222,2.036Z" transform="translate(-150.902 -425.878)" fill="#003583"/>
      <path id="Path_26" data-name="Path 26" d="M287.535,453.276q-3.336,0-4.686-1.249t-1.177-4.341l2.33-.247q-.1,2.234.661,2.995t3.116.758a4.989,4.989,0,0,0,3.128-.809,3.56,3.56,0,0,0,1.19-2.576l.148-1.226a3.381,3.381,0,0,0-.54-2.589,3.225,3.225,0,0,0-2.527-.821h-6.428l1.031-9.764h11.334l-.222,2.085h-9.028l-.563,5.471h4.318a5.194,5.194,0,0,1,3.962,1.35,5.028,5.028,0,0,1,.968,4.119L294.4,448a5.43,5.43,0,0,1-2.024,3.912A7.723,7.723,0,0,1,287.535,453.276Z" transform="translate(-144.813 -425.878)" fill="#003583"/>
    </g>
    <g id="Group_7" data-name="Group 7" transform="translate(213.989 396.922)">
      <g id="Group_5" data-name="Group 5" transform="translate(0 58.521)">
        <path id="Path_27" data-name="Path 27" d="M236.439,429.341a40.761,40.761,0,1,1-81.522,0H143.075a52.6,52.6,0,1,0,105.206,0Z" transform="translate(-143.075 -429.341)" fill="#d80012"/>
        <path id="Path_28" data-name="Path 28" d="M187.756,464.182A34.882,34.882,0,0,0,222.6,429.341H210.755a23,23,0,1,1-46,0h-11.84A34.881,34.881,0,0,0,187.756,464.182Z" transform="translate(-135.152 -429.341)" fill="#ffd400"/>
        <path id="Path_29" data-name="Path 29" d="M179.834,446.421a17.1,17.1,0,0,0,17.08-17.08H185.073a5.239,5.239,0,1,1-10.479,0h-11.84A17.1,17.1,0,0,0,179.834,446.421Z" transform="translate(-127.231 -429.341)" fill="#003583"/>
      </g>
      <g id="Group_6" data-name="Group 6" transform="translate(57.842)">
        <path id="Path_30" data-name="Path 30" d="M186.96,449.524a40.761,40.761,0,0,1,81.522,0h11.842a52.6,52.6,0,0,0-105.205,0H186.96Z" transform="translate(-175.118 -396.922)" fill="#d80012"/>
        <path id="Path_31" data-name="Path 31" d="M196.8,441.6a23,23,0,0,1,46,0h11.842a34.842,34.842,0,0,0-69.684,0H196.8Z" transform="translate(-167.196 -389)" fill="#ffd400"/>
        <path id="Path_32" data-name="Path 32" d="M206.638,433.68a5.239,5.239,0,0,1,10.479,0h11.84a17.08,17.08,0,1,0-34.16,0h11.842Z" transform="translate(-159.274 -381.078)" fill="#003583"/>
      </g>
    </g>
  </g>
</svg>
