<?xml version="1.0" encoding="utf-8"?>
<!-- Generator: Adobe Illustrator 28.0.0, SVG Export Plug-In . SVG Version: 6.00 Build 0)  -->
<svg version="1.1" id="Vrstva_1" xmlns="http://www.w3.org/2000/svg" xmlns:xlink="http://www.w3.org/1999/xlink" x="0px" y="0px"
	 viewBox="0 0 986.8 339.4" style="enable-background:new 0 0 986.8 339.4;" xml:space="preserve">
<style type="text/css">
	.st0{fill:#004494;}
	.st1{fill:#E2001A;}
	.st2{fill:#FFDD00;}
</style>
<g>
	<g>
		<path class="st0" d="M736.8,163.6l1.2-11.5c0.5-5.1,1.8-8.9,3.8-11.6c2-2.6,5-4.4,8.9-5.3l11.6-2.8c2.3-0.6,4-1.3,5-2.4
			s1.6-2.4,1.8-4.3l0.3-2.3c0.2-2.5-0.2-4.3-1.2-5.4c-1.1-1.1-2.9-1.7-5.5-1.7c-2.6,0-4.5,0.6-5.7,1.9c-1.2,1.3-2,3.7-2.6,7.2
			l-12.9-0.7c0.9-5.9,3.1-10.2,6.5-13.1s8.7-4.3,15.5-4.3c6.8,0,11.8,1.4,14.9,4.1s4.4,6.7,3.8,11.9l-0.3,3.1
			c-0.5,4.3-1.6,7.6-3.5,9.8c-1.9,2.2-4.8,3.8-8.7,4.8l-11.7,2.8c-2.4,0.6-4.1,1.4-5.2,2.6c-1,1.2-1.7,3-1.9,5.5l-0.2,2.1h28.9
			l-1,9.6L736.8,163.6L736.8,163.6z"/>
		<path class="st0" d="M807.4,164.3c-6.7,0-11.6-2.1-14.8-6.2c-3.2-4.1-4.3-9.9-3.6-17.4l1-9.3c0.8-7.5,3.2-13.4,7.3-17.6
			s9.4-6.3,16-6.3c6.7,0,11.6,2.1,14.7,6.3c3.1,4.2,4.3,10.1,3.5,17.6l-1,9.3c-0.8,7.5-3.2,13.3-7.2,17.4
			C819.4,162.3,814,164.3,807.4,164.3z M808.3,155.3c3.2,0,5.4-1.2,6.7-3.6c1.3-2.4,2.2-6.5,2.8-12.2l0.7-6.8
			c0.6-5.8,0.5-9.9-0.2-12.4s-2.7-3.8-5.9-3.8s-5.4,1.2-6.7,3.8c-1.3,2.5-2.2,6.6-2.8,12.4l-0.7,6.8c-0.6,5.7-0.5,9.8,0.3,12.2
			C803.2,154.1,805.2,155.3,808.3,155.3z"/>
		<path class="st0" d="M836.2,163.6l1.2-11.5c0.5-5.1,1.8-8.9,3.8-11.6c2-2.6,5-4.4,8.9-5.3l11.6-2.8c2.3-0.6,4-1.3,5-2.4
			s1.6-2.4,1.8-4.3l0.3-2.3c0.2-2.5-0.2-4.3-1.2-5.4c-1.1-1.1-2.9-1.7-5.5-1.7c-2.6,0-4.5,0.6-5.7,1.9c-1.2,1.3-2,3.7-2.6,7.2
			l-12.9-0.7c0.9-5.9,3.1-10.2,6.5-13.1s8.7-4.3,15.5-4.3c6.8,0,11.8,1.4,14.9,4.1s4.4,6.7,3.8,11.9l-0.3,3.1
			c-0.5,4.3-1.6,7.6-3.5,9.8c-1.9,2.2-4.8,3.8-8.7,4.8l-11.7,2.8c-2.4,0.6-4.1,1.4-5.2,2.6c-1,1.2-1.7,3-1.9,5.5l-0.2,2.1H879
			l-1,9.6L836.2,163.6L836.2,163.6z"/>
		<path class="st0" d="M907.1,164.3c-7.3,0-12.6-1.3-15.8-4c-3.2-2.7-4.7-6.9-4.3-12.6l13-0.7c0,3.3,0.5,5.4,1.7,6.4
			c1.2,1,3.3,1.5,6.4,1.5c2.6,0,4.6-0.6,6-1.7s2.2-2.8,2.4-5.1l0.2-1.9c0.3-2.5-0.1-4.3-1.2-5.4c-1.1-1.1-3.1-1.6-6-1.6h-7.8l1-9.4
			h7.8c2.5,0,4.3-0.4,5.4-1.1c1.1-0.7,1.7-2.1,2-4l0.2-2.2c0.2-2.1-0.2-3.6-1.2-4.4c-1.1-0.8-2.9-1.2-5.4-1.2
			c-2.3,0-4.1,0.5-5.3,1.5c-1.2,1-1.9,2.7-2.3,5.1l-12.9-0.7c0.8-5.4,2.9-9.2,6.3-11.7c3.4-2.4,8.4-3.6,15-3.6c7,0,12,1.1,15.1,3.4
			c3,2.2,4.3,5.8,3.8,10.6l-0.1,1.5c-0.3,2.8-1.4,5.1-3.2,7s-3.9,3.1-6.3,3.4l-0.2,2c2.6,0.3,4.7,1.6,6.3,3.7c1.6,2.2,2.3,4.9,2,8.1
			l-0.1,1.3c-0.5,5.5-2.6,9.5-6.2,12C919.5,163.1,914.2,164.3,907.1,164.3z"/>
	</g>
	<g>
		<g>
			<path class="st0" d="M75.5,164.2c-3.3,0-6.7-0.5-10.1-1.4c-3.4-1-6.7-2.3-9.7-4.1L59,149c2.9,1.8,6,3.2,9.1,4.2s6.3,1.5,9.6,1.5
				c2.5,0,4.5-0.6,5.8-1.7c1.4-1.1,2.1-2.6,2.3-4.4c0.2-1.9-0.5-3.4-2.1-4.3s-4.6-1.9-9.1-2.9c-5.4-1.3-9.4-3.2-12-5.5
				c-2.5-2.3-3.6-5.8-3.1-10.4c0.5-5.1,2.7-9.3,6.6-12.7s8.9-5,15.2-5c3.4,0,6.7,0.5,9.9,1.4c3.2,1,5.9,2.2,8.1,3.7l-2.7,9.2
				c-2.7-1.6-5.4-2.8-8.1-3.6c-2.7-0.8-5.3-1.3-7.8-1.3c-2.3,0-4.2,0.5-5.7,1.5c-1.5,1-2.3,2.5-2.6,4.5c-0.2,1.9,0.4,3.3,1.9,4.3
				c1.4,0.9,4.6,1.9,9.3,3.1c5.7,1.5,9.8,3.4,12.2,5.9c2.4,2.4,3.4,5.9,2.9,10.5c-0.6,5.1-2.8,9.3-6.9,12.4
				C88,162.7,82.5,164.2,75.5,164.2z"/>
			<path class="st0" d="M105.3,163.6l5.8-55.1h20.5c5.5,0,9.6,1.3,12.3,4s3.8,6.6,3.2,11.6l-0.8,7.4c-0.5,4.8-2.4,8.5-5.6,11.1
				c-3.2,2.6-7.6,3.9-13.1,3.9H120l-1.8,17.1L105.3,163.6L105.3,163.6z M120.9,137.1h5.4c2.3,0,4-0.5,5.1-1.5c1.1-1,1.9-2.9,2.1-5.5
				l0.5-4.8c0.3-2.7,0-4.6-0.9-5.7c-0.9-1.1-2.5-1.6-4.8-1.6H123L120.9,137.1z"/>
			<path class="st0" d="M170.2,164.3c-6.7,0-11.7-1.6-15-4.9c-3.3-3.2-4.6-7.7-4-13.5l2.1-19.6c0.6-5.8,2.9-10.3,6.8-13.7
				c3.9-3.3,9.3-5,16-5c6.8,0,11.7,1.7,15,5s4.5,7.9,3.9,13.7l-2.1,19.6c-0.6,5.8-2.9,10.2-6.8,13.5
				C182.2,162.7,176.9,164.3,170.2,164.3z M171.1,154.8c3,0,5.2-0.7,6.5-2.1c1.3-1.4,2.1-4,2.6-7.8l1.8-17.4c0.4-3.9,0.1-6.6-0.8-8
				s-3-2.2-6-2.2s-5.2,0.7-6.5,2.2c-1.3,1.4-2.2,4.1-2.6,8l-1.8,17.4c-0.4,3.8-0.1,6.4,0.9,7.8S168.1,154.8,171.1,154.8z"/>
			<path class="st0" d="M213.4,163.6h-12.9l5.8-55.1h23.6c5.3,0,9.3,1.3,11.9,3.9c2.6,2.6,3.6,6.3,3.1,11.2l-0.5,4.8
				c-0.4,3.8-1.6,6.9-3.4,9.3c-1.9,2.5-4.4,4.2-7.6,5.2l9.3,20.7h-14.6l-8.9-19.7h-3.7L213.4,163.6z M216.4,134.5h8.8
				c2,0,3.5-0.4,4.5-1.3s1.6-2.5,1.9-4.9l0.4-4.3c0.3-2.5,0-4.1-0.8-4.9s-2.2-1.2-4.2-1.2h-8.8L216.4,134.5z"/>
			<path class="st0" d="M261.2,163.6L266,118h-14.3l1-9.5h41.6l-1,9.5h-14.4l-4.8,45.6H261.2z"/>
			<path class="st0" d="M314.4,164.3c-6.7,0-11.7-1.6-15-4.9c-3.3-3.2-4.6-7.7-4-13.5l2.1-19.6c0.6-5.8,2.9-10.3,6.8-13.7
				s9.3-5,16-5c6.8,0,11.7,1.7,15,5s4.5,7.9,3.9,13.7l-2.1,19.6c-0.6,5.8-2.9,10.2-6.8,13.5C326.5,162.7,321.1,164.3,314.4,164.3z
				 M315.4,154.8c3,0,5.2-0.7,6.5-2.1s2.1-4,2.5-7.8l1.8-17.4c0.4-3.9,0.1-6.6-0.8-8s-3-2.2-6-2.2s-5.2,0.7-6.5,2.2
				c-1.3,1.4-2.2,4.1-2.6,8l-1.8,17.4c-0.4,3.8-0.1,6.4,0.9,7.8S312.4,154.8,315.4,154.8z"/>
			<path class="st0" d="M369.6,163.6h-17.4l-6.9-55.1h13l4.2,44.6l13.6-44.6h12.1L369.6,163.6z"/>
			<path class="st0" d="M387.6,163.6l5.8-55.1H429l-1,9.5h-22.8l-1.2,11.4H424l-1,9.5h-19.9l-1.6,15.2h22.8l-1,9.5L387.6,163.6
				L387.6,163.6z"/>
			<path class="st0" d="M453.2,164.3c-7.7,0-13.2-1.6-16.4-4.9s-4.5-7.7-3.9-13.5l2.1-19.6c0.6-5.8,2.8-10.3,6.7-13.7s9.7-5,17.4-5
				c7.1,0,12.2,1.6,15.3,4.8s4.5,8.2,4,15l-13,0.7c0.2-4.2-0.2-7.1-1.3-8.7s-3.2-2.3-6.3-2.3c-3.5,0-5.9,0.7-7.3,2.2
				c-1.5,1.4-2.4,4.2-2.8,8.1l-1.8,17.3c-0.4,3.8-0.1,6.4,1.1,7.8c1.1,1.4,3.4,2.1,6.9,2.1c3.1,0,5.3-0.8,6.8-2.2
				c1.4-1.5,2.5-4.3,3.2-8.4l12.8,0.7c-1,6.7-3.4,11.6-7.2,14.8S460.3,164.3,453.2,164.3z"/>
		</g>
		<g>
			<path class="st0" d="M183.1,230.9h-12.9l5.8-55.1h23.6c5.3,0,9.3,1.3,11.9,3.9c2.6,2.6,3.6,6.3,3.1,11.2l-0.5,4.8
				c-0.4,3.8-1.6,6.9-3.4,9.3c-1.9,2.5-4.4,4.2-7.6,5.2l9.3,20.7h-14.6l-8.9-19.7h-3.7L183.1,230.9z M186.2,201.7h8.8
				c2,0,3.5-0.4,4.5-1.3s1.6-2.5,1.9-4.9l0.4-4.3c0.3-2.5,0-4.1-0.8-4.9s-2.2-1.2-4.2-1.2H188L186.2,201.7z"/>
			<path class="st0" d="M240.2,231.6c-6.7,0-11.7-1.6-15-4.9c-3.3-3.2-4.6-7.7-4-13.5l2.1-19.6c0.6-5.8,2.9-10.3,6.8-13.6
				c3.9-3.3,9.3-5,16-5c6.8,0,11.7,1.6,15,5c3.2,3.3,4.5,7.9,3.9,13.6l-2.1,19.6c-0.6,5.8-2.9,10.2-6.8,13.5
				C252.2,229.9,246.9,231.6,240.2,231.6z M241.2,222c3,0,5.2-0.7,6.5-2.1c1.3-1.4,2.1-4,2.6-7.8l1.8-17.4c0.4-3.9,0.1-6.6-0.8-8
				s-3-2.2-6-2.2s-5.2,0.7-6.5,2.2c-1.3,1.4-2.2,4.1-2.6,8l-1.8,17.4c-0.4,3.8-0.1,6.4,0.9,7.8C236.1,221.3,238.2,222,241.2,222z"/>
			<path class="st0" d="M285.9,207.2l-2.5,23.7h-12.9l5.8-55.1h12.9l-2.3,21.9h2.4l14.1-21.9h14.1l-18.3,25.4l12.3,29.7h-14.8
				l-8.3-23.7H285.9z"/>
			<path class="st0" d="M337.2,231.6c-7.3,0-12.5-1.5-15.4-4.6c-3-3.1-4.1-8-3.5-14.8l3.9-36.5H335l-3.7,35.6
				c-0.4,3.9-0.1,6.5,0.9,8c1,1.4,3,2.2,6,2.2s5.2-0.7,6.5-2.2c1.3-1.4,2.1-4.1,2.5-8l3.7-35.6h12.9l-3.9,36.5
				c-0.7,6.8-2.9,11.7-6.5,14.8C349.9,230,344.4,231.6,337.2,231.6z"/>
		</g>
		<g>
			<path class="st0" d="M625.8,220.8l-5.3-24.3l-3.6,34.4h-4.4l4.2-40.1h6.9l5.5,25.7l10.9-25.7h6.5l-4.2,40.1H638l3.6-34.4
				l-10.4,24.4H625.8z"/>
			<path class="st0" d="M662.5,231.4c-4.4,0-7.6-1.1-9.6-3.5c-2-2.3-2.8-5.7-2.3-10.2l1.4-13.6c0.5-4.6,2-8,4.5-10.4
				c2.5-2.3,6-3.5,10.3-3.5c4.1,0,7.1,1.1,9.1,3.4s2.9,5.6,2.6,10.1l-4.7,0.5c0.1-3.6-0.4-6.1-1.6-7.6s-3.2-2.2-6-2.2
				c-3.1,0-5.4,0.8-6.8,2.3s-2.4,4-2.8,7.4l-1.4,13.6c-0.4,3.4,0,5.8,1.2,7.3s3.3,2.2,6.4,2.2c2.9,0,5-0.8,6.5-2.2
				c1.5-1.5,2.5-4,3-7.4l4.6,0.5c-0.6,4.4-2.1,7.7-4.6,9.9C670,230.2,666.7,231.4,662.5,231.4z M665.6,185.5l-7-7.4l2.3-2.8l6.9,5.5
				l7.9-5.5l1.8,2.8l-8.5,7.4H665.6z"/>
			<path class="st0" d="M694.5,230.9l4.2-40.1h11.8c3.6,0,6.2,0.9,7.9,2.6c1.7,1.8,2.3,4.4,2,7.9l-0.5,4.9c-0.4,3.5-1.6,6.1-3.6,7.9
				c-2,1.8-4.9,2.7-8.5,2.7h-7l-1.5,14.2L694.5,230.9L694.5,230.9z M701.2,212.6h6.9c2.2,0,3.9-0.5,5.1-1.6c1.2-1,1.8-2.7,2.1-4.9
				l0.5-4.8c0.2-2.2-0.1-3.9-1.1-4.9s-2.5-1.5-4.8-1.5H703L701.2,212.6z"/>
			<path class="st0" d="M726.9,230.9h-4.7l4.2-40.1h15.1c3.5,0,6,0.9,7.6,2.7s2.2,4.4,1.8,7.9l-0.3,3.1c-0.3,3.1-1.3,5.6-2.8,7.4
				c-1.6,1.8-3.7,2.9-6.4,3.3l7,15.9h-5.4l-6.9-15.7h-7.4L726.9,230.9z M729,211.1h10.1c2.1,0,3.7-0.5,4.8-1.6s1.7-2.8,2-5.1
				l0.3-3.1c0.2-2.2-0.1-3.8-1-4.8c-0.9-1-2.4-1.5-4.5-1.5h-10.1L729,211.1z"/>
			<path class="st0" d="M777.5,230.9l-2.2-11.7h-13.7l-4.7,11.7h-4.7l16.8-40.1h5.2l8.3,40.1H777.5z M774.5,214.9l-3.6-19l-7.6,19
				H774.5z"/>
			<path class="st0" d="M786.5,230.9l4.2-40.1h4.7l-1.7,16.2H810l1.7-16.2h4.7l-4.2,40.1h-4.7l2.1-19.6h-16.2l-2.1,19.6H786.5z"/>
			<path class="st0" d="M841.6,230.9l-2.2-11.7h-13.7l-4.7,11.7h-4.7l16.8-40.1h5.2l8.3,40.1H841.6z M838.6,214.9l-3.6-19l-7.6,19
				H838.6z"/>
			<path class="st0" d="M864.4,230.9l0.5-4.2h9.2l2.9-28h-0.8c-0.8,2-2.1,3.6-3.8,4.9c-1.7,1.2-3.6,1.9-5.7,2.1l0.1-4.7
				c2.6-0.2,5-1.1,7-3c2-1.8,3.4-4.2,4.2-7.2h4.6l-3.8,36h8.4l-0.5,4.2L864.4,230.9L864.4,230.9z"/>
			<path class="st0" d="M904.4,231.4c-4.5,0-7.7-0.9-9.6-2.6c-1.8-1.7-2.6-4.7-2.4-8.9l4.8-0.5c-0.1,3,0.3,5.1,1.3,6.1
				c1,1,3.2,1.6,6.4,1.6c2.9,0,5-0.6,6.4-1.6c1.4-1.1,2.2-2.9,2.4-5.3l0.3-2.5c0.2-2.4-0.1-4.2-1.1-5.3s-2.7-1.7-5.2-1.7h-13.1
				l2.1-20h23.2l-0.5,4.3H901l-1.2,11.2h8.8c3.7,0,6.4,0.9,8.1,2.8s2.4,4.6,2,8.4l-0.3,3.2c-0.4,3.5-1.8,6.1-4.1,8
				C911.9,230.4,908.6,231.4,904.4,231.4z"/>
		</g>
		<g>
			<g>
				<path class="st1" d="M571.7,175.7c0,46-37.4,83.4-83.4,83.4S405,221.7,405,175.7h-24.2c0,59.3,48.3,107.6,107.6,107.6
					c59.3,0,107.6-48.3,107.6-107.6L571.7,175.7L571.7,175.7z"/>
				<path class="st2" d="M488.4,247c39.3,0,71.2-32,71.2-71.2h-24.2c0,25.9-21.1,47-47,47c-25.9,0-47-21.1-47-47h-24.2
					C417.1,215,449.1,247,488.4,247z"/>
				<path class="st0" d="M488.4,210.7c19.3,0,34.9-15.7,34.9-34.9h-24.2c0,5.9-4.8,10.7-10.7,10.7c-5.9,0-10.7-4.8-10.7-10.7h-24.2
					C453.5,195,469.1,210.7,488.4,210.7z"/>
			</g>
			<g>
				<path class="st1" d="M523.3,163.6c0-46,37.4-83.3,83.3-83.3c46,0,83.4,37.4,83.4,83.3l0,0h24.2l0,0
					c0-59.3-48.2-107.6-107.6-107.6c-59.3,0-107.6,48.2-107.6,107.6l0,0H523.3L523.3,163.6z"/>
				<path class="st2" d="M559.6,163.6c0-25.9,21.1-47,47-47c25.9,0,47,21.1,47,47l0,0h24.2l0,0c0-39.3-32-71.2-71.2-71.2
					c-39.3,0-71.2,32-71.2,71.2l0,0H559.6L559.6,163.6z"/>
				<path class="st0" d="M596,163.6c0-5.9,4.8-10.7,10.7-10.7s10.7,4.8,10.7,10.7l0,0h24.2l0,0c0-19.3-15.7-34.9-34.9-34.9
					c-19.3,0-34.9,15.7-34.9,34.9l0,0H596L596,163.6z"/>
			</g>
		</g>
	</g>
</g>
</svg>
