<?xml version="1.0" encoding="UTF-8"?>
<svg id="Vrstva_1" xmlns="http://www.w3.org/2000/svg" viewBox="0 0 986.76 339.36">
  <defs>
    <style>
      .cls-1 {
        fill: #ffdd06;
      }

      .cls-2 {
        fill: #e2071b;
      }

      .cls-3 {
        fill: #0c4691;
      }
    </style>
  </defs>
  <g>
    <g>
      <path class="cls-3" d="M75.46,164.25c-3.3,0-6.67-.48-10.09-1.44-3.42-.97-6.65-2.32-9.68-4.07l3.31-9.71c2.94,1.84,5.98,3.25,9.13,4.23,3.15.99,6.35,1.48,9.61,1.48,2.53,0,4.47-.56,5.82-1.69,1.35-1.12,2.12-2.6,2.31-4.44.18-1.93-.51-3.35-2.07-4.27-1.56-.92-4.59-1.88-9.09-2.89-5.42-1.33-9.4-3.17-11.95-5.51-2.55-2.34-3.6-5.81-3.13-10.4.55-5.1,2.74-9.31,6.58-12.64,3.83-3.33,8.9-4.99,15.19-4.99,3.4,0,6.7.48,9.92,1.44,3.21.97,5.9,2.2,8.06,3.72l-2.69,9.23c-2.71-1.56-5.4-2.77-8.09-3.62-2.69-.85-5.27-1.28-7.75-1.28-2.34,0-4.25.51-5.72,1.52-1.47,1.01-2.32,2.5-2.55,4.48-.18,1.93.45,3.35,1.9,4.27,1.45.92,4.56,1.95,9.33,3.1,5.69,1.47,9.75,3.42,12.16,5.85,2.41,2.44,3.36,5.92,2.86,10.47-.55,5.14-2.84,9.29-6.85,12.43-4.02,3.15-9.52,4.72-16.5,4.72Z"/>
      <path class="cls-3" d="M105.25,163.63l5.79-55.11h20.53c5.51,0,9.61,1.34,12.3,4.03,2.69,2.69,3.75,6.56,3.2,11.61l-.76,7.37c-.51,4.82-2.38,8.53-5.62,11.13-3.24,2.59-7.59,3.89-13.05,3.89h-7.71l-1.79,17.08h-12.88ZM120.89,137.11h5.44c2.25,0,3.95-.5,5.1-1.52,1.15-1.01,1.86-2.85,2.14-5.51l.48-4.75c.32-2.71.03-4.6-.89-5.68-.92-1.08-2.5-1.62-4.76-1.62h-5.44l-2.07,19.08Z"/>
      <path class="cls-3" d="M170.1,164.32c-6.7,0-11.69-1.62-14.95-4.86-3.26-3.24-4.59-7.72-4-13.47l2.07-19.56c.59-5.79,2.87-10.33,6.82-13.64,3.95-3.3,9.28-4.96,15.98-4.96s11.73,1.65,14.95,4.96c3.21,3.31,4.52,7.85,3.93,13.64l-2.07,19.56c-.6,5.74-2.86,10.23-6.78,13.47-3.93,3.24-9.24,4.86-15.95,4.86ZM171.07,154.82c3.03,0,5.19-.71,6.47-2.14s2.14-4.02,2.55-7.79l1.79-17.36c.41-3.9.14-6.58-.83-8.02-.97-1.45-2.97-2.17-6-2.17s-5.2.72-6.51,2.17c-1.31,1.44-2.17,4.12-2.58,8.02l-1.79,17.36c-.41,3.77-.13,6.36.86,7.79s3,2.14,6.03,2.14Z"/>
      <path class="cls-3" d="M213.27,163.63h-12.88l5.79-55.11h23.63c5.33,0,9.29,1.3,11.89,3.89,2.59,2.59,3.64,6.33,3.13,11.19l-.48,4.82c-.41,3.76-1.56,6.88-3.44,9.33-1.88,2.46-4.43,4.19-7.65,5.2l9.3,20.67h-14.61l-8.88-19.7h-3.72l-2.06,19.7ZM216.3,134.49h8.75c1.97,0,3.47-.43,4.48-1.28,1.01-.85,1.65-2.47,1.93-4.86l.41-4.27c.28-2.48,0-4.11-.83-4.89-.83-.78-2.23-1.17-4.2-1.17h-8.75l-1.79,16.46Z"/>
      <path class="cls-3" d="M261.06,163.63l4.82-45.6h-14.33l.96-9.5h41.61l-.97,9.5h-14.4l-4.82,45.6h-12.88Z"/>
      <path class="cls-3" d="M314.29,164.32c-6.7,0-11.69-1.62-14.95-4.86-3.26-3.24-4.59-7.72-4-13.47l2.07-19.56c.59-5.79,2.87-10.33,6.82-13.64,3.95-3.3,9.28-4.96,15.98-4.96s11.73,1.65,14.95,4.96c3.21,3.31,4.52,7.85,3.93,13.64l-2.07,19.56c-.6,5.74-2.86,10.23-6.78,13.47-3.93,3.24-9.24,4.86-15.95,4.86ZM315.25,154.82c3.03,0,5.19-.71,6.47-2.14,1.29-1.42,2.14-4.02,2.55-7.79l1.79-17.36c.41-3.9.14-6.58-.83-8.02-.97-1.45-2.97-2.17-6-2.17s-5.2.72-6.51,2.17c-1.31,1.44-2.17,4.12-2.58,8.02l-1.79,17.36c-.41,3.77-.13,6.36.86,7.79s3,2.14,6.03,2.14Z"/>
      <path class="cls-3" d="M369.42,163.63h-17.36l-6.89-55.11h12.95l4.2,44.57,13.64-44.57h12.05l-18.6,55.11Z"/>
      <path class="cls-3" d="M387.38,163.63l5.79-55.11h35.61l-.96,9.5h-22.73l-1.24,11.44h19.91l-.97,9.51h-19.91l-1.59,15.15h22.73l-1.03,9.51h-35.61Z"/>
      <path class="cls-3" d="M453,164.32c-7.72,0-13.17-1.62-16.36-4.86-3.19-3.24-4.49-7.72-3.89-13.47l2.07-19.56c.59-5.79,2.84-10.33,6.72-13.64,3.88-3.3,9.68-4.96,17.39-4.96,7.07,0,12.17,1.6,15.29,4.79,3.12,3.19,4.45,8.19,4,14.98l-12.95.69c.23-4.22-.21-7.1-1.31-8.64-1.1-1.54-3.19-2.31-6.27-2.31-3.44,0-5.89.72-7.34,2.17-1.45,1.44-2.38,4.14-2.79,8.09l-1.79,17.29c-.41,3.82-.06,6.42,1.07,7.82,1.13,1.4,3.41,2.1,6.86,2.1,3.08,0,5.32-.75,6.75-2.24,1.42-1.49,2.48-4.31,3.17-8.44l12.82.69c-1.01,6.7-3.4,11.63-7.17,14.78-3.76,3.15-9.19,4.72-16.26,4.72Z"/>
    </g>
    <g>
      <path class="cls-3" d="M183.07,230.84h-12.88l5.79-55.11h23.63c5.33,0,9.29,1.3,11.89,3.89,2.59,2.59,3.64,6.33,3.13,11.19l-.48,4.82c-.41,3.76-1.56,6.88-3.44,9.33-1.88,2.46-4.43,4.19-7.65,5.2l9.3,20.67h-14.61l-8.88-19.7h-3.72l-2.06,19.7ZM186.1,201.7h8.75c1.97,0,3.47-.43,4.48-1.28,1.01-.85,1.65-2.47,1.93-4.86l.41-4.27c.28-2.48,0-4.11-.83-4.89-.83-.78-2.23-1.17-4.2-1.17h-8.75l-1.79,16.46Z"/>
      <path class="cls-3" d="M240.12,231.53c-6.7,0-11.69-1.62-14.95-4.86-3.26-3.24-4.59-7.72-4-13.47l2.07-19.56c.59-5.79,2.87-10.33,6.82-13.64,3.95-3.3,9.28-4.96,15.98-4.96s11.73,1.65,14.95,4.96c3.21,3.31,4.52,7.85,3.93,13.64l-2.07,19.56c-.6,5.74-2.86,10.23-6.78,13.47-3.93,3.24-9.24,4.86-15.95,4.86ZM241.08,222.02c3.03,0,5.19-.71,6.47-2.14s2.14-4.02,2.55-7.79l1.79-17.36c.41-3.9.14-6.58-.83-8.02-.97-1.45-2.97-2.17-6-2.17s-5.2.72-6.51,2.17c-1.31,1.44-2.17,4.12-2.58,8.02l-1.79,17.36c-.41,3.77-.13,6.36.86,7.79s3,2.14,6.03,2.14Z"/>
      <path class="cls-3" d="M285.76,207.14l-2.48,23.7h-12.88l5.79-55.11h12.88l-2.27,21.91h2.41l14.12-21.91h14.05l-18.26,25.42,12.26,29.69h-14.81l-8.27-23.7h-2.55Z"/>
      <path class="cls-3" d="M337.01,231.53c-7.3,0-12.44-1.52-15.43-4.58-2.98-3.06-4.13-7.98-3.44-14.78l3.86-36.44h12.88l-3.72,35.61c-.41,3.86-.13,6.51.86,7.95.99,1.45,3,2.17,6.03,2.17s5.19-.72,6.48-2.17c1.28-1.44,2.13-4.1,2.55-7.95l3.72-35.61h12.88l-3.86,36.44c-.69,6.8-2.85,11.72-6.47,14.78-3.63,3.06-9.07,4.58-16.33,4.58Z"/>
    </g>
    <g>
      <path class="cls-3" d="M625.5,220.81l-5.32-24.32-3.61,34.34h-4.36l4.21-40.11h6.87l5.51,25.72,10.93-25.72h6.52l-4.21,40.11h-4.36l3.61-34.39-10.38,24.36h-5.41Z"/>
      <path class="cls-3" d="M662.19,231.34c-4.38,0-7.58-1.15-9.6-3.46-2.02-2.31-2.78-5.7-2.28-10.18l1.4-13.64c.5-4.58,2-8.03,4.51-10.35,2.51-2.32,5.95-3.48,10.33-3.48,4.07,0,7.12,1.13,9.12,3.38,2,2.26,2.87,5.62,2.61,10.1l-4.71.5c.13-3.57-.39-6.11-1.56-7.59-1.17-1.49-3.16-2.23-5.97-2.23-3.07,0-5.36.75-6.84,2.26-1.49,1.5-2.41,3.98-2.78,7.42l-1.41,13.64c-.37,3.37.04,5.8,1.23,7.27,1.19,1.47,3.32,2.21,6.39,2.21,2.87,0,5.05-.74,6.52-2.23,1.47-1.49,2.47-3.95,3-7.4l4.62.5c-.57,4.38-2.1,7.69-4.59,9.92-2.49,2.24-5.82,3.36-10,3.36ZM665.25,185.51l-6.97-7.42,2.31-2.76,6.87,5.51,7.87-5.51,1.81,2.76-8.47,7.42h-3.41Z"/>
      <path class="cls-3" d="M694.17,230.84l4.21-40.11h11.78c3.58,0,6.2.88,7.87,2.63,1.67,1.76,2.32,4.37,1.96,7.85l-.5,4.86c-.37,3.48-1.57,6.1-3.61,7.87-2.04,1.77-4.86,2.65-8.47,2.65h-7.02l-1.5,14.24h-4.71ZM700.79,212.54h6.87c2.24,0,3.94-.52,5.09-1.55,1.15-1.04,1.84-2.68,2.08-4.91l.5-4.76c.23-2.24-.12-3.87-1.06-4.89s-2.52-1.53-4.76-1.53h-6.87l-1.85,17.65Z"/>
      <path class="cls-3" d="M726.55,230.84h-4.71l4.21-40.11h15.09c3.48,0,6,.89,7.57,2.66,1.57,1.77,2.17,4.4,1.8,7.87l-.3,3.06c-.34,3.11-1.28,5.56-2.83,7.35-1.56,1.79-3.7,2.9-6.44,3.33l6.97,15.84h-5.41l-6.87-15.69h-7.42l-1.65,15.69ZM728.66,211.03h10.08c2.1,0,3.69-.53,4.76-1.6s1.74-2.77,2-5.12l.3-3.11c.23-2.17-.08-3.77-.95-4.79-.87-1.02-2.36-1.53-4.46-1.53h-10.08l-1.65,16.14Z"/>
      <path class="cls-3" d="M777.08,230.84l-2.21-11.73h-13.69l-4.71,11.73h-4.71l16.8-40.11h5.16l8.32,40.11h-4.96ZM774.07,214.85l-3.61-19-7.57,19h11.18Z"/>
      <path class="cls-3" d="M786.1,230.84l4.21-40.11h4.71l-1.7,16.24h16.24l1.71-16.24h4.71l-4.21,40.11h-4.71l2.06-19.6h-16.24l-2.06,19.6h-4.71Z"/>
      <path class="cls-3" d="M841.17,230.84l-2.21-11.73h-13.69l-4.71,11.73h-4.71l16.8-40.11h5.16l8.32,40.11h-4.96ZM838.16,214.85l-3.61-19-7.57,19h11.18Z"/>
      <path class="cls-3" d="M863.98,230.84l.45-4.16h9.22l2.91-27.97h-.85c-.8,2-2.07,3.63-3.81,4.86-1.74,1.24-3.63,1.92-5.67,2.06l.1-4.71c2.64-.17,4.96-1.15,6.97-2.96,2-1.81,3.41-4.21,4.21-7.22h4.61l-3.76,35.95h8.37l-.45,4.16h-22.31Z"/>
      <path class="cls-3" d="M903.9,231.34c-4.55,0-7.74-.85-9.58-2.56-1.84-1.71-2.64-4.66-2.41-8.87l4.76-.5c-.14,3.04.32,5.08,1.35,6.12,1.04,1.03,3.16,1.55,6.37,1.55,2.87,0,5.01-.55,6.39-1.65s2.2-2.86,2.43-5.27l.3-2.5c.23-2.41-.13-4.17-1.1-5.29-.97-1.12-2.69-1.68-5.16-1.68h-13.14l2.11-19.95h23.16l-.45,4.26h-18.45l-1.15,11.18h8.82c3.68,0,6.38.92,8.1,2.76,1.72,1.84,2.38,4.64,1.98,8.42l-.3,3.21c-.37,3.48-1.75,6.14-4.14,8-2.39,1.85-5.69,2.78-9.9,2.78Z"/>
    </g>
    <g>
      <g>
        <path class="cls-2" d="M571.44,175.73c0,45.93-37.38,83.31-83.31,83.31s-83.3-37.37-83.3-83.31h-24.2c0,59.28,48.23,107.51,107.5,107.51s107.51-48.23,107.51-107.51h-24.2Z"/>
        <path class="cls-1" d="M488.14,246.94c39.26,0,71.2-31.94,71.2-71.21h-24.2c0,25.92-21.09,47.01-47,47.01s-47.01-21.08-47.01-47.01h-24.2c0,39.26,31.95,71.21,71.21,71.21Z"/>
        <path class="cls-3" d="M488.14,210.64c19.25,0,34.9-15.66,34.9-34.91h-24.2c0,5.91-4.8,10.71-10.71,10.71s-10.71-4.8-10.71-10.71h-24.2c0,19.25,15.66,34.91,34.91,34.91Z"/>
      </g>
      <g>
        <path class="cls-2" d="M523.04,163.63c0-45.94,37.37-83.3,83.3-83.3s83.31,37.37,83.31,83.3h0s24.2,0,24.2,0h0c0-59.28-48.23-107.51-107.51-107.51s-107.5,48.23-107.5,107.5h0s24.2,0,24.2,0h0Z"/>
        <path class="cls-1" d="M559.34,163.63c0-25.92,21.09-47,47.01-47s47,21.09,47,47h0s24.2,0,24.2,0h0c0-39.26-31.94-71.21-71.2-71.21s-71.21,31.94-71.21,71.2h0s24.2,0,24.2,0h0Z"/>
        <path class="cls-3" d="M595.64,163.63c0-5.9,4.8-10.71,10.71-10.71s10.71,4.8,10.71,10.71h0s24.2,0,24.2,0h0c0-19.25-15.66-34.91-34.9-34.91s-34.91,15.66-34.91,34.9h0s24.2,0,24.2,0h0Z"/>
      </g>
    </g>
  </g>
  <g>
    <path class="cls-3" d="M734.89,163.63l1.18-11.51c.55-5.08,1.82-8.93,3.8-11.54s4.96-4.38,8.92-5.3l11.62-2.77c2.35-.55,4.02-1.34,5.01-2.36s1.58-2.45,1.76-4.3l.28-2.29c.23-2.49-.18-4.3-1.24-5.41-1.06-1.11-2.88-1.66-5.46-1.66s-4.53.64-5.71,1.91c-1.17,1.27-2.04,3.66-2.59,7.17l-12.86-.69c.88-5.87,3.05-10.24,6.53-13.1,3.48-2.87,8.65-4.3,15.52-4.3s11.79,1.37,14.9,4.12c3.11,2.75,4.39,6.71,3.84,11.89l-.35,3.12c-.46,4.3-1.64,7.57-3.53,9.81-1.89,2.24-4.79,3.82-8.71,4.75l-11.68,2.77c-2.4.55-4.11,1.41-5.15,2.57s-1.67,2.98-1.9,5.48l-.21,2.08h28.9l-1.04,9.57h-41.83Z"/>
    <path class="cls-3" d="M805.43,164.33c-6.68,0-11.6-2.07-14.76-6.2-3.16-4.14-4.34-9.95-3.56-17.43l.97-9.29c.78-7.53,3.2-13.4,7.26-17.61,4.05-4.2,9.4-6.31,16.04-6.31s11.59,2.1,14.72,6.31c3.13,4.21,4.31,10.08,3.53,17.61l-.97,9.29c-.78,7.49-3.18,13.3-7.19,17.43-4.01,4.14-9.36,6.2-16.04,6.2ZM806.4,155.32c3.18,0,5.4-1.21,6.67-3.64,1.27-2.42,2.2-6.5,2.8-12.23l.69-6.79c.6-5.78.52-9.91-.24-12.41s-2.73-3.74-5.91-3.74-5.42,1.25-6.71,3.74c-1.29,2.49-2.24,6.63-2.84,12.41l-.69,6.79c-.6,5.73-.51,9.81.28,12.23.78,2.43,2.77,3.64,5.95,3.64Z"/>
    <path class="cls-3" d="M834.22,163.63l1.18-11.51c.55-5.08,1.82-8.93,3.8-11.54,1.98-2.61,4.96-4.38,8.92-5.3l11.62-2.77c2.35-.55,4.02-1.34,5.01-2.36s1.58-2.45,1.76-4.3l.28-2.29c.23-2.49-.18-4.3-1.24-5.41-1.06-1.11-2.88-1.66-5.46-1.66s-4.53.64-5.71,1.91c-1.17,1.27-2.04,3.66-2.59,7.17l-12.86-.69c.88-5.87,3.05-10.24,6.53-13.1,3.48-2.87,8.65-4.3,15.52-4.3s11.79,1.37,14.9,4.12c3.11,2.75,4.39,6.71,3.84,11.89l-.35,3.12c-.46,4.3-1.64,7.57-3.53,9.81-1.89,2.24-4.79,3.82-8.71,4.75l-11.68,2.77c-2.4.55-4.11,1.41-5.15,2.57s-1.67,2.98-1.9,5.48l-.21,2.08h28.9l-1.04,9.57h-41.83Z"/>
    <path class="cls-3" d="M904.69,164.33c-7.33,0-12.53-1.36-15.59-4.09-3.07-2.73-4.39-7.26-3.98-13.59l13-.69c-.09,3.65.43,6.12,1.56,7.42,1.13,1.3,3.15,1.94,6.05,1.94,3.13,0,5.3-.58,6.5-1.73s1.94-3.05,2.21-5.69l.35-3.6c.32-2.77-.14-4.68-1.38-5.72-1.24-1.04-3.46-1.56-6.64-1.56h-18.94l3.04-28.84h39.06l-.97,9.01h-26.13l-1.04,10.26h9.54c6.04,0,10.45,1.25,13.24,3.74,2.79,2.49,3.91,6.33,3.35,11.51l-.69,6.1c-.51,4.85-2.62,8.65-6.32,11.4-3.71,2.75-9.12,4.13-16.21,4.13Z"/>
  </g>
</svg>