<?xml version="1.0" encoding="utf-8"?>
<!-- Generator: Adobe Illustrator 27.0.1, SVG Export Plug-In . SVG Version: 6.00 Build 0)  -->
<svg version="1.1" id="Vrstva_1" xmlns="http://www.w3.org/2000/svg" xmlns:xlink="http://www.w3.org/1999/xlink" x="0px" y="0px"
	 viewBox="0 0 986.8 339.4" style="enable-background:new 0 0 986.8 339.4;" xml:space="preserve">
<style type="text/css">
	.st0{fill:#004494;}
	.st1{fill:#E2001A;}
	.st2{fill:#FFDD00;}
</style>
<g>
	<g>
		<g>
			<path class="st0" d="M76,164.3c-3.3,0-6.7-0.5-10.1-1.4c-3.4-1-6.6-2.3-9.7-4.1l3.3-9.7c2.9,1.8,6,3.2,9.1,4.2
				c3.1,1,6.3,1.5,9.6,1.5c2.5,0,4.5-0.6,5.8-1.7c1.4-1.1,2.1-2.6,2.3-4.4c0.2-1.9-0.5-3.3-2.1-4.3c-1.6-0.9-4.6-1.9-9.1-2.9
				c-5.4-1.3-9.4-3.2-11.9-5.5c-2.5-2.3-3.6-5.8-3.1-10.4c0.6-5.1,2.7-9.3,6.6-12.6c3.8-3.3,8.9-5,15.2-5c3.4,0,6.7,0.5,9.9,1.4
				c3.2,1,5.9,2.2,8,3.7l-2.7,9.2c-2.7-1.6-5.4-2.8-8.1-3.6c-2.7-0.8-5.3-1.3-7.7-1.3c-2.3,0-4.2,0.5-5.7,1.5
				c-1.5,1-2.3,2.5-2.5,4.5c-0.2,1.9,0.4,3.3,1.9,4.3c1.4,0.9,4.6,2,9.3,3.1c5.7,1.5,9.7,3.4,12.1,5.8c2.4,2.4,3.4,5.9,2.9,10.5
				c-0.6,5.1-2.8,9.3-6.8,12.4C88.5,162.7,83,164.3,76,164.3z"/>
			<path class="st0" d="M105.8,163.6l5.8-55h20.5c5.5,0,9.6,1.3,12.3,4c2.7,2.7,3.7,6.5,3.2,11.6l-0.8,7.4
				c-0.5,4.8-2.4,8.5-5.6,11.1c-3.2,2.6-7.6,3.9-13,3.9h-7.7l-1.8,17.1H105.8z M121.4,137.2h5.4c2.2,0,3.9-0.5,5.1-1.5
				c1.1-1,1.9-2.8,2.1-5.5l0.5-4.7c0.3-2.7,0-4.6-0.9-5.7c-0.9-1.1-2.5-1.6-4.7-1.6h-5.4L121.4,137.2z"/>
			<path class="st0" d="M170.5,164.3c-6.7,0-11.7-1.6-14.9-4.9c-3.3-3.2-4.6-7.7-4-13.4l2.1-19.5c0.6-5.8,2.9-10.3,6.8-13.6
				c3.9-3.3,9.3-5,16-5c6.7,0,11.7,1.7,14.9,5c3.2,3.3,4.5,7.8,3.9,13.6l-2.1,19.5c-0.6,5.7-2.9,10.2-6.8,13.4
				C182.5,162.7,177.2,164.3,170.5,164.3z M171.5,154.8c3,0,5.2-0.7,6.5-2.1s2.1-4,2.5-7.8l1.8-17.3c0.4-3.9,0.1-6.6-0.8-8
				c-1-1.4-3-2.2-6-2.2s-5.2,0.7-6.5,2.2c-1.3,1.4-2.2,4.1-2.6,8l-1.8,17.3c-0.4,3.8-0.1,6.4,0.9,7.8S168.5,154.8,171.5,154.8z"/>
			<path class="st0" d="M213.6,163.6h-12.9l5.8-55h23.6c5.3,0,9.3,1.3,11.9,3.9c2.6,2.6,3.6,6.3,3.1,11.2l-0.5,4.8
				c-0.4,3.8-1.6,6.9-3.4,9.3c-1.9,2.5-4.4,4.2-7.6,5.2l9.3,20.6h-14.6l-8.9-19.7h-3.7L213.6,163.6z M216.7,134.5h8.7
				c2,0,3.5-0.4,4.5-1.3c1-0.8,1.7-2.5,1.9-4.9l0.4-4.3c0.3-2.5,0-4.1-0.8-4.9c-0.8-0.8-2.2-1.2-4.2-1.2h-8.7L216.7,134.5z"/>
			<path class="st0" d="M261.4,163.6l4.8-45.5h-14.3l1-9.5h41.6l-1,9.5h-14.4l-4.8,45.5H261.4z"/>
			<path class="st0" d="M314.5,164.3c-6.7,0-11.7-1.6-14.9-4.9c-3.3-3.2-4.6-7.7-4-13.4l2.1-19.5c0.6-5.8,2.9-10.3,6.8-13.6
				c3.9-3.3,9.3-5,16-5c6.7,0,11.7,1.7,14.9,5c3.2,3.3,4.5,7.8,3.9,13.6l-2.1,19.5c-0.6,5.7-2.9,10.2-6.8,13.4
				C326.5,162.7,321.2,164.3,314.5,164.3z M315.5,154.8c3,0,5.2-0.7,6.5-2.1c1.3-1.4,2.1-4,2.5-7.8l1.8-17.3c0.4-3.9,0.1-6.6-0.8-8
				c-1-1.4-3-2.2-6-2.2s-5.2,0.7-6.5,2.2c-1.3,1.4-2.2,4.1-2.6,8l-1.8,17.3c-0.4,3.8-0.1,6.4,0.9,7.8
				C310.5,154.1,312.5,154.8,315.5,154.8z"/>
			<path class="st0" d="M369.6,163.6h-17.3l-6.9-55h12.9l4.2,44.5l13.6-44.5h12L369.6,163.6z"/>
			<path class="st0" d="M387.5,163.6l5.8-55h35.6l-1,9.5h-22.7l-1.2,11.4h19.9l-1,9.5H403l-1.6,15.1h22.7l-1,9.5H387.5z"/>
			<path class="st0" d="M453.1,164.3c-7.7,0-13.2-1.6-16.3-4.9c-3.2-3.2-4.5-7.7-3.9-13.4l2.1-19.5c0.6-5.8,2.8-10.3,6.7-13.6
				c3.9-3.3,9.7-5,17.4-5c7.1,0,12.2,1.6,15.3,4.8c3.1,3.2,4.4,8.2,4,15l-12.9,0.7c0.2-4.2-0.2-7.1-1.3-8.6
				c-1.1-1.5-3.2-2.3-6.3-2.3c-3.4,0-5.9,0.7-7.3,2.2c-1.4,1.4-2.4,4.1-2.8,8.1l-1.8,17.3c-0.4,3.8-0.1,6.4,1.1,7.8
				c1.1,1.4,3.4,2.1,6.8,2.1c3.1,0,5.3-0.7,6.7-2.2c1.4-1.5,2.5-4.3,3.2-8.4l12.8,0.7c-1,6.7-3.4,11.6-7.2,14.8
				C465.5,162.8,460.1,164.3,453.1,164.3z"/>
		</g>
		<g>
			<path class="st0" d="M183.5,230.8h-12.9l5.8-55H200c5.3,0,9.3,1.3,11.9,3.9c2.6,2.6,3.6,6.3,3.1,11.2l-0.5,4.8
				c-0.4,3.8-1.6,6.9-3.4,9.3c-1.9,2.5-4.4,4.2-7.6,5.2l9.3,20.6h-14.6l-8.9-19.7h-3.7L183.5,230.8z M186.5,201.7h8.7
				c2,0,3.5-0.4,4.5-1.3c1-0.8,1.7-2.5,1.9-4.9l0.4-4.3c0.3-2.5,0-4.1-0.8-4.9c-0.8-0.8-2.2-1.2-4.2-1.2h-8.7L186.5,201.7z"/>
			<path class="st0" d="M240.5,231.4c-6.7,0-11.7-1.6-14.9-4.9c-3.3-3.2-4.6-7.7-4-13.4l2.1-19.5c0.6-5.8,2.9-10.3,6.8-13.6
				c3.9-3.3,9.3-5,16-5c6.7,0,11.7,1.7,14.9,5c3.2,3.3,4.5,7.8,3.9,13.6l-2.1,19.5c-0.6,5.7-2.9,10.2-6.8,13.4
				C252.5,229.8,247.2,231.4,240.5,231.4z M241.4,222c3,0,5.2-0.7,6.5-2.1s2.1-4,2.5-7.8l1.8-17.3c0.4-3.9,0.1-6.6-0.8-8
				c-1-1.4-3-2.2-6-2.2s-5.2,0.7-6.5,2.2c-1.3,1.4-2.2,4.1-2.6,8l-1.8,17.3c-0.4,3.8-0.1,6.4,0.9,7.8S238.4,222,241.4,222z"/>
			<path class="st0" d="M286,207.1l-2.5,23.7h-12.9l5.8-55h12.9l-2.3,21.9h2.4l14.1-21.9h14l-18.2,25.4l12.2,29.7h-14.8l-8.3-23.7
				H286z"/>
			<path class="st0" d="M337.2,231.4c-7.3,0-12.4-1.5-15.4-4.6c-3-3.1-4.1-8-3.4-14.8l3.9-36.4h12.9l-3.7,35.6
				c-0.4,3.9-0.1,6.5,0.9,7.9c1,1.4,3,2.2,6,2.2s5.2-0.7,6.5-2.2c1.3-1.4,2.1-4.1,2.5-7.9l3.7-35.6h12.9l-3.9,36.4
				c-0.7,6.8-2.8,11.7-6.5,14.8C349.9,229.9,344.5,231.4,337.2,231.4z"/>
		</g>
		<g>
			<path class="st0" d="M625.3,220.7l-5.3-24.3l-3.6,34.3h-4.4l4.2-40.1h6.9l5.5,25.7l10.9-25.7h6.5l-4.2,40.1h-4.4l3.6-34.3
				l-10.4,24.3H625.3z"/>
			<path class="st0" d="M662,231.3c-4.4,0-7.6-1.2-9.6-3.5c-2-2.3-2.8-5.7-2.3-10.2l1.4-13.6c0.5-4.6,2-8,4.5-10.3
				c2.5-2.3,5.9-3.5,10.3-3.5c4.1,0,7.1,1.1,9.1,3.4c2,2.3,2.9,5.6,2.6,10.1l-4.7,0.5c0.1-3.6-0.4-6.1-1.6-7.6s-3.2-2.2-6-2.2
				c-3.1,0-5.3,0.8-6.8,2.3c-1.5,1.5-2.4,4-2.8,7.4l-1.4,13.6c-0.4,3.4,0,5.8,1.2,7.3c1.2,1.5,3.3,2.2,6.4,2.2c2.9,0,5-0.7,6.5-2.2
				c1.5-1.5,2.5-3.9,3-7.4l4.6,0.5c-0.6,4.4-2.1,7.7-4.6,9.9C669.5,230.1,666.2,231.3,662,231.3z M665,185.5l-7-7.4l2.3-2.8l6.9,5.5
				l7.9-5.5l1.8,2.8l-8.5,7.4H665z"/>
			<path class="st0" d="M693.9,230.8l4.2-40.1h11.8c3.6,0,6.2,0.9,7.9,2.6c1.7,1.8,2.3,4.4,2,7.8l-0.5,4.9c-0.4,3.5-1.6,6.1-3.6,7.9
				c-2,1.8-4.9,2.7-8.5,2.7h-7l-1.5,14.2H693.9z M700.5,212.5h6.9c2.2,0,3.9-0.5,5.1-1.5c1.1-1,1.8-2.7,2.1-4.9l0.5-4.8
				c0.2-2.2-0.1-3.9-1.1-4.9c-0.9-1-2.5-1.5-4.8-1.5h-6.9L700.5,212.5z"/>
			<path class="st0" d="M726.3,230.8h-4.7l4.2-40.1h15.1c3.5,0,6,0.9,7.6,2.7c1.6,1.8,2.2,4.4,1.8,7.9l-0.3,3.1
				c-0.3,3.1-1.3,5.5-2.8,7.3c-1.6,1.8-3.7,2.9-6.4,3.3l7,15.8h-5.4l-6.9-15.7h-7.4L726.3,230.8z M728.4,211h10.1
				c2.1,0,3.7-0.5,4.8-1.6c1.1-1.1,1.7-2.8,2-5.1l0.3-3.1c0.2-2.2-0.1-3.8-1-4.8c-0.9-1-2.4-1.5-4.5-1.5H730L728.4,211z"/>
			<path class="st0" d="M776.7,230.8l-2.2-11.7h-13.7l-4.7,11.7h-4.7l16.8-40.1h5.2l8.3,40.1H776.7z M773.7,214.8l-3.6-19l-7.6,19
				H773.7z"/>
			<path class="st0" d="M785.7,230.8l4.2-40.1h4.7l-1.7,16.2h16.2l1.7-16.2h4.7l-4.2,40.1h-4.7l2.1-19.6h-16.2l-2.1,19.6H785.7z"/>
			<path class="st0" d="M840.7,230.8l-2.2-11.7h-13.7l-4.7,11.7h-4.7l16.8-40.1h5.2l8.3,40.1H840.7z M837.7,214.8l-3.6-19l-7.6,19
				H837.7z"/>
			<path class="st0" d="M863.5,230.8l0.5-4.2h9.2l2.9-27.9h-0.9c-0.8,2-2.1,3.6-3.8,4.9c-1.7,1.2-3.6,1.9-5.7,2.1l0.1-4.7
				c2.6-0.2,5-1.2,7-3c2-1.8,3.4-4.2,4.2-7.2h4.6l-3.8,35.9h8.4l-0.5,4.2H863.5z"/>
			<path class="st0" d="M903.4,231.3c-4.5,0-7.7-0.8-9.6-2.6c-1.8-1.7-2.6-4.7-2.4-8.9l4.8-0.5c-0.1,3,0.3,5.1,1.3,6.1
				c1,1,3.2,1.5,6.4,1.5c2.9,0,5-0.6,6.4-1.7c1.4-1.1,2.2-2.9,2.4-5.3l0.3-2.5c0.2-2.4-0.1-4.2-1.1-5.3c-1-1.1-2.7-1.7-5.2-1.7
				h-13.1l2.1-19.9h23.1l-0.5,4.3H900l-1.2,11.2h8.8c3.7,0,6.4,0.9,8.1,2.8c1.7,1.8,2.4,4.6,2,8.4l-0.3,3.2c-0.4,3.5-1.7,6.1-4.1,8
				C910.9,230.3,907.6,231.3,903.4,231.3z"/>
		</g>
		<g>
			<g>
				<path class="st1" d="M571.4,175.7c0,45.9-37.3,83.2-83.2,83.2S405,221.6,405,175.7h-24.2c0,59.2,48.2,107.4,107.4,107.4
					c59.2,0,107.4-48.2,107.4-107.4H571.4z"/>
				<path class="st2" d="M488.2,246.8c39.2,0,71.1-31.9,71.1-71.1h-24.2c0,25.9-21.1,46.9-46.9,46.9c-25.9,0-46.9-21.1-46.9-46.9
					H417C417,214.9,448.9,246.8,488.2,246.8z"/>
				<path class="st0" d="M488.2,210.6c19.2,0,34.9-15.6,34.9-34.9h-24.2c0,5.9-4.8,10.7-10.7,10.7c-5.9,0-10.7-4.8-10.7-10.7h-24.2
					C453.3,194.9,468.9,210.6,488.2,210.6z"/>
			</g>
			<g>
				<path class="st1" d="M523,163.6c0-45.9,37.3-83.2,83.2-83.2s83.2,37.3,83.2,83.2c0,0,0,0,0,0h24.2c0,0,0,0,0,0
					c0-59.2-48.2-107.4-107.4-107.4c-59.2,0-107.4,48.2-107.4,107.4c0,0,0,0,0,0L523,163.6C523,163.6,523,163.6,523,163.6z"/>
				<path class="st2" d="M559.3,163.6c0-25.9,21.1-46.9,46.9-46.9c25.9,0,46.9,21.1,46.9,46.9c0,0,0,0,0,0h24.2c0,0,0,0,0,0
					c0-39.2-31.9-71.1-71.1-71.1c-39.2,0-71.1,31.9-71.1,71.1c0,0,0,0,0,0L559.3,163.6C559.3,163.6,559.3,163.6,559.3,163.6z"/>
				<path class="st0" d="M595.5,163.6c0-5.9,4.8-10.7,10.7-10.7c5.9,0,10.7,4.8,10.7,10.7c0,0,0,0,0,0h24.2c0,0,0,0,0,0
					c0-19.2-15.6-34.9-34.9-34.9s-34.9,15.6-34.9,34.9c0,0,0,0,0,0L595.5,163.6C595.5,163.6,595.5,163.6,595.5,163.6z"/>
			</g>
		</g>
	</g>
	<g>
		<path class="st0" d="M735.6,163.7l1.2-11.5c0.6-5.1,1.8-8.9,3.8-11.5c2-2.6,5-4.4,8.9-5.3l11.6-2.8c2.4-0.6,4-1.3,5-2.4
			c1-1,1.6-2.4,1.8-4.3l0.3-2.3c0.2-2.5-0.2-4.3-1.2-5.4c-1.1-1.1-2.9-1.7-5.5-1.7c-2.6,0-4.5,0.6-5.7,1.9c-1.2,1.3-2,3.7-2.6,7.2
			l-12.9-0.7c0.9-5.9,3.1-10.2,6.5-13.1c3.5-2.9,8.7-4.3,15.5-4.3c6.8,0,11.8,1.4,14.9,4.1c3.1,2.7,4.4,6.7,3.8,11.9l-0.3,3.1
			c-0.5,4.3-1.6,7.6-3.5,9.8c-1.9,2.2-4.8,3.8-8.7,4.7l-11.7,2.8c-2.4,0.6-4.1,1.4-5.2,2.6c-1,1.2-1.7,3-1.9,5.5l-0.2,2.1h28.9
			l-1,9.6H735.6z"/>
		<path class="st0" d="M806.2,164.3c-6.7,0-11.6-2.1-14.8-6.2c-3.2-4.1-4.4-9.9-3.6-17.4l1-9.3c0.8-7.5,3.2-13.4,7.3-17.6
			c4.1-4.2,9.4-6.3,16.1-6.3c6.7,0,11.6,2.1,14.7,6.3c3.1,4.2,4.3,10.1,3.5,17.6l-1,9.3c-0.8,7.5-3.2,13.3-7.2,17.4
			C818.3,162.3,812.9,164.3,806.2,164.3z M807.2,155.3c3.2,0,5.4-1.2,6.7-3.6c1.3-2.4,2.2-6.5,2.8-12.2l0.7-6.8
			c0.6-5.8,0.5-9.9-0.2-12.4c-0.8-2.5-2.7-3.7-5.9-3.7s-5.4,1.2-6.7,3.7c-1.3,2.5-2.2,6.6-2.8,12.4l-0.7,6.8
			c-0.6,5.7-0.5,9.8,0.3,12.2C802,154.1,804,155.3,807.2,155.3z"/>
		<path class="st0" d="M835.1,163.7l1.2-11.5c0.6-5.1,1.8-8.9,3.8-11.5c2-2.6,5-4.4,8.9-5.3l11.6-2.8c2.4-0.6,4-1.3,5-2.4
			c1-1,1.6-2.4,1.8-4.3l0.3-2.3c0.2-2.5-0.2-4.3-1.2-5.4c-1.1-1.1-2.9-1.7-5.5-1.7c-2.6,0-4.5,0.6-5.7,1.9c-1.2,1.3-2,3.7-2.6,7.2
			l-12.9-0.7c0.9-5.9,3.1-10.2,6.5-13.1c3.5-2.9,8.7-4.3,15.5-4.3c6.8,0,11.8,1.4,14.9,4.1c3.1,2.7,4.4,6.7,3.8,11.9l-0.3,3.1
			c-0.5,4.3-1.6,7.6-3.5,9.8c-1.9,2.2-4.8,3.8-8.7,4.7l-11.7,2.8c-2.4,0.6-4.1,1.4-5.2,2.6c-1,1.2-1.7,3-1.9,5.5l-0.2,2.1H878
			l-1,9.6H835.1z"/>
		<path class="st0" d="M884.8,163.7l1.2-11.5c0.6-5.1,1.8-8.9,3.8-11.5c2-2.6,5-4.4,8.9-5.3l11.6-2.8c2.4-0.6,4-1.3,5-2.4
			c1-1,1.6-2.4,1.8-4.3l0.3-2.3c0.2-2.5-0.2-4.3-1.2-5.4c-1.1-1.1-2.9-1.7-5.5-1.7c-2.6,0-4.5,0.6-5.7,1.9c-1.2,1.3-2,3.7-2.6,7.2
			l-12.9-0.7c0.9-5.9,3.1-10.2,6.5-13.1c3.5-2.9,8.7-4.3,15.5-4.3c6.8,0,11.8,1.4,14.9,4.1c3.1,2.7,4.4,6.7,3.8,11.9l-0.3,3.1
			c-0.5,4.3-1.6,7.6-3.5,9.8c-1.9,2.2-4.8,3.8-8.7,4.7l-11.7,2.8c-2.4,0.6-4.1,1.4-5.2,2.6c-1,1.2-1.7,3-1.9,5.5l-0.2,2.1h28.9
			l-1,9.6H884.8z"/>
	</g>
</g>
</svg>
