<?xml version="1.0" encoding="utf-8"?>
<!-- Generator: Adobe Illustrator 24.2.1, SVG Export Plug-In . SVG Version: 6.00 Build 0)  -->
<svg version="1.1" id="Vrstva_1" xmlns="http://www.w3.org/2000/svg" xmlns:xlink="http://www.w3.org/1999/xlink" x="0px" y="0px"
	 width="237.1px" height="61.6px" viewBox="0 0 237.1 61.6" style="enable-background:new 0 0 237.1 61.6;" xml:space="preserve">
<style type="text/css">
	.st0{fill:#004494;}
	.st1{fill:#E2001A;}
	.st2{fill:#FFDD00;}
	.st3{opacity:0.36;}
	.st4{fill:#1A171B;}
	.st5{fill:none;stroke:#004494;stroke-width:0.5;stroke-miterlimit:10;}
	.st6{fill:none;stroke:#004494;stroke-width:0.5;stroke-miterlimit:10;stroke-dasharray:4.9376,4.9376;}
	.st7{fill:none;stroke:#004494;stroke-width:0.5;stroke-miterlimit:10;stroke-dasharray:5.1418,5.1418;}
	.st8{fill:none;stroke:#004494;stroke-width:0.5;stroke-miterlimit:10;stroke-dasharray:4.9211,4.9211;}
	.st9{fill:none;stroke:#004494;stroke-width:0.5;stroke-miterlimit:10;stroke-dasharray:4.993,4.993;}
</style>
<g>
	<g>
		<path class="st0" d="M5.4,29.3c-0.9,0-1.8-0.1-2.7-0.4c-0.9-0.3-1.8-0.6-2.6-1.1l0.9-2.6c0.8,0.5,1.6,0.9,2.5,1.1
			c0.9,0.3,1.7,0.4,2.6,0.4c0.7,0,1.2-0.2,1.6-0.5c0.4-0.3,0.6-0.7,0.6-1.2c0-0.5-0.1-0.9-0.6-1.2c-0.4-0.2-1.2-0.5-2.5-0.8
			c-1.5-0.4-2.5-0.9-3.2-1.5c-0.7-0.6-1-1.6-0.8-2.8c0.1-1.4,0.7-2.5,1.8-3.4C3.9,14.5,5.3,14,7,14c0.9,0,1.8,0.1,2.7,0.4
			c0.9,0.3,1.6,0.6,2.2,1l-0.7,2.5c-0.7-0.4-1.5-0.8-2.2-1s-1.4-0.3-2.1-0.3c-0.6,0-1.2,0.1-1.5,0.4c-0.4,0.3-0.6,0.7-0.7,1.2
			c0,0.5,0.1,0.9,0.5,1.2c0.4,0.2,1.2,0.5,2.5,0.8c1.5,0.4,2.6,0.9,3.3,1.6c0.7,0.7,0.9,1.6,0.8,2.8c-0.1,1.4-0.8,2.5-1.9,3.4
			C8.7,28.9,7.3,29.3,5.4,29.3z"/>
		<path class="st0" d="M13.4,29.1L15,14.2h5.6c1.5,0,2.6,0.4,3.3,1.1c0.7,0.7,1,1.8,0.9,3.1l-0.2,2c-0.1,1.3-0.6,2.3-1.5,3
			c-0.9,0.7-2.1,1.1-3.5,1.1h-2.1l-0.5,4.6H13.4z M17.7,22h1.5c0.6,0,1.1-0.1,1.4-0.4c0.3-0.3,0.5-0.8,0.6-1.5l0.1-1.3
			c0.1-0.7,0-1.2-0.2-1.5c-0.2-0.3-0.7-0.4-1.3-0.4h-1.5L17.7,22z"/>
		<path class="st0" d="M31,29.3c-1.8,0-3.2-0.4-4.1-1.3c-0.9-0.9-1.2-2.1-1.1-3.7l0.6-5.3c0.2-1.6,0.8-2.8,1.8-3.7
			c1.1-0.9,2.5-1.3,4.3-1.3c1.8,0,3.2,0.4,4.1,1.3c0.9,0.9,1.2,2.1,1.1,3.7l-0.6,5.3c-0.2,1.6-0.8,2.8-1.8,3.7
			C34.3,28.9,32.8,29.3,31,29.3z M31.3,26.8c0.8,0,1.4-0.2,1.8-0.6s0.6-1.1,0.7-2.1l0.5-4.7c0.1-1.1,0-1.8-0.2-2.2
			c-0.3-0.4-0.8-0.6-1.6-0.6s-1.4,0.2-1.8,0.6c-0.4,0.4-0.6,1.1-0.7,2.2l-0.5,4.7c-0.1,1,0,1.7,0.2,2.1S30.5,26.8,31.3,26.8z"/>
		<path class="st0" d="M42.7,29.1h-3.5l1.6-14.9h6.4c1.4,0,2.5,0.4,3.2,1.1c0.7,0.7,1,1.7,0.8,3l-0.1,1.3c-0.1,1-0.4,1.9-0.9,2.5
			c-0.5,0.7-1.2,1.1-2.1,1.4l2.5,5.6h-4l-2.4-5.3h-1L42.7,29.1z M43.5,21.2h2.4c0.5,0,0.9-0.1,1.2-0.3c0.3-0.2,0.4-0.7,0.5-1.3
			l0.1-1.2c0.1-0.7,0-1.1-0.2-1.3c-0.2-0.2-0.6-0.3-1.1-0.3H44L43.5,21.2z"/>
		<path class="st0" d="M55.7,29.1L57,16.8h-3.9l0.3-2.6h11.3l-0.3,2.6h-3.9l-1.3,12.4H55.7z"/>
		<path class="st0" d="M70.1,29.3c-1.8,0-3.2-0.4-4.1-1.3c-0.9-0.9-1.2-2.1-1.1-3.7l0.6-5.3c0.2-1.6,0.8-2.8,1.8-3.7
			c1.1-0.9,2.5-1.3,4.3-1.3c1.8,0,3.2,0.4,4.1,1.3c0.9,0.9,1.2,2.1,1.1,3.7l-0.6,5.3c-0.2,1.6-0.8,2.8-1.8,3.7
			C73.4,28.9,71.9,29.3,70.1,29.3z M70.4,26.8c0.8,0,1.4-0.2,1.8-0.6s0.6-1.1,0.7-2.1l0.5-4.7c0.1-1.1,0-1.8-0.2-2.2
			c-0.3-0.4-0.8-0.6-1.6-0.6s-1.4,0.2-1.8,0.6c-0.4,0.4-0.6,1.1-0.7,2.2l-0.5,4.7c-0.1,1,0,1.7,0.2,2.1S69.5,26.8,70.4,26.8z"/>
		<path class="st0" d="M85,29.1h-4.7l-1.9-14.9H82l1.1,12.1l3.7-12.1h3.3L85,29.1z"/>
		<path class="st0" d="M89.9,29.1l1.6-14.9h9.7l-0.3,2.6h-6.2l-0.3,3.1h5.4l-0.3,2.6h-5.4l-0.4,4.1h6.2l-0.3,2.6H89.9z"/>
		<path class="st0" d="M107.7,29.3c-2.1,0-3.6-0.4-4.4-1.3c-0.9-0.9-1.2-2.1-1.1-3.7l0.6-5.3c0.2-1.6,0.8-2.8,1.8-3.7
			c1.1-0.9,2.6-1.3,4.7-1.3c1.9,0,3.3,0.4,4.1,1.3c0.8,0.9,1.2,2.2,1.1,4.1l-3.5,0.2c0.1-1.1-0.1-1.9-0.4-2.3s-0.9-0.6-1.7-0.6
			c-0.9,0-1.6,0.2-2,0.6c-0.4,0.4-0.6,1.1-0.8,2.2l-0.5,4.7c-0.1,1,0,1.7,0.3,2.1c0.3,0.4,0.9,0.6,1.9,0.6c0.8,0,1.4-0.2,1.8-0.6
			c0.4-0.4,0.7-1.2,0.9-2.3L114,24c-0.3,1.8-0.9,3.2-1.9,4C111.1,28.9,109.6,29.3,107.7,29.3z"/>
	</g>
	<g>
		<path class="st0" d="M34.5,47.4H31l1.6-14.9H39c1.4,0,2.5,0.4,3.2,1.1c0.7,0.7,1,1.7,0.8,3l-0.1,1.3c-0.1,1-0.4,1.9-0.9,2.5
			c-0.5,0.7-1.2,1.1-2.1,1.4l2.5,5.6h-4L36.1,42h-1L34.5,47.4z M35.3,39.5h2.4c0.5,0,0.9-0.1,1.2-0.3c0.3-0.2,0.4-0.7,0.5-1.3
			l0.1-1.2c0.1-0.7,0-1.1-0.2-1.3c-0.2-0.2-0.6-0.3-1.1-0.3h-2.4L35.3,39.5z"/>
		<path class="st0" d="M50,47.5c-1.8,0-3.2-0.4-4.1-1.3c-0.9-0.9-1.2-2.1-1.1-3.7l0.6-5.3c0.2-1.6,0.8-2.8,1.8-3.7
			c1.1-0.9,2.5-1.3,4.3-1.3c1.8,0,3.2,0.4,4.1,1.3c0.9,0.9,1.2,2.1,1.1,3.7l-0.6,5.3c-0.2,1.6-0.8,2.8-1.8,3.7
			C53.2,47.1,51.8,47.5,50,47.5z M50.3,45c0.8,0,1.4-0.2,1.8-0.6s0.6-1.1,0.7-2.1l0.5-4.7c0.1-1.1,0-1.8-0.2-2.2
			c-0.3-0.4-0.8-0.6-1.6-0.6s-1.4,0.2-1.8,0.6c-0.4,0.4-0.6,1.1-0.7,2.2l-0.5,4.7c-0.1,1,0,1.7,0.2,2.1S49.4,45,50.3,45z"/>
		<path class="st0" d="M62.4,40.9l-0.7,6.4h-3.5l1.6-14.9h3.5l-0.6,5.9h0.7l3.8-5.9h3.8L66,39.3l3.3,8h-4l-2.2-6.4H62.4z"/>
		<path class="st0" d="M76.3,47.5c-2,0-3.4-0.4-4.2-1.2c-0.8-0.8-1.1-2.2-0.9-4l1-9.9h3.5l-1,9.7c-0.1,1,0,1.8,0.2,2.2
			c0.3,0.4,0.8,0.6,1.6,0.6s1.4-0.2,1.8-0.6c0.3-0.4,0.6-1.1,0.7-2.2l1-9.7h3.5l-1,9.9c-0.2,1.8-0.8,3.2-1.8,4S78.2,47.5,76.3,47.5z
			"/>
	</g>
	<g>
		<path class="st0" d="M154.4,44.6L153,38l-1,9.3h-1.2l1.1-10.9h1.9l1.5,7l3-7h1.8l-1.1,10.9h-1.2l1-9.3l-2.8,6.6H154.4z"/>
		<path class="st0" d="M164.4,47.5c-1.2,0-2.1-0.3-2.6-0.9c-0.5-0.6-0.8-1.5-0.6-2.8l0.4-3.7c0.1-1.2,0.5-2.2,1.2-2.8
			c0.7-0.6,1.6-0.9,2.8-0.9c1.1,0,1.9,0.3,2.5,0.9c0.5,0.6,0.8,1.5,0.7,2.7l-1.3,0.1c0-1-0.1-1.7-0.4-2.1s-0.9-0.6-1.6-0.6
			c-0.8,0-1.5,0.2-1.9,0.6s-0.7,1.1-0.8,2l-0.4,3.7c-0.1,0.9,0,1.6,0.3,2c0.3,0.4,0.9,0.6,1.7,0.6c0.8,0,1.4-0.2,1.8-0.6
			c0.4-0.4,0.7-1.1,0.8-2l1.3,0.1c-0.2,1.2-0.6,2.1-1.2,2.7C166.4,47.2,165.5,47.5,164.4,47.5z M165.2,35.1l-1.9-2l0.6-0.7l1.9,1.5
			l2.1-1.5l0.5,0.7l-2.3,2H165.2z"/>
		<path class="st0" d="M173.1,47.4l1.1-10.9h3.2c1,0,1.7,0.2,2.1,0.7c0.5,0.5,0.6,1.2,0.5,2.1l-0.1,1.3c-0.1,0.9-0.4,1.7-1,2.1
			c-0.6,0.5-1.3,0.7-2.3,0.7h-1.9l-0.4,3.9H173.1z M174.9,42.4h1.9c0.6,0,1.1-0.1,1.4-0.4c0.3-0.3,0.5-0.7,0.6-1.3l0.1-1.3
			c0.1-0.6,0-1-0.3-1.3c-0.3-0.3-0.7-0.4-1.3-0.4h-1.9L174.9,42.4z"/>
		<path class="st0" d="M181.8,47.4h-1.3l1.1-10.9h4.1c0.9,0,1.6,0.2,2.1,0.7c0.4,0.5,0.6,1.2,0.5,2.1l-0.1,0.8
			c-0.1,0.8-0.3,1.5-0.8,2c-0.4,0.5-1,0.8-1.7,0.9l1.9,4.3h-1.5l-1.9-4.3h-2L181.8,47.4z M182.4,42h2.7c0.6,0,1-0.1,1.3-0.4
			c0.3-0.3,0.5-0.8,0.5-1.4l0.1-0.8c0.1-0.6,0-1-0.3-1.3c-0.2-0.3-0.6-0.4-1.2-0.4h-2.7L182.4,42z"/>
		<path class="st0" d="M195.5,47.4l-0.6-3.2h-3.7l-1.3,3.2h-1.3l4.6-10.9h1.4l2.3,10.9H195.5z M194.7,43l-1-5.2l-2.1,5.2H194.7z"/>
		<path class="st0" d="M198,47.4l1.1-10.9h1.3l-0.5,4.4h4.4l0.5-4.4h1.3l-1.1,10.9h-1.3l0.6-5.3h-4.4l-0.6,5.3H198z"/>
		<path class="st0" d="M212.9,47.4l-0.6-3.2h-3.7l-1.3,3.2H206l4.6-10.9h1.4l2.3,10.9H212.9z M212.1,43l-1-5.2l-2.1,5.2H212.1z"/>
		<path class="st0" d="M219.1,47.4l0.1-1.1h2.5l0.8-7.6h-0.2c-0.2,0.5-0.6,1-1,1.3c-0.5,0.3-1,0.5-1.5,0.6l0-1.3
			c0.7,0,1.3-0.3,1.9-0.8c0.5-0.5,0.9-1.1,1.1-2h1.2l-1,9.7h2.3l-0.1,1.1H219.1z"/>
		<path class="st0" d="M229.9,47.5c-1.2,0-2.1-0.2-2.6-0.7c-0.5-0.5-0.7-1.3-0.7-2.4l1.3-0.1c0,0.8,0.1,1.4,0.4,1.7
			c0.3,0.3,0.9,0.4,1.7,0.4c0.8,0,1.4-0.1,1.7-0.4s0.6-0.8,0.7-1.4l0.1-0.7c0.1-0.7,0-1.1-0.3-1.4c-0.3-0.3-0.7-0.5-1.4-0.5h-3.6
			l0.6-5.4h6.3l-0.1,1.2h-5l-0.3,3h2.4c1,0,1.7,0.2,2.2,0.7c0.5,0.5,0.6,1.3,0.5,2.3l-0.1,0.9c-0.1,0.9-0.5,1.7-1.1,2.2
			C231.9,47.2,231.1,47.5,229.9,47.5z"/>
	</g>
	<g>
		<g>
			<path class="st1" d="M139.8,32.4c0,12.5-10.1,22.6-22.6,22.6S94.6,44.9,94.6,32.4h-6.6c0,16.1,13.1,29.1,29.1,29.1
				c16.1,0,29.1-13.1,29.1-29.1H139.8z"/>
			<path class="st2" d="M117.2,51.7c10.6,0,19.3-8.7,19.3-19.3H130c0,7-5.7,12.7-12.7,12.7c-7,0-12.7-5.7-12.7-12.7h-6.6
				C97.9,43.1,106.6,51.7,117.2,51.7z"/>
			<path class="st0" d="M117.2,41.9c5.2,0,9.5-4.2,9.5-9.5h-6.6c0,1.6-1.3,2.9-2.9,2.9c-1.6,0-2.9-1.3-2.9-2.9h-6.6
				C107.8,37.6,112,41.9,117.2,41.9z"/>
		</g>
		<g>
			<path class="st1" d="M126.7,29.1c0-12.5,10.1-22.6,22.6-22.6c12.5,0,22.6,10.1,22.6,22.6c0,0,0,0,0,0h6.6c0,0,0,0,0,0
				c0-16.1-13.1-29.1-29.1-29.1c-16.1,0-29.1,13.1-29.1,29.1c0,0,0,0,0,0L126.7,29.1C126.7,29.1,126.7,29.1,126.7,29.1z"/>
			<path class="st2" d="M136.5,29.1c0-7,5.7-12.7,12.7-12.7c7,0,12.7,5.7,12.7,12.7c0,0,0,0,0,0h6.6c0,0,0,0,0,0
				c0-10.6-8.7-19.3-19.3-19.3c-10.6,0-19.3,8.7-19.3,19.3c0,0,0,0,0,0L136.5,29.1C136.5,29.1,136.5,29.1,136.5,29.1z"/>
			<path class="st0" d="M146.4,29.1c0-1.6,1.3-2.9,2.9-2.9c1.6,0,2.9,1.3,2.9,2.9c0,0,0,0,0,0h6.6c0,0,0,0,0,0
				c0-5.2-4.2-9.5-9.5-9.5c-5.2,0-9.5,4.2-9.5,9.5c0,0,0,0,0,0L146.4,29.1C146.4,29.1,146.4,29.1,146.4,29.1z"/>
		</g>
	</g>
	<g>
		<g>
			<path class="st0" d="M184.5,29.1l0.3-3.1c0.2-1.4,0.5-2.4,1-3.1c0.5-0.7,1.3-1.2,2.4-1.4l3.1-0.7c0.6-0.1,1.1-0.4,1.4-0.6
				c0.3-0.3,0.4-0.7,0.5-1.2l0.1-0.6c0.1-0.7-0.1-1.2-0.3-1.5c-0.3-0.3-0.8-0.4-1.5-0.4c-0.7,0-1.2,0.2-1.5,0.5
				c-0.3,0.3-0.6,1-0.7,1.9l-3.5-0.2c0.2-1.6,0.8-2.8,1.8-3.5c0.9-0.8,2.3-1.2,4.2-1.2c1.8,0,3.2,0.4,4,1.1c0.8,0.7,1.2,1.8,1,3.2
				l-0.1,0.8c-0.1,1.2-0.4,2-1,2.6c-0.5,0.6-1.3,1-2.4,1.3l-3.2,0.7c-0.6,0.2-1.1,0.4-1.4,0.7c-0.3,0.3-0.5,0.8-0.5,1.5l-0.1,0.6
				h7.8l-0.3,2.6H184.5z"/>
			<path class="st0" d="M203.5,29.3c-1.8,0-3.1-0.6-4-1.7c-0.9-1.1-1.2-2.7-1-4.7l0.3-2.5c0.2-2,0.9-3.6,2-4.7
				c1.1-1.1,2.5-1.7,4.3-1.7c1.8,0,3.1,0.6,4,1.7c0.8,1.1,1.2,2.7,1,4.7l-0.3,2.5c-0.2,2-0.9,3.6-1.9,4.7
				C206.8,28.8,205.3,29.3,203.5,29.3z M203.8,26.9c0.9,0,1.5-0.3,1.8-1c0.3-0.7,0.6-1.8,0.8-3.3l0.2-1.8c0.2-1.6,0.1-2.7-0.1-3.3
				c-0.2-0.7-0.7-1-1.6-1c-0.9,0-1.5,0.3-1.8,1c-0.3,0.7-0.6,1.8-0.8,3.3l-0.2,1.8c-0.2,1.5-0.1,2.6,0.1,3.3
				C202.4,26.6,202.9,26.9,203.8,26.9z"/>
			<path class="st0" d="M211.4,29.1l0.3-3.1c0.2-1.4,0.5-2.4,1-3.1c0.5-0.7,1.3-1.2,2.4-1.4l3.1-0.7c0.6-0.1,1.1-0.4,1.4-0.6
				c0.3-0.3,0.4-0.7,0.5-1.2l0.1-0.6c0.1-0.7-0.1-1.2-0.3-1.5c-0.3-0.3-0.8-0.4-1.5-0.4c-0.7,0-1.2,0.2-1.5,0.5
				c-0.3,0.3-0.6,1-0.7,1.9l-3.5-0.2c0.2-1.6,0.8-2.8,1.8-3.5c0.9-0.8,2.3-1.2,4.2-1.2c1.8,0,3.2,0.4,4,1.1c0.8,0.7,1.2,1.8,1,3.2
				l-0.1,0.8c-0.1,1.2-0.4,2-1,2.6c-0.5,0.6-1.3,1-2.4,1.3l-3.2,0.7c-0.6,0.2-1.1,0.4-1.4,0.7c-0.3,0.3-0.5,0.8-0.5,1.5l-0.1,0.6
				h7.8l-0.3,2.6H211.4z"/>
			<path class="st0" d="M230.5,29.3c-1.8,0-3.1-0.6-4-1.7c-0.9-1.1-1.2-2.7-1-4.7l0.3-2.5c0.2-2,0.9-3.6,2-4.7
				c1.1-1.1,2.5-1.7,4.3-1.7c1.8,0,3.1,0.6,4,1.7c0.8,1.1,1.2,2.7,1,4.7l-0.3,2.5c-0.2,2-0.9,3.6-1.9,4.7
				C233.7,28.8,232.3,29.3,230.5,29.3z M230.7,26.9c0.9,0,1.5-0.3,1.8-1c0.3-0.7,0.6-1.8,0.8-3.3l0.2-1.8c0.2-1.6,0.1-2.7-0.1-3.3
				c-0.2-0.7-0.7-1-1.6-1c-0.9,0-1.5,0.3-1.8,1c-0.3,0.7-0.6,1.8-0.8,3.3l-0.2,1.8c-0.2,1.5-0.1,2.6,0.1,3.3
				C229.3,26.6,229.9,26.9,230.7,26.9z"/>
		</g>
	</g>
</g>
</svg>
