<svg id="Vrstva_1" data-name="Vrstva 1" xmlns="http://www.w3.org/2000/svg" viewBox="0 0 236.52 61.56"><defs><style>.cls-1{fill:#024593;}.cls-2{fill:#e1081c;}.cls-3{fill:#ffde04;}</style></defs><path class="cls-1" d="M30.38,46.29a10.11,10.11,0,0,1-2.73-.39A11.44,11.44,0,0,1,25,44.8l.89-2.64a10.69,10.69,0,0,0,2.48,1.15,8.55,8.55,0,0,0,2.6.4,2.44,2.44,0,0,0,1.58-.45,1.73,1.73,0,0,0,.62-1.21,1.11,1.11,0,0,0-.56-1.16,9.93,9.93,0,0,0-2.46-.78,7.42,7.42,0,0,1-3.24-1.49,3.21,3.21,0,0,1-.85-2.82,5.11,5.11,0,0,1,1.78-3.43A6.09,6.09,0,0,1,32,31a9.36,9.36,0,0,1,2.69.39,7.48,7.48,0,0,1,2.18,1l-.72,2.5a11.43,11.43,0,0,0-2.2-1,7,7,0,0,0-2.1-.35,2.73,2.73,0,0,0-1.55.41,1.62,1.62,0,0,0-.69,1.22,1.14,1.14,0,0,0,.51,1.16,10.46,10.46,0,0,0,2.53.84,7.13,7.13,0,0,1,3.3,1.58,3.32,3.32,0,0,1,.77,2.84A4.69,4.69,0,0,1,34.86,45,7,7,0,0,1,30.38,46.29Z" transform="translate(-25.03 -16.98)"/><path class="cls-1" d="M38.46,46.12,40,31.19h5.56a4.54,4.54,0,0,1,3.34,1.09,3.64,3.64,0,0,1,.86,3.14l-.2,2a4.26,4.26,0,0,1-1.52,3,5.53,5.53,0,0,1-3.54,1.05H42.44L42,46.12Zm4.24-7.19h1.47a2,2,0,0,0,1.39-.41A2.28,2.28,0,0,0,46.14,37l.13-1.29A2.06,2.06,0,0,0,46,34.2a1.63,1.63,0,0,0-1.29-.44H43.26Z" transform="translate(-25.03 -16.98)"/><path class="cls-1" d="M56,46.31A5.51,5.51,0,0,1,52,45a4.23,4.23,0,0,1-1.09-3.65l.56-5.3a5.33,5.33,0,0,1,1.85-3.7A6.57,6.57,0,0,1,57.64,31a5.49,5.49,0,0,1,4.06,1.34A4.41,4.41,0,0,1,62.76,36l-.56,5.3A5.16,5.16,0,0,1,60.36,45,6.56,6.56,0,0,1,56,46.31Zm.26-2.58a2.24,2.24,0,0,0,1.75-.58,3.85,3.85,0,0,0,.7-2.11l.48-4.7A3.61,3.61,0,0,0,59,34.16a1.85,1.85,0,0,0-1.63-.58,2.27,2.27,0,0,0-1.76.58,3.93,3.93,0,0,0-.7,2.18L54.43,41a3.27,3.27,0,0,0,.24,2.11A1.85,1.85,0,0,0,56.3,43.73Z" transform="translate(-25.03 -16.98)"/><path class="cls-1" d="M67.74,46.12H64.25l1.57-14.93h6.4a4.39,4.39,0,0,1,3.22,1.05,3.54,3.54,0,0,1,.85,3l-.13,1.31a4.93,4.93,0,0,1-.93,2.53,4,4,0,0,1-2.08,1.41l2.52,5.6h-4l-2.41-5.34h-1Zm.82-7.9h2.37a1.87,1.87,0,0,0,1.22-.34,2,2,0,0,0,.52-1.32l.11-1.15c.08-.68,0-1.12-.22-1.33a1.67,1.67,0,0,0-1.14-.32H69.05Z" transform="translate(-25.03 -16.98)"/><path class="cls-1" d="M80.69,46.12,82,33.76H78.12l.26-2.57H89.66l-.27,2.57h-3.9L84.18,46.12Z" transform="translate(-25.03 -16.98)"/><path class="cls-1" d="M95.12,46.31A5.51,5.51,0,0,1,91.07,45,4.19,4.19,0,0,1,90,41.34l.56-5.3a5.32,5.32,0,0,1,1.84-3.7A6.58,6.58,0,0,1,96.73,31a5.45,5.45,0,0,1,4,1.34,4.41,4.41,0,0,1,1.06,3.7l-.56,5.3A5.16,5.16,0,0,1,99.44,45,6.56,6.56,0,0,1,95.12,46.31Zm.26-2.58a2.27,2.27,0,0,0,1.76-.58A3.78,3.78,0,0,0,97.83,41l.48-4.7a3.53,3.53,0,0,0-.22-2.18,1.84,1.84,0,0,0-1.63-.58,2.27,2.27,0,0,0-1.76.58,4,4,0,0,0-.7,2.18L93.51,41a3.27,3.27,0,0,0,.24,2.11A1.87,1.87,0,0,0,95.38,43.73Z" transform="translate(-25.03 -16.98)"/><path class="cls-1" d="M110.06,46.12h-4.7l-1.87-14.93H107l1.14,12.08,3.7-12.08h3.27Z" transform="translate(-25.03 -16.98)"/><path class="cls-1" d="M114.93,46.12l1.57-14.93h9.65l-.26,2.57h-6.16l-.33,3.1h5.39l-.26,2.58h-5.4l-.43,4.11h6.17l-.28,2.57Z" transform="translate(-25.03 -16.98)"/><path class="cls-1" d="M132.72,46.31c-2.09,0-3.57-.44-4.43-1.32a4.28,4.28,0,0,1-1.06-3.65l.56-5.3a5.38,5.38,0,0,1,1.82-3.7A7.16,7.16,0,0,1,134.33,31a5.6,5.6,0,0,1,4.14,1.3,5.06,5.06,0,0,1,1.08,4.06l-3.51.18a3.87,3.87,0,0,0-.35-2.34,2,2,0,0,0-1.7-.62,2.77,2.77,0,0,0-2,.58,3.72,3.72,0,0,0-.75,2.2L130.76,41a3,3,0,0,0,.29,2.12,2.32,2.32,0,0,0,1.86.57,2.46,2.46,0,0,0,1.83-.6,4.59,4.59,0,0,0,.86-2.29l3.47.19a6.23,6.23,0,0,1-1.94,4A6.72,6.72,0,0,1,132.72,46.31Z" transform="translate(-25.03 -16.98)"/><path class="cls-1" d="M59.55,64.34H56.06L57.63,49.4H64a4.38,4.38,0,0,1,3.23,1.06,3.57,3.57,0,0,1,.85,3L68,54.8A5,5,0,0,1,67,57.33,4.14,4.14,0,0,1,65,58.74l2.52,5.6h-4L61.12,59h-1Zm.83-7.9h2.37A1.84,1.84,0,0,0,64,56.1a2,2,0,0,0,.52-1.32l.12-1.16c.07-.67,0-1.11-.23-1.32A1.59,1.59,0,0,0,63.23,52H60.86Z" transform="translate(-25.03 -16.98)"/><path class="cls-1" d="M75,64.53A5.56,5.56,0,0,1,71,63.21a4.26,4.26,0,0,1-1.08-3.65l.56-5.3a5.33,5.33,0,0,1,1.85-3.7,6.52,6.52,0,0,1,4.33-1.34,5.41,5.41,0,0,1,4,1.34,4.38,4.38,0,0,1,1.07,3.7l-.56,5.3a5.22,5.22,0,0,1-1.84,3.65A6.59,6.59,0,0,1,75,64.53ZM75.28,62A2.25,2.25,0,0,0,77,61.37a3.84,3.84,0,0,0,.69-2.11l.49-4.7A3.59,3.59,0,0,0,78,52.38a1.87,1.87,0,0,0-1.63-.59,2.28,2.28,0,0,0-1.76.59,3.9,3.9,0,0,0-.7,2.18l-.49,4.7a3.38,3.38,0,0,0,.23,2.11A1.89,1.89,0,0,0,75.28,62Z" transform="translate(-25.03 -16.98)"/><path class="cls-1" d="M87.39,57.92l-.67,6.42h-3.5L84.79,49.4h3.49l-.61,5.94h.65l3.83-5.94H96L91,56.29l3.32,8.05h-4l-2.24-6.42Z" transform="translate(-25.03 -16.98)"/><path class="cls-1" d="M101.28,64.53c-2,0-3.37-.42-4.18-1.25s-1.12-2.16-.94-4l1-9.88h3.49l-1,9.66a3.41,3.41,0,0,0,.24,2.15,1.86,1.86,0,0,0,1.63.59,2.28,2.28,0,0,0,1.76-.59,4.11,4.11,0,0,0,.69-2.15l1-9.66h3.5l-1.05,9.88a5.76,5.76,0,0,1-1.75,4A6.75,6.75,0,0,1,101.28,64.53Z" transform="translate(-25.03 -16.98)"/><path class="cls-1" d="M179.48,61.62,178,55l-1,9.31h-1.19L177,53.47h1.86l1.49,7,3-7h1.76L184,64.34h-1.18l1-9.32-2.82,6.6Z" transform="translate(-25.03 -16.98)"/><path class="cls-1" d="M189.42,64.47a3.31,3.31,0,0,1-2.6-.93,3.48,3.48,0,0,1-.62-2.76l.38-3.7a4.33,4.33,0,0,1,1.23-2.8,4,4,0,0,1,2.8-1,3.16,3.16,0,0,1,2.47.92,3.69,3.69,0,0,1,.71,2.74l-1.28.13a3.3,3.3,0,0,0-.42-2.06,2,2,0,0,0-1.62-.6,2.53,2.53,0,0,0-1.86.61,3.35,3.35,0,0,0-.75,2l-.38,3.7a2.7,2.7,0,0,0,.33,2,2.12,2.12,0,0,0,1.74.6,2.35,2.35,0,0,0,1.76-.61,3.62,3.62,0,0,0,.82-2l1.25.13a4.18,4.18,0,0,1-1.25,2.69A3.88,3.88,0,0,1,189.42,64.47Zm.83-12.42-1.89-2,.63-.74,1.86,1.49L193,49.3l.49.74-2.29,2Z" transform="translate(-25.03 -16.98)"/><path class="cls-1" d="M198.09,64.34l1.14-10.87h3.2a2.83,2.83,0,0,1,2.13.71,2.59,2.59,0,0,1,.53,2.13L205,57.63a3.14,3.14,0,0,1-1,2.13,3.41,3.41,0,0,1-2.3.72h-1.9l-.41,3.86Zm1.8-5h1.86a2,2,0,0,0,1.38-.42,2,2,0,0,0,.56-1.33l.14-1.29a1.69,1.69,0,0,0-.29-1.33,1.66,1.66,0,0,0-1.29-.41h-1.86Z" transform="translate(-25.03 -16.98)"/><path class="cls-1" d="M206.87,64.34h-1.28l1.14-10.87h4.09a2.6,2.6,0,0,1,2.05.72,2.66,2.66,0,0,1,.49,2.13l-.08.83a3.46,3.46,0,0,1-.77,2,2.78,2.78,0,0,1-1.74.91l1.89,4.29h-1.47l-1.86-4.25h-2Zm.57-5.37h2.73a1.75,1.75,0,0,0,1.29-.43,2.29,2.29,0,0,0,.54-1.39l.09-.84a1.73,1.73,0,0,0-.26-1.3,1.51,1.51,0,0,0-1.21-.41h-2.73Z" transform="translate(-25.03 -16.98)"/><path class="cls-1" d="M220.56,64.34l-.6-3.18h-3.71L215,64.34H213.7l4.55-10.87h1.4l2.26,10.87ZM219.75,60l-1-5.15L216.72,60Z" transform="translate(-25.03 -16.98)"/><path class="cls-1" d="M223,64.34l1.14-10.87h1.28l-.46,4.4h4.4l.46-4.4h1.28L230,64.34h-1.28l.56-5.31h-4.41l-.55,5.31Z" transform="translate(-25.03 -16.98)"/><path class="cls-1" d="M237.94,64.34l-.6-3.18h-3.71l-1.28,3.18h-1.28l4.56-10.87H237l2.26,10.87ZM237.12,60l-1-5.15-2,5.15Z" transform="translate(-25.03 -16.98)"/><path class="cls-1" d="M244.12,64.34l.12-1.13h2.5l.79-7.58h-.23a3,3,0,0,1-2.57,1.87l0-1.27a3.15,3.15,0,0,0,1.89-.8,4,4,0,0,0,1.14-2H249l-1,9.74h2.27l-.13,1.13Z" transform="translate(-25.03 -16.98)"/><path class="cls-1" d="M254.94,64.47a3.84,3.84,0,0,1-2.6-.69,2.94,2.94,0,0,1-.65-2.4l1.29-.14a2.27,2.27,0,0,0,.37,1.66,2.5,2.5,0,0,0,1.72.42,2.79,2.79,0,0,0,1.74-.45,2,2,0,0,0,.66-1.43l.08-.67a1.91,1.91,0,0,0-.3-1.44,1.79,1.79,0,0,0-1.4-.45h-3.56l.57-5.41h6.28L259,54.62h-5l-.31,3h2.39a2.89,2.89,0,0,1,2.2.75,2.8,2.8,0,0,1,.53,2.28l-.08.87a3,3,0,0,1-1.12,2.17A4.29,4.29,0,0,1,254.94,64.47Z" transform="translate(-25.03 -16.98)"/><path class="cls-2" d="M164.82,49.4a22.58,22.58,0,1,1-45.16,0H113.1a29.14,29.14,0,1,0,58.28,0Z" transform="translate(-25.03 -16.98)"/><path class="cls-3" d="M142.24,68.7a19.32,19.32,0,0,0,19.3-19.3H155a12.74,12.74,0,1,1-25.48,0h-6.56A19.32,19.32,0,0,0,142.24,68.7Z" transform="translate(-25.03 -16.98)"/><path class="cls-1" d="M142.24,58.86a9.48,9.48,0,0,0,9.47-9.46h-6.56a2.91,2.91,0,0,1-5.81,0h-6.56A9.47,9.47,0,0,0,142.24,58.86Z" transform="translate(-25.03 -16.98)"/><path class="cls-2" d="M151.71,46.12a22.58,22.58,0,0,1,45.16,0h6.56a29.14,29.14,0,0,0-58.28,0h6.56Z" transform="translate(-25.03 -16.98)"/><path class="cls-3" d="M161.54,46.12a12.75,12.75,0,0,1,25.49,0h6.56a19.31,19.31,0,0,0-38.61,0h6.56Z" transform="translate(-25.03 -16.98)"/><path class="cls-1" d="M171.38,46.12a2.91,2.91,0,0,1,5.81,0h6.56a9.47,9.47,0,0,0-18.93,0h6.56Z" transform="translate(-25.03 -16.98)"/><path class="cls-1" d="M209.41,46.14l.32-3.12a6.27,6.27,0,0,1,1-3.13,4.09,4.09,0,0,1,2.42-1.43l3.16-.76a2.83,2.83,0,0,0,1.36-.63,1.9,1.9,0,0,0,.48-1.17l.08-.62a1.84,1.84,0,0,0-.34-1.46,2,2,0,0,0-1.49-.46,2.05,2.05,0,0,0-1.55.52,3.85,3.85,0,0,0-.7,1.95l-3.5-.19a5.4,5.4,0,0,1,1.78-3.55,6.5,6.5,0,0,1,4.22-1.17,6,6,0,0,1,4,1.12,3.54,3.54,0,0,1,1,3.22l-.1.85a4.87,4.87,0,0,1-.95,2.66,4.36,4.36,0,0,1-2.37,1.28l-3.18.75a2.78,2.78,0,0,0-1.4.7,2.53,2.53,0,0,0-.51,1.48l-.06.57h7.85l-.28,2.59Z" transform="translate(-25.03 -16.98)"/><path class="cls-1" d="M228.58,46.33a4.71,4.71,0,0,1-4-1.68,6.48,6.48,0,0,1-1-4.73l.26-2.52a7.79,7.79,0,0,1,2-4.77,5.81,5.81,0,0,1,4.36-1.71,4.66,4.66,0,0,1,4,1.71,6.55,6.55,0,0,1,1,4.77l-.26,2.52a7.7,7.7,0,0,1-1.95,4.73A5.82,5.82,0,0,1,228.58,46.33Zm.26-2.44a1.86,1.86,0,0,0,1.81-1,9.76,9.76,0,0,0,.76-3.32l.19-1.84a9.72,9.72,0,0,0-.06-3.36,1.48,1.48,0,0,0-1.61-1,1.88,1.88,0,0,0-1.82,1,10.12,10.12,0,0,0-.77,3.36l-.19,1.84a9.15,9.15,0,0,0,.07,3.32A1.5,1.5,0,0,0,228.84,43.89Z" transform="translate(-25.03 -16.98)"/><path class="cls-1" d="M236.4,46.14l.32-3.12a6.27,6.27,0,0,1,1-3.13,4.11,4.11,0,0,1,2.43-1.43l3.15-.76a2.87,2.87,0,0,0,1.37-.63,2,2,0,0,0,.47-1.17l.08-.62a1.8,1.8,0,0,0-.34-1.46,2,2,0,0,0-1.48-.46,2,2,0,0,0-1.55.52,3.84,3.84,0,0,0-.71,1.95l-3.49-.19a5.44,5.44,0,0,1,1.77-3.55,6.53,6.53,0,0,1,4.22-1.17A6,6,0,0,1,247.72,32a3.52,3.52,0,0,1,1,3.22l-.09.85a5,5,0,0,1-1,2.66,4.29,4.29,0,0,1-2.37,1.28l-3.17.75a2.74,2.74,0,0,0-1.4.7,2.6,2.6,0,0,0-.52,1.48l-.05.57h7.85l-.28,2.59Z" transform="translate(-25.03 -16.98)"/><path class="cls-1" d="M251.16,46.14l.28-2.59h3.46l.95-9.13h-.48a3.75,3.75,0,0,1-1.37,2,3.83,3.83,0,0,1-2.05.81l.13-2.6a4.63,4.63,0,0,0,2.4-1.05,5.41,5.41,0,0,0,1.75-2.44h3.48l-1.3,12.44h3.14l-.28,2.59Z" transform="translate(-25.03 -16.98)"/></svg>