<?xml version="1.0" encoding="UTF-8"?><svg id="Vrstva_2" xmlns="http://www.w3.org/2000/svg" viewBox="0 0 875.38 227.23"><g id="Vrstva_1-2"><path d="M679.2,107.73l1.18-11.51c.55-5.08,1.82-8.93,3.8-11.55s4.96-4.38,8.92-5.31l11.62-2.77c2.35-.56,4.02-1.34,5.01-2.36s1.58-2.45,1.76-4.3l.28-2.29c.23-2.5-.18-4.3-1.25-5.41-1.06-1.11-2.88-1.67-5.46-1.67s-4.53.64-5.71,1.91c-1.18,1.27-2.04,3.67-2.59,7.18l-12.87-.69c.88-5.87,3.05-10.24,6.54-13.11,3.48-2.87,8.66-4.3,15.53-4.3s11.79,1.38,14.91,4.13c3.11,2.75,4.39,6.72,3.84,11.9l-.35,3.12c-.46,4.3-1.64,7.57-3.53,9.81-1.89,2.24-4.8,3.83-8.72,4.75l-11.69,2.77c-2.4.56-4.11,1.41-5.15,2.57s-1.67,2.98-1.9,5.48l-.21,2.08h28.91l-1.04,9.57h-41.85Z" style="fill:#0b4691;"/><path d="M749.78,108.43c-6.69,0-11.61-2.07-14.77-6.21-3.16-4.14-4.35-9.95-3.56-17.44l.97-9.29c.78-7.54,3.2-13.41,7.26-17.62,4.06-4.21,9.41-6.31,16.05-6.31s11.6,2.1,14.73,6.31c3.14,4.21,4.31,10.08,3.53,17.62l-.97,9.29c-.78,7.49-3.18,13.3-7.19,17.44-4.01,4.14-9.36,6.21-16.05,6.21ZM750.75,99.41c3.18,0,5.41-1.21,6.67-3.64,1.27-2.43,2.2-6.51,2.8-12.24l.69-6.8c.6-5.78.52-9.92-.24-12.41s-2.73-3.75-5.91-3.75-5.42,1.25-6.71,3.75c-1.29,2.5-2.24,6.63-2.84,12.41l-.69,6.8c-.6,5.73-.51,9.81.28,12.24.78,2.43,2.77,3.64,5.95,3.64Z" style="fill:#0b4691;"/><path d="M778.58,107.73l1.18-11.51c.55-5.08,1.82-8.93,3.8-11.55s4.96-4.38,8.92-5.31l11.62-2.77c2.35-.56,4.02-1.34,5.01-2.36s1.58-2.45,1.76-4.3l.28-2.29c.23-2.5-.18-4.3-1.25-5.41-1.06-1.11-2.88-1.67-5.46-1.67s-4.53.64-5.71,1.91c-1.18,1.27-2.04,3.67-2.59,7.18l-12.87-.69c.88-5.87,3.05-10.24,6.54-13.11,3.48-2.87,8.66-4.3,15.53-4.3s11.79,1.38,14.91,4.13c3.11,2.75,4.39,6.72,3.84,11.9l-.35,3.12c-.46,4.3-1.64,7.57-3.53,9.81-1.89,2.24-4.8,3.83-8.72,4.75l-11.69,2.77c-2.4.56-4.11,1.41-5.15,2.57s-1.67,2.98-1.9,5.48l-.21,2.08h28.91l-1.04,9.57h-41.85Z" style="fill:#0b4691;"/><path d="M874.48,94h-8.72l-1.45,13.73h-12.93l1.45-13.73h-23.66l.9-9.02,24.56-32.73h15.49l-3.46,32.73h8.72l-.9,9.02ZM841.48,84.99h12.24l2.01-18.73-14.25,18.73Z" style="fill:#0b4691;"/><path d="M19.78,108.18c-3.31,0-6.67-.48-10.1-1.45-3.42-.97-6.65-2.32-9.68-4.07l3.31-9.71c2.94,1.84,5.98,3.25,9.13,4.24,3.15.99,6.35,1.49,9.61,1.49,2.53,0,4.47-.56,5.83-1.69,1.36-1.12,2.12-2.61,2.31-4.44.18-1.93-.51-3.36-2.07-4.28-1.56-.92-4.6-1.88-9.1-2.89-5.42-1.33-9.41-3.17-11.96-5.51-2.55-2.34-3.6-5.81-3.14-10.41.55-5.1,2.74-9.32,6.58-12.65,3.84-3.33,8.9-5,15.2-5,3.4,0,6.71.48,9.92,1.45,3.22.97,5.9,2.21,8.06,3.72l-2.69,9.24c-2.71-1.56-5.41-2.77-8.1-3.62s-5.27-1.28-7.75-1.28c-2.34,0-4.25.51-5.72,1.52-1.47,1.01-2.32,2.51-2.55,4.48-.18,1.93.45,3.35,1.9,4.27,1.45.92,4.56,1.95,9.34,3.1,5.7,1.47,9.75,3.42,12.17,5.86,2.41,2.44,3.36,5.93,2.86,10.48-.55,5.15-2.84,9.29-6.86,12.44-4.02,3.15-9.52,4.72-16.51,4.72Z" style="fill:#0b4691;"/><path d="M49.59,107.56l5.79-55.14h20.54c5.52,0,9.61,1.34,12.3,4.03,2.69,2.69,3.76,6.56,3.2,11.61l-.76,7.38c-.51,4.82-2.38,8.54-5.62,11.13-3.24,2.6-7.59,3.89-13.06,3.89h-7.72l-1.79,17.09h-12.89ZM65.23,81.03h5.45c2.25,0,3.95-.5,5.1-1.52,1.15-1.01,1.86-2.85,2.14-5.52l.48-4.75c.32-2.71.03-4.61-.89-5.68-.92-1.08-2.51-1.62-4.76-1.62h-5.44l-2.07,19.09Z" style="fill:#0b4691;"/><path d="M114.47,108.25c-6.71,0-11.69-1.62-14.96-4.86-3.26-3.24-4.59-7.73-4-13.47l2.07-19.57c.59-5.79,2.87-10.34,6.82-13.65,3.95-3.31,9.28-4.96,15.99-4.96s11.74,1.65,14.96,4.96c3.22,3.31,4.52,7.86,3.93,13.65l-2.07,19.57c-.6,5.75-2.86,10.24-6.79,13.47-3.93,3.24-9.25,4.86-15.96,4.86ZM115.44,98.74c3.03,0,5.19-.71,6.48-2.14s2.14-4.02,2.55-7.79l1.79-17.37c.41-3.9.14-6.58-.83-8.03-.97-1.45-2.97-2.17-6-2.17s-5.21.72-6.51,2.17c-1.31,1.45-2.17,4.12-2.58,8.03l-1.79,17.37c-.41,3.77-.13,6.37.86,7.79s3,2.14,6.03,2.14Z" style="fill:#0b4691;"/><path d="M157.66,107.56h-12.89l5.79-55.14h23.64c5.33,0,9.29,1.3,11.89,3.89,2.6,2.6,3.64,6.33,3.14,11.2l-.48,4.83c-.41,3.77-1.56,6.88-3.45,9.34-1.89,2.46-4.43,4.2-7.65,5.21l9.31,20.68h-14.61l-8.89-19.71h-3.72l-2.07,19.71ZM160.69,78.41h8.75c1.98,0,3.47-.43,4.48-1.28,1.01-.85,1.65-2.47,1.93-4.86l.41-4.27c.28-2.48,0-4.11-.83-4.89-.83-.78-2.23-1.18-4.21-1.18h-8.75l-1.79,16.47Z" style="fill:#0b4691;"/><path d="M205.47,107.56l4.83-45.63h-14.34l.96-9.51h41.63l-.97,9.51h-14.4l-4.82,45.63h-12.89Z" style="fill:#0b4691;"/><path d="M258.73,108.25c-6.71,0-11.69-1.62-14.96-4.86-3.26-3.24-4.59-7.73-4-13.47l2.07-19.57c.59-5.79,2.87-10.34,6.82-13.65,3.95-3.31,9.28-4.96,15.99-4.96s11.74,1.65,14.96,4.96c3.22,3.31,4.52,7.86,3.93,13.65l-2.07,19.57c-.6,5.75-2.86,10.24-6.79,13.47-3.93,3.24-9.25,4.86-15.96,4.86ZM259.7,98.74c3.03,0,5.19-.71,6.48-2.14s2.14-4.02,2.55-7.79l1.79-17.37c.41-3.9.14-6.58-.83-8.03-.97-1.45-2.97-2.17-6-2.17s-5.21.72-6.51,2.17c-1.31,1.45-2.17,4.12-2.58,8.03l-1.79,17.37c-.41,3.77-.13,6.37.86,7.79s3,2.14,6.03,2.14Z" style="fill:#0b4691;"/><path d="M313.89,107.56h-17.37l-6.89-55.14h12.96l4.2,44.59,13.65-44.59h12.06l-18.61,55.14Z" style="fill:#0b4691;"/><path d="M331.86,107.56l5.79-55.14h35.63l-.96,9.51h-22.75l-1.24,11.44h19.92l-.97,9.51h-19.92l-1.59,15.16h22.75l-1.03,9.51h-35.63Z" style="fill:#0b4691;"/><path d="M397.52,108.25c-7.72,0-13.18-1.62-16.37-4.86-3.19-3.24-4.49-7.73-3.9-13.47l2.07-19.57c.59-5.79,2.84-10.34,6.72-13.65,3.88-3.31,9.69-4.96,17.4-4.96,7.08,0,12.18,1.6,15.3,4.79,3.12,3.19,4.46,8.19,4,14.99l-12.96.69c.23-4.22-.21-7.11-1.31-8.65s-3.19-2.31-6.27-2.31c-3.45,0-5.89.72-7.34,2.17-1.45,1.45-2.38,4.15-2.79,8.1l-1.79,17.3c-.41,3.82-.06,6.42,1.07,7.82,1.13,1.4,3.41,2.11,6.86,2.11,3.08,0,5.33-.75,6.76-2.24,1.42-1.49,2.48-4.31,3.17-8.44l12.82.69c-1.01,6.71-3.4,11.64-7.17,14.78-3.77,3.15-9.19,4.72-16.26,4.72Z" style="fill:#0b4691;"/><path d="M127.45,174.8h-12.89l5.79-55.14h23.64c5.33,0,9.29,1.3,11.89,3.89,2.6,2.6,3.64,6.33,3.14,11.2l-.48,4.83c-.41,3.77-1.56,6.88-3.45,9.34-1.89,2.46-4.43,4.2-7.65,5.21l9.31,20.68h-14.61l-8.89-19.71h-3.72l-2.07,19.71ZM130.48,145.65h8.75c1.98,0,3.47-.43,4.48-1.28,1.01-.85,1.65-2.47,1.93-4.86l.41-4.27c.28-2.48,0-4.11-.83-4.89-.83-.78-2.23-1.18-4.21-1.18h-8.75l-1.79,16.47Z" style="fill:#0b4691;"/><path d="M184.52,175.49c-6.71,0-11.69-1.62-14.96-4.86-3.26-3.24-4.59-7.73-4-13.47l2.07-19.57c.59-5.79,2.87-10.34,6.82-13.65,3.95-3.31,9.28-4.96,15.99-4.96s11.74,1.65,14.96,4.96c3.22,3.31,4.52,7.86,3.93,13.65l-2.07,19.57c-.6,5.75-2.86,10.24-6.79,13.47-3.93,3.24-9.25,4.86-15.96,4.86ZM185.49,165.98c3.03,0,5.19-.71,6.48-2.14s2.14-4.02,2.55-7.79l1.79-17.37c.41-3.9.14-6.58-.83-8.03-.97-1.45-2.97-2.17-6-2.17s-5.21.72-6.51,2.17c-1.31,1.45-2.17,4.12-2.58,8.03l-1.79,17.37c-.41,3.77-.13,6.37.86,7.79s3,2.14,6.03,2.14Z" style="fill:#0b4691;"/><path d="M230.19,151.09l-2.48,23.71h-12.89l5.79-55.14h12.89l-2.27,21.92h2.41l14.13-21.92h14.06l-18.26,25.43,12.27,29.71h-14.82l-8.27-23.71h-2.55Z" style="fill:#0b4691;"/><path d="M281.47,175.49c-7.3,0-12.45-1.52-15.44-4.58-2.98-3.06-4.13-7.98-3.45-14.79l3.86-36.46h12.89l-3.72,35.63c-.41,3.86-.13,6.51.86,7.96.99,1.45,3,2.17,6.03,2.17s5.19-.72,6.48-2.17c1.28-1.45,2.13-4.1,2.55-7.96l3.72-35.63h12.89l-3.86,36.46c-.69,6.8-2.85,11.73-6.48,14.79s-9.08,4.58-16.34,4.58Z" style="fill:#0b4691;"/><path d="M570.11,164.77l-5.32-24.33-3.61,34.36h-4.37l4.22-40.13h6.87l5.52,25.73,10.93-25.73h6.52l-4.21,40.13h-4.36l3.61-34.41-10.38,24.38h-5.42Z" style="fill:#0b4691;"/><path d="M606.82,175.3c-4.38,0-7.58-1.15-9.61-3.46-2.02-2.31-2.78-5.7-2.28-10.18l1.4-13.64c.5-4.58,2.01-8.03,4.52-10.36,2.51-2.32,5.95-3.49,10.33-3.49,4.08,0,7.12,1.13,9.13,3.39,2.01,2.26,2.88,5.63,2.61,10.11l-4.72.5c.13-3.58-.39-6.11-1.56-7.6-1.17-1.49-3.16-2.23-5.97-2.23-3.08,0-5.36.75-6.85,2.26-1.49,1.51-2.41,3.98-2.78,7.42l-1.41,13.64c-.37,3.38.04,5.8,1.23,7.27,1.19,1.47,3.32,2.21,6.4,2.21,2.88,0,5.05-.75,6.52-2.23,1.47-1.49,2.47-3.96,3.01-7.4l4.62.5c-.57,4.38-2.1,7.69-4.59,9.93-2.49,2.24-5.83,3.36-10.01,3.36ZM609.88,129.46l-6.97-7.42,2.31-2.76,6.87,5.52,7.87-5.52,1.81,2.76-8.48,7.42h-3.41Z" style="fill:#0b4691;"/><path d="M638.82,174.8l4.22-40.13h11.78c3.58,0,6.2.88,7.88,2.63,1.67,1.76,2.32,4.37,1.96,7.85l-.5,4.87c-.37,3.48-1.57,6.1-3.61,7.88-2.04,1.77-4.87,2.66-8.48,2.66h-7.02l-1.51,14.25h-4.72ZM645.44,156.49h6.87c2.24,0,3.94-.52,5.09-1.55,1.15-1.04,1.84-2.68,2.08-4.92l.5-4.76c.23-2.24-.12-3.87-1.06-4.89-.94-1.02-2.52-1.53-4.76-1.53h-6.87l-1.86,17.66Z" style="fill:#0b4691;"/><path d="M671.21,174.8h-4.72l4.22-40.13h15.1c3.48,0,6,.89,7.57,2.66,1.57,1.77,2.17,4.4,1.8,7.88l-.3,3.06c-.34,3.11-1.28,5.56-2.83,7.35-1.56,1.79-3.7,2.9-6.44,3.34l6.97,15.85h-5.42l-6.87-15.7h-7.42l-1.65,15.7ZM673.32,154.99h10.08c2.1,0,3.69-.53,4.76-1.6s1.74-2.78,2.01-5.12l.3-3.11c.23-2.17-.08-3.77-.95-4.79s-2.36-1.53-4.46-1.53h-10.08l-1.65,16.15Z" style="fill:#0b4691;"/><path d="M721.76,174.8l-2.21-11.74h-13.7l-4.71,11.74h-4.72l16.8-40.13h5.17l8.33,40.13h-4.96ZM718.75,158.8l-3.61-19.01-7.58,19.01h11.19Z" style="fill:#0b4691;"/><path d="M730.79,174.8l4.22-40.13h4.71l-1.7,16.25h16.25l1.71-16.25h4.72l-4.22,40.13h-4.71l2.06-19.61h-16.25l-2.06,19.61h-4.72Z" style="fill:#0b4691;"/><path d="M785.89,174.8l-2.21-11.74h-13.7l-4.71,11.74h-4.72l16.8-40.13h5.17l8.33,40.13h-4.96ZM782.88,158.8l-3.61-19.01-7.58,19.01h11.19Z" style="fill:#0b4691;"/><path d="M808.71,174.8l.45-4.16h9.23l2.91-27.99h-.85c-.8,2.01-2.07,3.63-3.81,4.86-1.74,1.24-3.63,1.93-5.67,2.06l.1-4.71c2.64-.17,4.96-1.15,6.97-2.96,2.01-1.81,3.41-4.22,4.22-7.23h4.61l-3.76,35.97h8.38l-.45,4.16h-22.32Z" style="fill:#0b4691;"/><path d="M848.65,175.3c-4.55,0-7.74-.85-9.58-2.56-1.84-1.71-2.64-4.67-2.41-8.88l4.77-.5c-.14,3.04.32,5.09,1.35,6.12,1.04,1.03,3.16,1.55,6.37,1.55,2.88,0,5.01-.55,6.4-1.65,1.39-1.1,2.2-2.86,2.43-5.27l.3-2.51c.23-2.41-.13-4.17-1.1-5.29-.97-1.12-2.69-1.68-5.17-1.68h-13.14l2.11-19.96h23.18l-.45,4.26h-18.46l-1.15,11.19h8.83c3.68,0,6.38.92,8.1,2.76,1.72,1.84,2.38,4.65,1.98,8.42l-.3,3.21c-.37,3.48-1.75,6.14-4.14,8-2.39,1.86-5.7,2.78-9.91,2.78Z" style="fill:#0b4691;"/><path d="M516.02,119.67c0,45.96-37.4,83.35-83.35,83.35s-83.35-37.39-83.35-83.35h-24.21c0,59.31,48.25,107.56,107.56,107.56s107.56-48.25,107.57-107.56h-24.21Z" style="fill:#e2071b;"/><path d="M432.67,190.91c39.28,0,71.24-31.96,71.24-71.24h-24.21c0,25.94-21.1,47.03-47.03,47.03s-47.03-21.1-47.04-47.03h-24.21c0,39.28,31.96,71.24,71.25,71.24Z" style="fill:#ffdd06;"/><path d="M432.67,154.59c19.26,0,34.92-15.67,34.92-34.93h-24.21c0,5.91-4.81,10.71-10.71,10.71s-10.72-4.8-10.72-10.71h-24.21c0,19.26,15.67,34.93,34.93,34.93Z" style="fill:#0b4691;"/><path d="M467.6,107.56c0-45.96,37.39-83.35,83.35-83.35s83.35,37.39,83.35,83.35h0s24.21,0,24.21,0h0c0-59.31-48.25-107.56-107.57-107.56s-107.56,48.25-107.56,107.56h0s24.21,0,24.21,0h0Z" style="fill:#e2071b;"/><path d="M503.92,107.56c0-25.93,21.1-47.03,47.04-47.03s47.03,21.1,47.03,47.03h0s24.21,0,24.21,0h0c0-39.28-31.96-71.24-71.24-71.24s-71.25,31.96-71.25,71.24h0s24.21,0,24.21,0h0Z" style="fill:#ffdd06;"/><path d="M540.23,107.56c0-5.91,4.81-10.71,10.72-10.71s10.71,4.81,10.71,10.71h0s24.21,0,24.21,0h0c0-19.26-15.66-34.93-34.92-34.93s-34.93,15.66-34.93,34.92h0s24.21,0,24.21,0h0Z" style="fill:#0b4691;"/></g></svg>