<svg xmlns="http://www.w3.org/2000/svg" width="607.203" height="67.609" viewBox="0 0 607.203 67.609">
  <path id="nadpis_konec_hlasovani" d="M16.689-20.953,14.5,0H3.106L8.223-48.727h11.39L17.6-29.358h2.132L32.221-48.727H44.646L28.505-26.252,39.347,0h-13.1L18.943-20.953ZM61.275.609q-8.893,0-13.217-4.294T44.525-15.593l1.827-17.3a17.348,17.348,0,0,1,6.03-12.06q5.238-4.385,14.131-4.385,8.954,0,13.217,4.385T83.2-32.891l-1.827,17.3a17.008,17.008,0,0,1-6,11.908Q70.167.609,61.275.609ZM62.127-7.8q4.02,0,5.725-1.888t2.254-6.883L71.69-31.916q.548-5.177-.731-7.1t-5.3-1.919q-4.02,0-5.756,1.919t-2.284,7.1L56.036-16.567q-.548,4.995.761,6.883T62.127-7.8ZM109.454,0l-8.405-36.119L97.272,0H87.709l5.116-48.727h15.41l8.345,33.622,3.533-33.622h9.563L124.559,0Zm23.085,0,5.116-48.727h31.49l-.853,8.405h-20.1l-1.1,10.111h17.6l-.853,8.405h-17.6l-1.4,13.4h20.1L164.028,0Zm59.325.609q-10.233,0-14.466-4.294t-3.441-11.908l1.827-17.3q.792-7.675,5.939-12.06t15.38-4.385q9.38,0,13.522,4.233t3.533,13.248l-11.451.609q.3-5.6-1.157-7.644t-5.543-2.04q-4.568,0-6.487,1.919t-2.467,7.157l-1.584,15.288q-.548,5.055.944,6.913t6.06,1.858q4.081,0,5.969-1.98t2.8-7.461l11.329.609q-1.34,8.893-6.335,13.065T191.864.609ZM244.855,0l5.116-48.727h11.39l-1.827,17.542H273.6l1.827-17.542h11.39L281.7,0h-11.39l2.375-22.78H258.62L256.245,0Zm44.829,0L294.8-48.727h11.39l-4.2,40.322h17.725L318.8,0Zm55.427-19.978-1.827-19.613-6.03,19.613ZM347.06,0l-1.1-11.573H334.7L331.1,0H320.686l16.445-48.727h15.349L358.572,0ZM380.8.548A32.791,32.791,0,0,1,371.88-.731a37.434,37.434,0,0,1-8.558-3.594l2.924-8.588a34.934,34.934,0,0,0,8.07,3.746,28.215,28.215,0,0,0,8.5,1.31A7.856,7.856,0,0,0,387.96-9.35,5.629,5.629,0,0,0,390-13.278a3.631,3.631,0,0,0-1.827-3.776q-2.071-1.218-8.04-2.558-7.187-1.766-10.568-4.873t-2.771-9.2a16.668,16.668,0,0,1,5.817-11.177q5.086-4.416,13.43-4.416A30.36,30.36,0,0,1,394.813-48a24.692,24.692,0,0,1,7.126,3.289l-2.375,8.162a36.246,36.246,0,0,0-7.157-3.2,22.7,22.7,0,0,0-6.852-1.127,8.746,8.746,0,0,0-5.055,1.34,5.285,5.285,0,0,0-2.254,3.959,3.7,3.7,0,0,0,1.675,3.776q1.919,1.218,8.253,2.741,7.553,1.949,10.75,5.177t2.528,9.258a15.513,15.513,0,0,1-6.06,10.994Q390.062.548,380.8.548ZM426.12.609q-8.893,0-13.217-4.294T409.37-15.593l1.827-17.3a17.347,17.347,0,0,1,6.03-12.06q5.238-4.385,14.131-4.385,8.954,0,13.217,4.385t3.472,12.06l-1.827,17.3a17.009,17.009,0,0,1-6,11.908Q435.013.609,426.12.609Zm.853-8.405q4.02,0,5.725-1.888t2.254-6.883l1.584-15.349q.548-5.177-.731-7.1t-5.3-1.919q-4.02,0-5.756,1.919t-2.284,7.1l-1.584,15.349q-.548,4.995.761,6.883T426.973-7.8ZM475.456,0H460.107l-6.091-48.727h11.451l3.715,39.408,12.06-39.408H491.9Zm35.388-19.978-1.827-19.613-6.03,19.613ZM512.794,0l-1.1-11.573H500.429L496.835,0H486.42l16.445-48.727h15.349L524.305,0Zm-8.771-54.818L510.357-67h13.887l-13.1,12.182ZM550.375,0l-8.405-36.119L538.193,0H528.63l5.116-48.727h15.41L557.5-15.105l3.533-33.622H570.6L565.48,0Zm23.085,0,.914-8.405h10.172l3.35-31.916H577.723l.853-8.405h31.734l-.853,8.405H599.285l-3.35,31.916h10.172L605.193,0Zm14.557-54.818L594.351-67h13.887l-13.1,12.182Z" transform="translate(-3.106 67)" fill="#003583"/>
</svg>
