<?xml version="1.0" encoding="utf-8"?>
<!-- Generator: Adobe Illustrator 25.1.0, SVG Export Plug-In . SVG Version: 6.00 Build 0)  -->
<svg version="1.1" id="Vrstva_1" xmlns="http://www.w3.org/2000/svg" xmlns:xlink="http://www.w3.org/1999/xlink" x="0px" y="0px"
	 viewBox="0 0 604.19 147.67" style="enable-background:new 0 0 604.19 147.67;" xml:space="preserve">
<style type="text/css">
	.st0{fill:#003682;}
</style>
<g>
	<path class="st0" d="M25.68,67.43H10.79L4.88,20.16h11.11l3.6,38.23l11.7-38.23h10.34L25.68,67.43z"/>
	<path class="st0" d="M65.03,67.43H53.98l1.89-17.73L44.59,20.16h11.46l6.44,20.8l11.11-20.8h10.75L66.92,49.71L65.03,67.43z
		 M58.24,14.25l6.15-11.82h13.47L65.15,14.25H58.24z"/>
	<path class="st0" d="M103.32,67.97c-2.84,0-5.72-0.41-8.66-1.24c-2.94-0.83-5.7-1.99-8.3-3.49l2.84-8.33
		c2.52,1.58,5.13,2.79,7.83,3.63c2.7,0.85,5.45,1.27,8.24,1.27c2.17,0,3.83-0.48,4.99-1.45c1.16-0.96,1.82-2.24,1.98-3.81
		c0.16-1.65-0.43-2.88-1.77-3.66c-1.34-0.79-3.94-1.61-7.8-2.48c-4.65-1.14-8.07-2.72-10.25-4.73c-2.19-2.01-3.08-4.98-2.69-8.92
		c0.47-4.37,2.35-7.99,5.64-10.84c3.29-2.86,7.63-4.28,13.03-4.28c2.92,0,5.75,0.41,8.51,1.24c2.76,0.83,5.06,1.89,6.91,3.19
		l-2.3,7.92c-2.32-1.34-4.64-2.37-6.94-3.1c-2.3-0.73-4.52-1.09-6.65-1.09c-2.01,0-3.64,0.43-4.9,1.3
		c-1.26,0.87-1.99,2.15-2.19,3.84c-0.16,1.65,0.38,2.88,1.62,3.66c1.24,0.79,3.91,1.67,8.01,2.66c4.88,1.26,8.36,2.94,10.43,5.02
		c2.07,2.09,2.89,5.08,2.45,8.98c-0.47,4.41-2.43,7.97-5.88,10.67C114.03,66.62,109.31,67.97,103.32,67.97z"/>
	<path class="st0" d="M132.69,67.43l4.96-47.27h11.05l-4.08,39.12h17.2l-0.89,8.15H132.69z"/>
	<path class="st0" d="M169.56,67.43l4.96-47.27h30.55l-0.83,8.15h-19.5l-1.06,9.81h17.08l-0.83,8.15h-17.08l-1.36,13H201l-0.89,8.15
		H169.56z"/>
	<path class="st0" d="M211.4,67.43l4.96-47.27h18.26c5.51,0,9.65,1.5,12.41,4.49c2.76,2.99,3.88,6.97,3.37,11.94l-1.54,14.65
		c-0.51,4.92-2.47,8.85-5.88,11.79c-3.41,2.94-7.85,4.4-13.33,4.4H211.4z M223.33,59.28h5.97c3.07,0,5.18-0.64,6.32-1.92
		c1.14-1.28,1.89-3.63,2.25-7.06l1.36-12.76c0.35-3.47,0.1-5.87-0.77-7.21c-0.87-1.34-2.84-2.01-5.91-2.01h-5.97L223.33,59.28z"/>
	<path class="st0" d="M271.32,47.11l-2.13,20.33h-11.05l4.96-47.27h11.05l-1.95,18.79h2.07l12.11-18.79h12.05l-15.66,21.8
		l10.52,25.47h-12.71l-7.09-20.33H271.32z"/>
	<path class="st0" d="M320.89,67.43h-11.05l1.89-17.73l-11.29-29.55h11.46l6.44,20.8l11.11-20.8h10.75l-17.43,29.55L320.89,67.43z"
		/>
	<path class="st0" d="M3.46,145.43l4.96-47.27h11.05l-1.77,17.02h13.65l1.77-17.02h11.05l-4.96,47.27H28.16l2.3-22.1H16.82
		l-2.3,22.1H3.46z"/>
	<path class="st0" d="M50.2,145.43l4.96-47.27h11.05l-4.08,39.12h17.2l-0.89,8.15H50.2z"/>
	<path class="st0" d="M109.11,145.43l-1.06-11.23H97.12l-3.49,11.23h-10.1l15.96-47.27h14.89l5.91,47.27H109.11z M107.22,126.05
		l-1.77-19.03l-5.85,19.03H107.22z"/>
	<path class="st0" d="M145.1,145.97c-2.84,0-5.72-0.41-8.66-1.24c-2.94-0.83-5.7-1.99-8.3-3.49l2.84-8.33
		c2.52,1.58,5.13,2.79,7.83,3.63c2.7,0.85,5.45,1.27,8.24,1.27c2.17,0,3.83-0.48,4.99-1.45c1.16-0.96,1.82-2.24,1.98-3.81
		c0.16-1.65-0.43-2.88-1.77-3.66c-1.34-0.79-3.94-1.61-7.8-2.48c-4.65-1.14-8.07-2.72-10.25-4.73c-2.19-2.01-3.08-4.98-2.69-8.92
		c0.47-4.37,2.35-7.99,5.64-10.84c3.29-2.86,7.63-4.28,13.03-4.28c2.92,0,5.75,0.41,8.51,1.24c2.76,0.83,5.06,1.89,6.91,3.19
		l-2.3,7.92c-2.32-1.34-4.64-2.37-6.94-3.1c-2.3-0.73-4.52-1.09-6.65-1.09c-2.01,0-3.64,0.43-4.9,1.3
		c-1.26,0.87-1.99,2.15-2.19,3.84c-0.16,1.65,0.38,2.88,1.62,3.66c1.24,0.79,3.91,1.67,8.01,2.66c4.88,1.26,8.36,2.94,10.43,5.02
		c2.07,2.09,2.89,5.08,2.45,8.98c-0.47,4.41-2.43,7.97-5.88,10.67C155.8,144.62,151.09,145.97,145.1,145.97z"/>
	<path class="st0" d="M192.31,146.03c-5.75,0-10.03-1.39-12.82-4.17s-3.94-6.63-3.43-11.55l1.77-16.78
		c0.51-4.96,2.46-8.86,5.85-11.7c3.39-2.84,7.96-4.25,13.71-4.25c5.79,0,10.07,1.42,12.82,4.25c2.76,2.84,3.88,6.74,3.37,11.7
		l-1.77,16.78c-0.51,4.92-2.45,8.77-5.82,11.55S198.06,146.03,192.31,146.03z M193.14,137.87c2.6,0,4.45-0.61,5.55-1.83
		c1.1-1.22,1.83-3.45,2.19-6.68l1.54-14.89c0.35-3.35,0.12-5.64-0.71-6.88c-0.83-1.24-2.54-1.86-5.14-1.86
		c-2.6,0-4.46,0.62-5.58,1.86c-1.12,1.24-1.86,3.54-2.22,6.88l-1.54,14.89c-0.35,3.23-0.11,5.46,0.74,6.68
		C188.82,137.26,190.54,137.87,193.14,137.87z"/>
	<path class="st0" d="M243.42,145.43h-14.89l-5.91-47.27h11.11l3.6,38.23l11.7-38.23h10.34L243.42,145.43z"/>
	<path class="st0" d="M282.9,145.43l-1.06-11.23H270.9l-3.49,11.23h-10.1l15.96-47.27h14.89l5.91,47.27H282.9z M281.01,126.05
		l-1.77-19.03l-5.85,19.03H281.01z M274.39,92.25l6.14-11.82h13.47L281.3,92.25H274.39z"/>
	<path class="st0" d="M322.61,145.43l-8.16-35.04l-3.66,35.04h-9.28l4.96-47.27h14.95l8.09,32.62l3.43-32.62h9.28l-4.96,47.27
		H322.61z"/>
	<path class="st0" d="M348.25,145.43l0.89-8.15H359l3.25-30.96h-9.87l0.83-8.15H384l-0.83,8.15h-9.87l-3.25,30.96h9.87l-0.89,8.15
		H348.25z M362.37,92.25l6.15-11.82h13.47l-12.71,11.82H362.37z"/>
	<path class="st0" d="M420.22,145.43l1-9.81c0.47-4.33,1.56-7.61,3.25-9.84c1.69-2.23,4.23-3.73,7.62-4.52l9.93-2.36
		c2.01-0.47,3.44-1.14,4.28-2.01c0.85-0.87,1.35-2.09,1.51-3.66l0.24-1.95c0.2-2.13-0.16-3.66-1.06-4.61
		c-0.91-0.95-2.46-1.42-4.67-1.42c-2.25,0-3.87,0.54-4.88,1.62c-1,1.08-1.74,3.12-2.22,6.12l-10.99-0.59
		c0.75-5,2.61-8.73,5.58-11.17c2.97-2.44,7.4-3.66,13.27-3.66c5.83,0,10.08,1.17,12.73,3.52c2.66,2.34,3.75,5.72,3.28,10.13
		l-0.3,2.66c-0.39,3.66-1.4,6.45-3.01,8.36c-1.62,1.91-4.1,3.26-7.45,4.05l-9.99,2.36c-2.05,0.47-3.52,1.2-4.4,2.19
		c-0.89,0.99-1.43,2.54-1.62,4.67l-0.18,1.77h24.7l-0.89,8.15H420.22z"/>
	<path class="st0" d="M484.81,146.03c-5.71,0-9.92-1.76-12.62-5.29c-2.7-3.53-3.71-8.48-3.04-14.86l0.83-7.92
		c0.67-6.42,2.74-11.42,6.2-15.01c3.47-3.58,8.04-5.38,13.71-5.38c5.71,0,9.91,1.79,12.59,5.38c2.68,3.58,3.68,8.59,3.01,15.01
		l-0.83,7.92c-0.67,6.38-2.72,11.34-6.15,14.86C495.09,144.26,490.52,146.03,484.81,146.03z M485.63,138.34
		c2.72,0,4.62-1.03,5.7-3.1c1.08-2.07,1.88-5.54,2.39-10.43l0.59-5.79c0.51-4.92,0.44-8.45-0.21-10.58
		c-0.65-2.13-2.33-3.19-5.05-3.19c-2.72,0-4.63,1.06-5.73,3.19c-1.1,2.13-1.91,5.65-2.42,10.58l-0.59,5.79
		c-0.51,4.89-0.43,8.36,0.24,10.43S482.92,138.34,485.63,138.34z"/>
	<path class="st0" d="M513.7,145.43l1-9.81c0.47-4.33,1.56-7.61,3.25-9.84c1.69-2.23,4.23-3.73,7.62-4.52l9.93-2.36
		c2.01-0.47,3.44-1.14,4.28-2.01c0.85-0.87,1.35-2.09,1.51-3.66l0.24-1.95c0.2-2.13-0.16-3.66-1.06-4.61
		c-0.91-0.95-2.46-1.42-4.67-1.42c-2.25,0-3.87,0.54-4.88,1.62c-1,1.08-1.74,3.12-2.22,6.12l-10.99-0.59
		c0.75-5,2.61-8.73,5.58-11.17c2.97-2.44,7.4-3.66,13.27-3.66c5.83,0,10.08,1.17,12.73,3.52c2.66,2.34,3.75,5.72,3.28,10.13
		l-0.3,2.66c-0.39,3.66-1.4,6.45-3.01,8.36c-1.62,1.91-4.1,3.26-7.45,4.05l-9.99,2.36c-2.05,0.47-3.52,1.2-4.4,2.19
		c-0.89,0.99-1.43,2.54-1.62,4.67l-0.18,1.77h24.7l-0.89,8.15H513.7z"/>
	<path class="st0" d="M578.29,146.03c-5.71,0-9.92-1.76-12.62-5.29c-2.7-3.53-3.71-8.48-3.04-14.86l0.83-7.92
		c0.67-6.42,2.74-11.42,6.2-15.01c3.47-3.58,8.04-5.38,13.71-5.38c5.71,0,9.91,1.79,12.59,5.38c2.68,3.58,3.68,8.59,3.01,15.01
		l-0.83,7.92c-0.67,6.38-2.72,11.34-6.15,14.86C588.57,144.26,584,146.03,578.29,146.03z M579.12,138.34c2.72,0,4.62-1.03,5.7-3.1
		c1.08-2.07,1.88-5.54,2.39-10.43l0.59-5.79c0.51-4.92,0.44-8.45-0.21-10.58c-0.65-2.13-2.33-3.19-5.05-3.19
		c-2.72,0-4.63,1.06-5.73,3.19c-1.1,2.13-1.91,5.65-2.42,10.58l-0.59,5.79c-0.51,4.89-0.43,8.36,0.24,10.43
		S576.4,138.34,579.12,138.34z"/>
</g>
</svg>
