<?xml version="1.0" encoding="utf-8"?>
<!-- Generator: Adobe Illustrator 26.0.3, SVG Export Plug-In . SVG Version: 6.00 Build 0)  -->
<svg version="1.1" id="Vrstva_1" xmlns="http://www.w3.org/2000/svg" xmlns:xlink="http://www.w3.org/1999/xlink" x="0px" y="0px"
	 viewBox="0 0 806.1 194.2" style="enable-background:new 0 0 806.1 194.2;" xml:space="preserve">
<style type="text/css">
	.st0{fill:#002A70;}
</style>
<path id="Path_299" class="st0" d="M30,87.9H9.9L1.9,24h15l4.9,51.7L37.6,24h14L30,87.9z"/>
<path id="Path_300" class="st0" d="M83.3,87.9H68.3l2.6-24L55.6,24h15.5l8.7,28.1l15-28.1h14.5l-23.6,40L83.3,87.9z M74.1,16l8.3-16
	h18.2L83.4,16H74.1z"/>
<path id="Path_301" class="st0" d="M135,88.6c-4,0-7.9-0.6-11.7-1.7c-3.9-1.1-7.7-2.7-11.2-4.7l3.8-11.3c3.3,2.1,6.9,3.7,10.6,4.9
	c3.6,1.1,7.4,1.7,11.1,1.7c2.9,0,5.2-0.7,6.8-2c1.6-1.3,2.5-3.1,2.7-5.2c0.3-2-0.6-4-2.4-5c-1.8-1.1-5.3-2.2-10.5-3.4
	c-6.3-1.5-10.9-3.7-13.9-6.4c-3-2.7-4.2-6.7-3.6-12.1c0.5-5.7,3.3-11,7.6-14.7c4.4-3.9,10.3-5.8,17.6-5.8c3.9,0,7.8,0.6,11.5,1.7
	c3.3,0.9,6.5,2.4,9.3,4.3L159.6,40c-3-1.7-6.1-3.1-9.4-4.2c-2.9-1-5.9-1.4-9-1.5c-2.3-0.1-4.7,0.5-6.6,1.8c-1.7,1.2-2.8,3.1-3,5.2
	c-0.3,1.9,0.5,3.9,2.2,5c1.7,1.1,5.3,2.3,10.8,3.6c6.6,1.7,11.3,4,14.1,6.8s3.9,6.9,3.3,12.1c-0.5,5.7-3.4,11-8,14.4
	C149.5,86.8,143.1,88.6,135,88.6z"/>
<path id="Path_302" class="st0" d="M174.8,87.9l6.7-63.9h14.9l-5.5,52.9h23.3l-1.2,11L174.8,87.9z"/>
<path id="Path_303" class="st0" d="M224.6,87.9l6.7-63.9h41.3l-1.1,11h-26.4l-1.4,13.3h23.1l-1.1,11h-23.1l-1.8,17.6h26.4l-1.2,11
	H224.6z"/>
<path id="Path_304" class="st0" d="M281.2,87.9l6.7-63.9h24.7c7.5,0,13.1,2,16.8,6.1c3.7,4,5.2,9.4,4.6,16.1L331.9,66
	c-0.7,6.7-3.3,12-8,15.9s-10.6,6-18,6L281.2,87.9z M297.3,76.9h8.1c4.2,0,7-0.9,8.6-2.6s2.6-4.9,3-9.5l1.8-17.3
	c0.5-4.7,0.1-7.9-1-9.7c-1.2-1.8-3.8-2.7-8-2.7h-8.1L297.3,76.9z"/>
<path id="Path_305" class="st0" d="M362.2,60.4l-2.9,27.5h-14.9l6.7-63.9H366l-2.6,25.4h2.8L382.6,24h16.3l-21.2,29.5l14.2,34.4
	h-17.2l-9.6-27.5L362.2,60.4z"/>
<path id="Path_306" class="st0" d="M429.3,87.9h-14.9l2.6-24l-15.3-40h15.5l8.7,28.1l15-28.1h14.5l-23.6,40L429.3,87.9z"/>
<path id="Path_307" class="st0" d="M0,193.4l6.7-63.9h14.9l-2.4,23h18.5l2.4-23h14.9l-6.7,63.9H33.4l3.1-29.9H18.1l-3.1,29.9H0z"/>
<path id="Path_308" class="st0" d="M63.2,193.4l6.7-63.9h14.9l-5.5,52.9h23.3l-1.2,11L63.2,193.4z"/>
<path id="Path_309" class="st0" d="M142.9,193.4l-1.4-15.2h-14.8l-4.7,15.2h-13.7l21.6-63.9H150l8,63.9H142.9z M140.3,167.2
	l-2.4-25.7l-7.9,25.7H140.3z"/>
<path id="Path_310" class="st0" d="M191.5,194.1c-4,0-7.9-0.6-11.7-1.7c-3.9-1.1-7.7-2.7-11.2-4.7l3.8-11.3
	c3.3,2.1,6.9,3.7,10.6,4.9c3.6,1.1,7.4,1.7,11.1,1.7c2.9,0,5.2-0.7,6.8-2c1.6-1.3,2.5-3.1,2.7-5.2c0.3-2-0.6-4-2.4-5
	c-1.8-1.1-5.3-2.2-10.5-3.4c-6.3-1.5-10.9-3.7-13.9-6.4c-3-2.7-4.2-6.7-3.6-12.1c0.5-5.7,3.3-11,7.6-14.7c4.4-3.9,10.3-5.8,17.6-5.8
	c3.9,0,7.8,0.6,11.5,1.7c3.3,0.9,6.5,2.4,9.3,4.3l-3.1,10.7c-3-1.7-6.1-3.1-9.4-4.2c-2.9-1-5.9-1.5-9-1.5c-2.3-0.1-4.7,0.5-6.6,1.8
	c-1.7,1.2-2.8,3.1-3,5.2c-0.3,1.9,0.5,3.9,2.2,5c1.7,1.1,5.3,2.3,10.8,3.6c6.6,1.7,11.3,4,14.1,6.8c2.8,2.8,3.9,6.9,3.3,12.1
	c-0.5,5.7-3.4,11-8,14.4C206,192.3,199.6,194.1,191.5,194.1z"/>
<path id="Path_311" class="st0" d="M255.4,194.2c-7.8,0-13.6-1.9-17.3-5.6c-3.8-3.8-5.3-9-4.6-15.6l2.4-22.7
	c0.7-6.7,3.3-12,7.9-15.8c4.6-3.8,10.8-5.8,18.5-5.8c7.8,0,13.6,1.9,17.3,5.8c3.7,3.8,5.2,9.1,4.6,15.8l-2.4,22.7
	c-0.7,6.7-3.3,11.9-7.9,15.6C269.3,192.3,263.2,194.2,255.4,194.2z M256.5,183.1c3.5,0,6-0.8,7.5-2.5s2.5-4.7,3-9l2.1-20.1
	c0.5-4.5,0.2-7.6-1-9.3c-1.1-1.7-3.4-2.5-7-2.5c-3.5,0-6,0.8-7.6,2.5s-2.5,4.8-3,9.3l-2.1,20.1c-0.5,4.4-0.1,7.4,1,9
	C250.7,182.3,253,183.1,256.5,183.1L256.5,183.1z"/>
<path id="Path_312" class="st0" d="M324.5,193.4h-20.1l-8-63.9h15l4.9,51.7l15.8-51.7h14L324.5,193.4z"/>
<path id="Path_313" class="st0" d="M377.9,193.4l-1.4-15.2h-14.8l-4.7,15.2h-13.7l21.6-63.9H385l8,63.9H377.9z M375.3,167.2
	l-2.4-25.7l-7.9,25.7H375.3z M366.4,121.5l8.3-16h18.2l-17.2,16H366.4z"/>
<path id="Path_314" class="st0" d="M431.6,193.4l-11-47.4l-5,47.4H403l6.7-63.9H430l10.9,44.1l4.6-44.1h12.5l-6.7,63.9H431.6z"/>
<path id="Path_315" class="st0" d="M466.3,193.4l1.2-11h13.3l4.4-41.9h-13.4l1.1-11h41.6l-1.1,11h-13.3l-4.4,41.9h13.3l-1.2,11
	H466.3z M485.4,121.5l8.3-16h18.2l-17.2,16H485.4z"/>
<g>
	<path class="st0" d="M564.4,192.9l1.4-13.6c0.2-4.9,1.7-9.6,4.4-13.7c2.6-3.3,6.4-5.5,10.6-6.3l13.8-3.3c2.2-0.4,4.3-1.3,5.9-2.8
		c1.3-1.4,2-3.2,2.1-5.1l0.3-2.7c0.5-2.3-0.1-4.6-1.5-6.4c-1.8-1.5-4.1-2.2-6.4-1.9c-2.5-0.2-4.9,0.6-6.8,2.3
		c-1.8,2.5-2.8,5.4-3.1,8.5l-15.2-0.8c0.5-6,3.3-11.5,7.8-15.5c5.4-3.8,11.8-5.6,18.4-5.1c6.3-0.5,12.5,1.2,17.7,4.8
		c3.8,3.6,5.6,8.9,4.6,14.1l-0.4,3.7c-0.2,4.2-1.8,8.3-4.4,11.6c-2.7,2.9-6.3,4.9-10.3,5.6l-13.9,3.3c-4.9,0.3-8.7,4.6-8.4,9.5
		l-0.2,2.4h34.3l-1.2,11.3L564.4,192.9z"/>
	<path class="st0" d="M647.9,193.9c-6.7,0.5-13.2-2.2-17.5-7.3c-4.1-6-5.6-13.4-4.4-20.6l1.1-11c0.5-7.7,3.5-15.1,8.7-20.8
		c5-5.1,11.9-7.8,19-7.5c6.7-0.5,13.2,2.2,17.5,7.5c4,6.1,5.6,13.6,4.4,20.8l-1.1,11c-0.5,7.7-3.6,14.9-8.7,20.6
		C661.9,191.6,655,194.3,647.9,193.9z M649.1,183.3c3.3,0.3,6.4-1.4,7.9-4.4c1.9-4.6,3-9.5,3.3-14.4l0.8-8c0.8-4.9,0.7-9.9-0.3-14.7
		c-0.9-3-3.9-4.8-7-4.4c-3.3-0.3-6.4,1.4-8,4.4c-1.9,4.7-3.1,9.6-3.4,14.7l-0.8,8c-0.8,4.8-0.7,9.7,0.3,14.4c1.1,2.9,4,4.6,7.1,4.1
		L649.1,183.3z"/>
	<path class="st0" d="M682.2,192.9l1.4-13.6c0.2-4.9,1.7-9.6,4.4-13.7c2.7-3.3,6.4-5.5,10.6-6.3l13.8-3.3c2.2-0.4,4.3-1.3,5.9-2.8
		c1.3-1.4,2-3.2,2.1-5.1l0.3-2.7c0.5-2.3-0.1-4.6-1.5-6.4c-4-2.6-9.2-2.5-13.1,0.3c-1.8,2.5-2.8,5.4-3.1,8.5l-15.2-0.8
		c0.5-6,3.3-11.5,7.7-15.5c5.4-3.8,11.9-5.5,18.4-5.1c6.3-0.5,12.5,1.2,17.7,4.8c3.7,3.7,5.4,9,4.4,14.1l-0.4,3.7
		c-0.3,4.2-1.8,8.3-4.4,11.6c-2.7,2.9-6.4,4.9-10.3,5.6l-13.8,3.3c-2.3,0.4-4.4,1.4-6.1,3c-1.4,1.9-2.2,4.1-2.3,6.5l-0.3,2.4h34.3
		l-1.3,11.3H682.2z"/>
	<path class="st0" d="M746.5,192.9l1.3-11.3h15.1l4.4-39.8H765c-0.9,3.5-3,6.6-5.9,8.7c-2.6,2-5.7,3.3-9,3.5l0.6-11.3
		c3.8-0.5,7.5-2.1,10.5-4.6c3.5-2.8,6.1-6.5,7.6-10.7H784l-5.8,54.2h13.7l-1.2,11.3L746.5,192.9z"/>
</g>
</svg>
