<svg xmlns="http://www.w3.org/2000/svg" width="260.471" height="47.729" viewBox="0 0 260.471 47.729">
  <g id="Group_217" data-name="Group 217" transform="translate(-322.199 -785.018)">
    <path id="Path_272" data-name="Path 272" d="M348.8,832.109l-1.106-11.044H336.329L332.7,832.109H322.2l16.587-46.5h15.479l6.144,46.5Zm-1.966-19.065-1.843-18.716-6.082,18.716Z" transform="translate(0 0.023)" fill="#003583"/>
    <path id="Path_273" data-name="Path 273" d="M377.885,832.109H366.4l5.161-46.5h21.069q7.126,0,10.6,3.284t2.794,9.445l-.429,4.069a14.946,14.946,0,0,1-3.072,7.875,13.423,13.423,0,0,1-6.818,4.389l8.293,17.438H390.971l-7.925-16.624h-3.318Zm2.7-24.587h7.8a6.313,6.313,0,0,0,3.993-1.076q1.35-1.074,1.721-4.1l.369-3.6q.368-3.138-.737-4.126a5.614,5.614,0,0,0-3.749-.989h-7.8Z" transform="translate(-1.069 0.023)" fill="#003583"/>
    <path id="Path_274" data-name="Path 274" d="M432.8,832.747q-10.32,0-14.59-4.1t-3.47-11.379l1.842-16.531a16.427,16.427,0,0,1,5.99-11.525q5.19-4.19,15.511-4.19,9.459,0,13.637,4.045t3.564,12.661l-11.549.581q.306-5.355-1.168-7.3t-5.589-1.949q-4.608,0-6.542,1.833t-2.489,6.84l-1.6,14.61q-.554,4.832.952,6.607t6.112,1.774q4.115,0,6.02-1.891t2.827-7.131l11.425.582q-1.35,8.5-6.388,12.485T432.8,832.747Z" transform="translate(-2.26 0)" fill="#003583"/>
    <path id="Path_275" data-name="Path 275" d="M459.878,832.109l5.161-46.5h11.487l-1.842,16.741h14.189l1.844-16.741H502.2l-5.161,46.5H485.557l2.4-21.739h-14.19l-2.4,21.739Z" transform="translate(-3.427 0.023)" fill="#003583"/>
    <path id="Path_276" data-name="Path 276" d="M506.619,832.109l.921-8.021H517.8l3.379-30.458h-10.26l.861-8.022h32l-.86,8.022h-10.26l-3.379,30.458h10.26l-.922,8.021Z" transform="translate(-4.333 0.023)" fill="#003583"/>
    <path id="Path_277" data-name="Path 277" d="M571.5,832.109h-15.48l-6.143-46.5h11.549l3.747,37.608,12.164-37.608h10.749Z" transform="translate(-5.412 0.023)" fill="#003583"/>
  </g>
</svg>
