<svg xmlns="http://www.w3.org/2000/svg" width="806.146" height="194.173" viewBox="0 0 806.146 194.173">
  <g id="Group_219" data-name="Group 219" transform="translate(-931.548 -768.603)">
    <path id="Path_299" data-name="Path 299" d="M961.593,856.5H941.457l-7.991-63.925h15.022l4.875,51.7,15.82-51.7h13.985Z" fill="#002a70"/>
    <path id="Path_300" data-name="Path 300" d="M1014.81,856.5H999.867l2.556-23.972-15.261-39.953h15.5l8.71,28.127,15.022-28.127h14.543l-23.572,39.953Zm-9.189-71.916,8.309-15.981h18.219l-17.18,15.981Z" fill="#002a70"/>
    <path id="Path_301" data-name="Path 301" d="M1066.588,857.22a43,43,0,0,1-11.706-1.679,49.02,49.02,0,0,1-11.226-4.714l3.835-11.266a45.864,45.864,0,0,0,10.587,4.914,37.015,37.015,0,0,0,11.147,1.717q4.394,0,6.752-1.958a7.382,7.382,0,0,0,2.677-5.153,4.766,4.766,0,0,0-2.4-4.955q-2.718-1.6-10.547-3.356-9.43-2.316-13.865-6.392t-3.635-12.067a21.862,21.862,0,0,1,7.631-14.662q6.672-5.793,17.619-5.794a39.809,39.809,0,0,1,11.506,1.679,32.4,32.4,0,0,1,9.35,4.315l-3.117,10.708a47.635,47.635,0,0,0-9.389-4.2,29.786,29.786,0,0,0-8.989-1.478,11.478,11.478,0,0,0-6.632,1.758,6.933,6.933,0,0,0-2.957,5.194,4.849,4.849,0,0,0,2.2,4.954q2.517,1.6,10.828,3.6,9.908,2.559,14.1,6.792t3.316,12.145a20.357,20.357,0,0,1-7.951,14.424Q1078.733,857.22,1066.588,857.22Z" fill="#002a70"/>
    <path id="Path_302" data-name="Path 302" d="M1106.3,856.5l6.712-63.925h14.944l-5.514,52.9h23.252l-1.2,11.026Z" fill="#002a70"/>
    <path id="Path_303" data-name="Path 303" d="M1156.162,856.5l6.713-63.925h41.31l-1.119,11.027H1176.7l-1.438,13.264h23.092l-1.117,11.028H1174.14l-1.838,17.58h26.369l-1.2,11.026Z" fill="#002a70"/>
    <path id="Path_304" data-name="Path 304" d="M1212.736,856.5l6.711-63.925h24.691q11.186,0,16.781,6.073t4.555,16.141L1263.4,834.6q-1.039,9.992-7.951,15.942t-18.018,5.953Zm16.14-11.026h8.071q6.234,0,8.551-2.6t3.035-9.549l1.838-17.26q.72-7.029-1.037-9.748t-7.993-2.717h-8.07Z" fill="#002a70"/>
    <path id="Path_305" data-name="Path 305" d="M1293.759,829.013l-2.877,27.487h-14.941l6.711-63.925h14.943l-2.636,25.41h2.8l16.381-25.41h16.3l-21.176,29.486,14.223,34.439H1306.3l-9.588-27.487Z" fill="#002a70"/>
    <path id="Path_306" data-name="Path 306" d="M1360.8,856.5h-14.941l2.557-23.972-15.262-39.953h15.5l8.709,28.127,15.021-28.127h14.543l-23.572,39.953Z" fill="#002a70"/>
    <path id="Path_307" data-name="Path 307" d="M931.548,961.977l6.712-63.924H953.2l-2.4,23.012h18.458l2.4-23.012H986.6l-6.712,63.924H964.949l3.116-29.884H949.607l-3.117,29.884Z" fill="#002a70"/>
    <path id="Path_308" data-name="Path 308" d="M994.753,961.977l6.713-63.924h14.942l-5.514,52.9h23.254l-1.2,11.027Z" fill="#002a70"/>
    <path id="Path_309" data-name="Path 309" d="M1074.419,961.977l-1.439-15.182H1058.2l-4.714,15.182H1039.82l21.574-63.924h20.137l7.99,63.924Zm-2.557-26.208-2.4-25.731-7.91,25.731Z" fill="#002a70"/>
    <path id="Path_310" data-name="Path 310" d="M1123.082,962.7a43,43,0,0,1-11.707-1.677,49.09,49.09,0,0,1-11.227-4.715l3.836-11.267a45.677,45.677,0,0,0,10.587,4.914,36.954,36.954,0,0,0,11.147,1.719q4.393,0,6.752-1.958a7.389,7.389,0,0,0,2.677-5.154,4.769,4.769,0,0,0-2.4-4.955q-2.718-1.6-10.547-3.355-9.43-2.317-13.865-6.393t-3.635-12.066a21.856,21.856,0,0,1,7.631-14.663q6.671-5.791,17.619-5.793a39.831,39.831,0,0,1,11.507,1.679,32.393,32.393,0,0,1,9.348,4.314l-3.116,10.707a47.739,47.739,0,0,0-9.389-4.194,29.759,29.759,0,0,0-8.989-1.479,11.484,11.484,0,0,0-6.633,1.758,6.938,6.938,0,0,0-2.957,5.194,4.851,4.851,0,0,0,2.2,4.955q2.517,1.6,10.828,3.595,9.907,2.558,14.1,6.792t3.316,12.146a20.348,20.348,0,0,1-7.951,14.423Q1135.225,962.7,1123.082,962.7Z" fill="#002a70"/>
    <path id="Path_311" data-name="Path 311" d="M1186.925,962.776q-11.666,0-17.34-5.632t-4.633-15.623l2.4-22.693q1.038-10.068,7.91-15.821t18.539-5.754q11.745,0,17.34,5.754t4.555,15.821l-2.4,22.693q-1.039,9.992-7.871,15.623T1186.925,962.776Zm1.119-11.026q5.274,0,7.512-2.478t2.955-9.029l2.078-20.137q.721-6.791-.959-9.308t-6.951-2.518q-5.273,0-7.551,2.518t-3,9.308l-2.076,20.137q-.72,6.552,1,9.029T1188.044,951.75Z" fill="#002a70"/>
    <path id="Path_312" data-name="Path 312" d="M1256.044,961.977h-20.136l-7.99-63.924h15.021l4.875,51.7,15.82-51.7h13.985Z" fill="#002a70"/>
    <path id="Path_313" data-name="Path 313" d="M1309.421,961.977l-1.437-15.182H1293.2l-4.715,15.182h-13.664l21.574-63.924h20.137l7.99,63.924Zm-2.556-26.208-2.4-25.731-7.91,25.731Zm-8.949-45.708,8.308-15.981h18.219l-17.18,15.981Z" fill="#002a70"/>
    <path id="Path_314" data-name="Path 314" d="M1363.117,961.977l-11.026-47.384-4.955,47.384h-12.545l6.711-63.924h20.217l10.947,44.108,4.635-44.108h12.545l-6.711,63.924Z" fill="#002a70"/>
    <path id="Path_315" data-name="Path 315" d="M1397.8,961.977l1.2-11.027h13.345l4.4-41.871H1403.39l1.117-11.026h41.633l-1.119,11.026h-13.346l-4.394,41.871h13.345l-1.2,11.027Zm19.1-71.916,8.311-15.981h18.218l-17.181,15.981Z" fill="#002a70"/>
    <path id="Path_316" data-name="Path 316" d="M1495.121,961.977l1.357-13.264q.961-8.79,4.4-13.3t10.308-6.112l13.424-3.2q4.076-.96,5.793-2.717a7.99,7.99,0,0,0,2.039-4.954l.318-2.637q.4-4.316-1.437-6.233t-6.313-1.917q-4.555,0-6.591,2.2t-3,8.27l-14.862-.8q1.518-10.148,7.551-15.1t17.939-4.955q11.825,0,17.219,4.755t4.436,13.7l-.4,3.6q-.8,7.431-4.074,11.306t-10.068,5.474l-13.5,3.2q-4.158.96-5.953,2.956t-2.2,6.314l-.24,2.4h33.4l-1.2,11.027Z" fill="#002a70"/>
    <path id="Path_317" data-name="Path 317" d="M1582.457,962.776q-11.587,0-17.061-7.151t-4.113-20.1l1.117-10.707q1.359-13.023,8.391-20.3t18.539-7.271q11.583,0,17.019,7.271t4.074,20.3l-1.117,10.707q-1.359,12.945-8.31,20.1T1582.457,962.776Zm1.119-10.387q5.512,0,7.711-4.2t3.236-14.1l.8-7.83q1.036-9.988-.279-14.3t-6.833-4.314q-5.512,0-7.751,4.314t-3.276,14.3l-.8,7.83q-1.039,9.909.321,14.1T1583.576,952.389Z" fill="#002a70"/>
    <path id="Path_318" data-name="Path 318" d="M1626.884,961.977l1.2-11.027h14.7l4.076-38.834h-2.078a15.877,15.877,0,0,1-5.793,8.39,16.474,16.474,0,0,1-8.75,3.436l.56-11.027a20.18,20.18,0,0,0,10.227-4.475,22.888,22.888,0,0,0,7.432-10.387h14.783l-5.514,52.9h13.344l-1.2,11.027Z" fill="#002a70"/>
    <path id="Path_319" data-name="Path 319" d="M1708.707,962.776q-11.587,0-16.34-4.075t-5.315-12.545l15.742-1.838q.32,4.956,2.159,6.513t5.832,1.558q4.872,0,6.912-2.757t2.836-10.268l.72-6.872h-1.039a14.735,14.735,0,0,1-5.673,4.035,22.031,22.031,0,0,1-8.551,1.479q-9.428,0-13.584-4.715t-3.115-14.3l.16-1.759q.957-9.348,7.39-14.662t18.9-5.314q12.3,0,17.619,5.834t4.115,17.019l-2,19.338q-1.119,10.709-7.191,17.02T1708.707,962.776Zm3.755-33.96q5.113,0,7.393-2.556t2.836-7.911l.16-1.039q.477-5.034-1.318-7.352t-6.912-2.316q-5.034,0-7.313,2.4t-2.756,7.272l-.16,1.039q-.559,5.354,1.238,7.911T1712.462,928.816Z" fill="#002a70"/>
  </g>
</svg>
