<svg xmlns="http://www.w3.org/2000/svg" xmlns:xlink="http://www.w3.org/1999/xlink" width="823.745" height="88.146" viewBox="0 0 823.745 88.146">
  <defs>
    <clipPath id="clip-path">
      <path id="Path_214" data-name="Path 214" d="M0,60.51H823.744V-27.636H0Z" transform="translate(0 27.636)" fill="#003583"/>
    </clipPath>
  </defs>
  <g id="nominacni_listek_nadpis" transform="translate(0 27.636)">
    <g id="Group_221" data-name="Group 221" transform="translate(0.002 -1.518)">
      <path id="Path_212" data-name="Path 212" d="M27.971,0l-4.44,42.271L13.041,0H-6.342l-6.433,61.261H-.75L4,15.852,14.562,61.261H33.556L40,0Z" transform="translate(12.775)" fill="#003583"/>
    </g>
    <g id="Group_223" data-name="Group 223" transform="translate(0 -27.636)" clip-path="url(#clip-path)">
      <g id="Group_222" data-name="Group 222" transform="translate(58.955 25.35)">
        <path id="Path_213" data-name="Path 213" d="M14.561,43.107q-11.176,0-16.617-5.4T-6.5,22.733L-4.193.987q.986-9.64,7.582-15.163,6.578-5.512,17.762-5.512,11.257,0,16.617,5.512T42.135.987L39.829,22.733q-.986,9.588-7.54,14.972-6.54,5.4-17.727,5.4m1.072-10.57q5.057,0,7.2-2.373t2.832-8.65l1.987-19.3q.7-6.507-.919-8.924c-1.068-1.6-3.288-2.414-6.663-2.414s-5.776.81-7.231,2.414S10.428-2.123,9.969,2.215l-1.987,19.3q-.7,6.272.96,8.65,1.641,2.378,6.692,2.373" transform="translate(6.651 19.688)" fill="#003583"/>
      </g>
    </g>
    <g id="Group_224" data-name="Group 224" transform="translate(114.113 -1.518)">
      <path id="Path_215" data-name="Path 215" d="M28.5,0,16.477,32.7,11.341,0H-6.577l-6.44,61.261H-.992L3.683,16.994l4.9,28.951H21.369L32.329,16.617,27.653,61.261H39.674L46.107,0Z" transform="translate(13.017)" fill="#003583"/>
    </g>
    <g id="Group_225" data-name="Group 225" transform="translate(175.271 -1.518)">
      <path id="Path_216" data-name="Path 216" d="M4.421,0,3.346,10.564h12.78L11.919,50.7H-.868L-2.019,61.261H37.888L39.03,50.7H26.247l4.21-40.134H43.244L44.319,0Z" transform="translate(2.019)" fill="#003583"/>
    </g>
    <g id="Group_226" data-name="Group 226" transform="translate(223.634 -1.518)">
      <path id="Path_217" data-name="Path 217" d="M27.969,0,23.526,42.271,13.039,0H-6.341l-6.433,61.261H-.749L4,15.852l10.57,45.409H33.554L39.994,0Z" transform="translate(12.774)" fill="#003583"/>
    </g>
    <g id="Group_227" data-name="Group 227" transform="translate(276.094 -1.518)">
      <path id="Path_218" data-name="Path 218" d="M14.193,0-6.482,61.261H6.611l4.523-14.547H25.3l1.384,14.547H41.157L33.5,0ZM21.93,11.482l2.3,24.658H14.349Z" transform="translate(6.482)" fill="#003583"/>
    </g>
    <g id="Group_229" data-name="Group 229" transform="translate(0 -27.636)" clip-path="url(#clip-path)">
      <g id="Group_228" data-name="Group 228" transform="translate(330.851)">
        <path id="Path_219" data-name="Path 219" d="M15.56,60.51q-12.855,0-18.18-5.4T-6.951,40.135l2.3-21.746q.986-9.64,7.457-15.163T22.153-2.286q11.789,0,17,5.32t4.443,16.659l-14.4.769q.378-7.057-1.454-9.613T20.772,8.278q-5.741,0-8.159,2.414t-3.1,9L7.526,38.917q-.7,6.354,1.187,8.691t7.617,2.332q5.129,0,7.5-2.488t3.524-9.38L41.6,38.84q-1.674,11.181-7.958,16.426T15.56,60.51M16.945-9.484,6.142-21.509l4.976-6.054,12.41,8.2L37.39-27.636l3.671,6.127L27.891-9.484Z" transform="translate(7.107 27.636)" fill="#003583"/>
      </g>
    </g>
    <g id="Group_230" data-name="Group 230" transform="translate(386.136 -1.518)">
      <path id="Path_221" data-name="Path 221" d="M27.963,0l-4.44,42.271L13.032,0H-6.341l-6.43,61.261H-.746L4,15.852,14.57,61.261H33.557L39.987,0Z" transform="translate(12.771)" fill="#003583"/>
    </g>
    <g id="Group_231" data-name="Group 231" transform="translate(440.869 -24.497)">
      <path id="Path_222" data-name="Path 222" d="M18.033,0,10.069,15.313h8.966L35.5,0ZM-1.8,22.977-2.878,33.544h12.8L5.709,73.675H-7.085L-8.236,84.239h39.9l1.145-10.564H20.026L24.24,33.544H37.023L38.1,22.977Z" transform="translate(8.236)" fill="#003583"/>
    </g>
    <g id="Group_232" data-name="Group 232" transform="translate(525.723 -1.518)">
      <path id="Path_223" data-name="Path 223" d="M4.416,0-2.017,61.261H34.6L35.737,50.7H13.452L18.737,0Z" transform="translate(2.017)" fill="#003583"/>
    </g>
    <g id="Group_233" data-name="Group 233" transform="translate(569.121 -24.497)">
      <path id="Path_224" data-name="Path 224" d="M18.033,0,10.069,15.313h8.953L35.486,0ZM-1.806,22.977-2.878,33.544H9.909L5.7,73.675H-7.085L-8.236,84.239h39.9l1.151-10.564H20.023L24.23,33.544H37.023l1.068-10.567Z" transform="translate(8.236)" fill="#003583"/>
    </g>
    <g id="Group_235" data-name="Group 235" transform="translate(0 -27.636)" clip-path="url(#clip-path)">
      <g id="Group_234" data-name="Group 234" transform="translate(617.909 25.425)">
        <path id="Path_225" data-name="Path 225" d="M15.088,43A41.2,41.2,0,0,1,3.864,41.394,47.022,47.022,0,0,1-6.891,36.877l3.674-10.8A43.789,43.789,0,0,0,6.936,30.789a35.45,35.45,0,0,0,10.682,1.646,9.912,9.912,0,0,0,6.472-1.872,7.113,7.113,0,0,0,2.564-4.944,4.558,4.558,0,0,0-2.3-4.749q-2.593-1.521-10.1-3.215Q5.2,15.429.958,11.53T-2.525-.035a20.949,20.949,0,0,1,7.31-14.053q6.4-5.55,16.889-5.553A37.98,37.98,0,0,1,32.7-18.027a31.01,31.01,0,0,1,8.966,4.13L38.678-3.633a46.074,46.074,0,0,0-9-4.025,28.735,28.735,0,0,0-8.618-1.41A11.039,11.039,0,0,0,14.705-7.39a6.635,6.635,0,0,0-2.832,4.979,4.64,4.64,0,0,0,2.105,4.749Q16.394,3.869,24.35,5.786q9.5,2.45,13.517,6.507,4.033,4.062,3.183,11.642a19.527,19.527,0,0,1-7.626,13.827Q26.722,43,15.088,43" transform="translate(6.891 19.641)" fill="#003583"/>
      </g>
    </g>
    <g id="Group_236" data-name="Group 236" transform="translate(674.205 -1.518)">
      <path id="Path_227" data-name="Path 227" d="M.74,0-.338,10.564H15.587l-5.355,50.7H24.553l5.365-50.7h16L46.995,0Z" transform="translate(0.338)" fill="#003583"/>
    </g>
    <g id="Group_237" data-name="Group 237" transform="translate(721.838 -1.518)">
      <path id="Path_228" data-name="Path 228" d="M4.418,0-2.018,61.261H37.57L38.722,50.7H13.454l1.754-16.853H37.344l1.075-10.57H16.287l1.378-12.71H42.938L44.007,0Z" transform="translate(2.018)" fill="#003583"/>
    </g>
    <g id="Group_238" data-name="Group 238" transform="translate(771.516 -1.518)">
      <path id="Path_229" data-name="Path 229" d="M25.127,0,9.428,24.352H6.746L9.275,0H-5.046l-6.43,61.261H2.848L5.6,34.916H8.436l9.189,26.346H34.086l-13.629-33L40.753,0Z" transform="translate(11.476)" fill="#003583"/>
    </g>
  </g>
</svg>
