<svg xmlns="http://www.w3.org/2000/svg" width="454.862" height="64.031" viewBox="0 0 454.862 64.031">
  <path id="text_hlasujte" d="M3.987,0l6.567-62.545h14.62L22.829-40.029h18.06l2.345-22.516h14.62L51.287,0H36.667l3.049-29.24H21.656L18.607,0ZM61.529,0,68.1-62.545h14.62L77.322-10.789h22.751L98.9,0Zm71.145-25.644-2.345-25.175-7.74,25.175ZM135.176,0l-1.407-14.855H119.305L114.693,0H101.324l21.109-62.545h19.7L149.953,0Zm43.313.7A42.09,42.09,0,0,1,167.035-.938a48.048,48.048,0,0,1-10.985-4.613L159.8-16.575a44.841,44.841,0,0,0,10.359,4.808,36.216,36.216,0,0,0,10.906,1.681q4.3,0,6.606-1.915a7.225,7.225,0,0,0,2.619-5.043,4.661,4.661,0,0,0-2.345-4.847q-2.658-1.564-10.32-3.284-9.225-2.267-13.565-6.255t-3.557-11.805a21.4,21.4,0,0,1,7.466-14.346q6.528-5.668,17.239-5.668a38.969,38.969,0,0,1,11.258,1.642,31.694,31.694,0,0,1,9.147,4.222l-3.049,10.476a46.524,46.524,0,0,0-9.186-4.1,29.135,29.135,0,0,0-8.8-1.446,11.226,11.226,0,0,0-6.489,1.72,6.784,6.784,0,0,0-2.893,5.082,4.745,4.745,0,0,0,2.15,4.847q2.463,1.564,10.594,3.518,9.695,2.5,13.8,6.645t3.245,11.884a19.912,19.912,0,0,1-7.779,14.112Q190.373.7,178.489.7Zm58.167.078q-12.431,0-17.513-5.2t-3.909-16.77l4.378-41.358h14.62l-4.222,40.42q-.7,6.567.977,9.03t6.841,2.463q5.16,0,7.349-2.463t2.893-9.03l4.222-40.42h14.62l-4.378,41.358q-1.173,11.571-7.349,16.77T236.656.782Zm53.476,0Q277.7.782,273.6-4.183t-3.245-17.786l14.7-.86q-.391,7.9.821,10.359t5.355,2.463q3.987,0,5.473-2.072t2.189-8.874l3.284-30.8H285.129l1.095-10.789h31.664l-4.456,42.218q-1.095,10.711-6.45,15.91T290.133.782ZM334.7,0l5.473-51.756H323.907L325-62.545h47.222l-1.095,10.789h-16.34L349.316,0Zm38,0,6.567-62.545h40.42l-1.095,10.789h-25.8l-1.407,12.978h22.595l-1.095,10.789H390.284l-1.8,17.2h25.8L413.113,0Zm66.845-23.455,2.111-39.091h17.2l-6.02,39.091ZM444.073.782q-5.082,0-7.545-1.6a4.775,4.775,0,0,1-2.072-4.965l.235-2.189a6.175,6.175,0,0,1,3.127-5.082,15.771,15.771,0,0,1,7.9-1.642q5.082,0,7.505,1.642a5.1,5.1,0,0,1,2.111,5.082L455.1-5.785a6.193,6.193,0,0,1-3.245,4.965A15.939,15.939,0,0,1,444.073.782Z" transform="translate(-3.987 63.249)" fill="#003583"/>
</svg>
