<?xml version="1.0" encoding="utf-8"?>
<!-- Generator: Adobe Illustrator 24.0.2, SVG Export Plug-In . SVG Version: 6.00 Build 0)  -->
<svg version="1.1" id="Vrstva_1" xmlns="http://www.w3.org/2000/svg" xmlns:xlink="http://www.w3.org/1999/xlink" x="0px" y="0px"
	 viewBox="0 0 511.79 194.4" style="enable-background:new 0 0 511.79 194.4;" xml:space="preserve">
<style type="text/css">
	.st0{fill:#003682;}
</style>
<g>
	<path class="st0" d="M30.05,88.12H10.08L2.15,24.7h14.9l4.84,51.29L37.58,24.7h13.87L30.05,88.12z"/>
	<path class="st0" d="M82.85,88.12H68.03l2.53-23.78L55.42,24.7H70.8l8.64,27.9l14.9-27.9h14.43L85.39,64.34L82.85,88.12z
		 M73.73,16.77l8.25-15.85h18.08L83.01,16.77H73.73z"/>
	<path class="st0" d="M134.22,88.83c-3.8,0-7.68-0.55-11.61-1.66c-3.94-1.11-7.65-2.67-11.14-4.68l3.8-11.18
		c3.38,2.11,6.88,3.74,10.51,4.88c3.62,1.14,7.3,1.7,11.06,1.7c2.91,0,5.14-0.65,6.7-1.94c1.56-1.3,2.44-3,2.66-5.12
		c0.21-2.22-0.59-3.86-2.38-4.91c-1.8-1.05-5.28-2.16-10.46-3.33c-6.24-1.53-10.82-3.65-13.75-6.34c-2.93-2.7-4.14-6.69-3.61-11.97
		c0.64-5.87,3.16-10.72,7.57-14.55c4.41-3.83,10.24-5.75,17.48-5.75c3.91,0,7.72,0.56,11.42,1.67c3.7,1.11,6.79,2.54,9.28,4.28
		l-3.09,10.62c-3.12-1.8-6.22-3.18-9.31-4.16c-3.09-0.98-6.06-1.47-8.92-1.47c-2.7,0-4.89,0.58-6.58,1.74
		c-1.69,1.16-2.67,2.88-2.93,5.15c-0.21,2.22,0.51,3.86,2.18,4.92c1.66,1.06,5.24,2.25,10.74,3.57c6.55,1.69,11.22,3.94,13.99,6.74
		c2.77,2.8,3.87,6.82,3.29,12.05c-0.64,5.92-3.26,10.69-7.89,14.31C148.58,87.02,142.25,88.83,134.22,88.83z"/>
	<path class="st0" d="M173.62,88.12l6.66-63.42h14.82l-5.47,52.48h23.07l-1.19,10.94H173.62z"/>
	<path class="st0" d="M223.09,88.12l6.66-63.42h40.99l-1.11,10.94h-26.16l-1.43,13.16h22.91l-1.11,10.94h-22.91l-1.82,17.44h26.16
		l-1.19,10.94H223.09z"/>
	<path class="st0" d="M279.21,88.12l6.66-63.42h24.5c7.4,0,12.95,2.01,16.65,6.03c3.7,4.02,5.2,9.35,4.52,16.01l-2.06,19.66
		c-0.69,6.61-3.32,11.88-7.89,15.82c-4.57,3.94-10.53,5.9-17.88,5.9H279.21z M295.23,77.18h8.01c4.12,0,6.95-0.86,8.48-2.58
		c1.53-1.72,2.54-4.88,3.01-9.47l1.82-17.12c0.48-4.65,0.13-7.87-1.03-9.67c-1.16-1.8-3.8-2.69-7.93-2.69h-8.01L295.23,77.18z"/>
	<path class="st0" d="M359.6,60.85l-2.86,27.27h-14.82l6.66-63.42h14.82l-2.62,25.21h2.77l16.25-25.21h16.17l-21.01,29.25
		l14.11,34.17h-17.05l-9.51-27.27H359.6z"/>
	<path class="st0" d="M426.11,88.12h-14.82l2.53-23.78L398.68,24.7h15.38l8.64,27.9l14.9-27.9h14.43l-23.39,39.63L426.11,88.12z"/>
	<path class="st0" d="M0.24,192.76l6.66-63.42h14.82l-2.38,22.83h18.31l2.38-22.83h14.82l-6.66,63.42H33.38l3.09-29.65H18.16
		l-3.09,29.65H0.24z"/>
	<path class="st0" d="M62.95,192.76l6.66-63.42h14.82l-5.47,52.48h23.07l-1.19,10.94H62.95z"/>
	<path class="st0" d="M141.99,192.76l-1.43-15.06H125.9l-4.68,15.06h-13.55l21.4-63.42h19.98l7.93,63.42H141.99z M139.45,166.76
		l-2.38-25.53l-7.85,25.53H139.45z"/>
	<path class="st0" d="M190.27,193.48c-3.8,0-7.68-0.55-11.61-1.66c-3.94-1.11-7.65-2.67-11.14-4.68l3.8-11.18
		c3.38,2.11,6.88,3.74,10.51,4.88c3.62,1.14,7.3,1.7,11.06,1.7c2.91,0,5.14-0.65,6.7-1.94c1.56-1.3,2.44-3,2.66-5.12
		c0.21-2.22-0.59-3.86-2.38-4.91c-1.8-1.05-5.28-2.16-10.46-3.33c-6.24-1.53-10.82-3.65-13.75-6.34c-2.93-2.7-4.14-6.69-3.61-11.97
		c0.64-5.87,3.16-10.72,7.57-14.55c4.41-3.83,10.24-5.75,17.48-5.75c3.91,0,7.72,0.56,11.42,1.67c3.7,1.11,6.79,2.54,9.28,4.28
		l-3.09,10.62c-3.12-1.8-6.22-3.18-9.31-4.16c-3.09-0.98-6.06-1.47-8.92-1.47c-2.7,0-4.89,0.58-6.58,1.74
		c-1.69,1.16-2.67,2.88-2.93,5.15c-0.21,2.22,0.51,3.86,2.18,4.92c1.66,1.06,5.24,2.25,10.74,3.57c6.55,1.69,11.22,3.94,13.99,6.74
		c2.77,2.8,3.87,6.82,3.29,12.05c-0.64,5.92-3.26,10.69-7.89,14.31C204.63,191.67,198.3,193.48,190.27,193.48z"/>
	<path class="st0" d="M253.61,193.56c-7.72,0-13.45-1.86-17.21-5.59c-3.75-3.73-5.28-8.89-4.6-15.5l2.38-22.51
		c0.68-6.66,3.3-11.89,7.85-15.69c4.55-3.81,10.67-5.71,18.39-5.71c7.77,0,13.5,1.9,17.2,5.71c3.7,3.8,5.21,9.04,4.52,15.69
		l-2.38,22.51c-0.68,6.61-3.29,11.77-7.81,15.5C267.44,191.69,261.32,193.56,253.61,193.56z M254.71,182.62
		c3.49,0,5.97-0.82,7.46-2.46c1.48-1.64,2.46-4.63,2.93-8.96l2.06-19.98c0.48-4.49,0.16-7.57-0.95-9.24c-1.11-1.66-3.41-2.5-6.9-2.5
		s-5.99,0.83-7.49,2.5c-1.51,1.66-2.5,4.74-2.97,9.24l-2.06,19.98c-0.48,4.33-0.15,7.32,0.99,8.96
		C248.92,181.8,251.23,182.62,254.71,182.62z"/>
	<path class="st0" d="M322.18,192.76H302.2l-7.93-63.42h14.9l4.84,51.29l15.69-51.29h13.87L322.18,192.76z"/>
	<path class="st0" d="M375.13,192.76l-1.43-15.06h-14.67l-4.68,15.06h-13.55l21.4-63.42h19.98l7.93,63.42H375.13z M372.6,166.76
		l-2.38-25.53l-7.85,25.53H372.6z M363.72,121.41l8.24-15.85h18.08l-17.04,15.85H363.72z"/>
	<path class="st0" d="M428.41,192.76l-10.94-47.01l-4.91,47.01h-12.45l6.66-63.42h20.06l10.86,43.76l4.6-43.76h12.45l-6.66,63.42
		H428.41z"/>
	<path class="st0" d="M462.81,192.76l1.19-10.94h13.24l4.36-41.54h-13.24l1.11-10.94h41.3l-1.11,10.94h-13.24l-4.36,41.54h13.24
		l-1.19,10.94H462.81z M481.76,121.41l8.25-15.85h18.08l-17.05,15.85H481.76z"/>
</g>
</svg>
