<svg xmlns="http://www.w3.org/2000/svg" viewBox="0 0 527.97 126.46"><defs><style>.cls-1{fill:#003682;}</style></defs><title>Datový zdroj 2</title><g id="Vrstva_2" data-name="Vrstva 2"><g id="Vrstva_1-2" data-name="Vrstva 1"><path class="cls-1" d="M0,47.86,5,.59H36.75l-.82,8.16H15.19L13.77,21.86H31.08L30.25,30H12.94L11.05,47.86Z"/><path class="cls-1" d="M59.68,48.45q-8.62,0-12.82-4.16T43.43,32.74L45.2,16a16.91,16.91,0,0,1,5.85-11.7Q56.14,0,64.76,0T77.59,4.25C80.34,7.09,81.47,11,81,16L79.18,32.74a16.49,16.49,0,0,1-5.82,11.55Q68.3,48.46,59.68,48.45Zm.83-8.15q3.9,0,5.55-1.83c1.11-1.22,1.83-3.45,2.19-6.68L69.79,16.9q.52-5-.71-6.88T63.94,8.15c-2.6,0-4.47.62-5.59,1.87s-1.86,3.53-2.21,6.88L54.6,31.79c-.35,3.23-.11,5.46.74,6.68S57.91,40.3,60.51,40.3Z"/><path class="cls-1" d="M98.44,47.86l4.14-39.11H90.29L91.12.59h35.69L126,8.75H113.63l-4.14,39.11Z"/><path class="cls-1" d="M148.26,48.45q-8.62,0-12.83-4.16T132,32.74L133.78,16a16.83,16.83,0,0,1,5.85-11.7Q144.72,0,153.34,0t12.82,4.25q4.14,4.26,3.37,11.7l-1.77,16.79a16.49,16.49,0,0,1-5.82,11.55Q156.89,48.46,148.26,48.45Zm.82-8.15c2.6,0,4.46-.61,5.56-1.83s1.83-3.45,2.19-6.68l1.53-14.89q.54-5-.71-6.88c-.82-1.25-2.54-1.87-5.14-1.87s-4.46.62-5.58,1.87-1.86,3.53-2.22,6.88l-1.53,14.89c-.36,3.23-.11,5.46.73,6.68S146.48,40.3,149.08,40.3Z"/><path class="cls-1" d="M194.88,48.45q-8.62,0-12.76-4.16t-3.37-11.55L180.52,16a17,17,0,0,1,5.73-11.7Q191.22,0,199.61,0q8.56,0,12.49,3.46t3.52,11.37l-11.11.59q.06-4.3-1.09-5.79c-.77-1-2.28-1.48-4.52-1.48-2.56,0-4.36.6-5.38,1.78s-1.71,3.5-2.07,7l-1.53,14.89c-.36,3.35-.1,5.61.76,6.77s2.72,1.74,5.56,1.74q3.72,0,5.14-1.89c1-1.26,1.61-3.72,2-7.39h-6.56l.83-8.15h17.61l-1,9q-.76,7.74-5.88,12.17T194.88,48.45Z"/><path class="cls-1" d="M245.93,47.86l-1.06-11.22H233.94l-3.49,11.22h-10.1L236.3.59h14.89l5.91,47.27ZM244,28.48l-1.77-19-5.85,19Z"/><path class="cls-1" d="M264.55,47.86l5-47.27h11.05l-4.08,39.12h17.2l-.89,8.15Z"/><path class="cls-1" d="M301.42,47.86l5-47.27h30.55l-.83,8.16H316.6l-1.06,9.8h17.08l-.83,8.16H314.71l-1.36,13h19.5L332,47.86Z"/><path class="cls-1" d="M354.3,47.86H343.25l5-47.27h20.27q6.84,0,10.19,3.34t2.69,9.6L381,17.67a15.66,15.66,0,0,1-2.95,8,12.91,12.91,0,0,1-6.56,4.47l8,17.72H366.89L359.27,31h-3.19Zm2.6-25h7.51a5.84,5.84,0,0,0,3.84-1.1c.87-.72,1.42-2.11,1.65-4.16l.36-3.66c.24-2.13,0-3.53-.71-4.2a5.2,5.2,0,0,0-3.61-1h-7.5Z"/><path class="cls-1" d="M390,47.86l.89-8.15h9.87l3.25-31h-9.87L395,.59h30.78l-.82,8.16h-9.87l-3.25,31h9.87l-.89,8.15Z"/><path class="cls-1" d="M431.83,47.86l5-47.27h30.55l-.82,8.16H447L446,18.55H463l-.83,8.16H445.13l-1.36,13h19.5l-.89,8.15Z"/><path class="cls-1" d="M0,125.86,5,78.59H22.57q7.09,0,10.55,3.46t2.75,10l-.65,6.33a13.44,13.44,0,0,1-4.82,9.54q-4.16,3.34-11.2,3.34H12.59l-1.54,14.65Zm13.41-22.75h4.67a6.41,6.41,0,0,0,4.37-1.3c1-.86,1.6-2.44,1.84-4.72L24.7,93q.42-3.48-.77-4.88t-4.08-1.38H15.19Z"/><path class="cls-1" d="M52.89,125.86h-11l5-47.27H67.07q6.86,0,10.19,3.34T80,91.53l-.41,4.14a15.73,15.73,0,0,1-3,8A12.91,12.91,0,0,1,70,108.14l8,17.72H65.47L57.85,109H54.66Zm6.5-53.41-8.34-9.28,3.84-4.67,9.58,6.32,10.69-6.38L78,63.17,67.84,72.45Zm-3.9,28.42H63a5.9,5.9,0,0,0,3.84-1.09c.87-.73,1.42-2.12,1.66-4.17L68.84,92c.24-2.13,0-3.53-.71-4.2a5.18,5.18,0,0,0-3.6-1H57Z"/><path class="cls-1" d="M88.58,125.86l5-47.27h30.55l-.83,8.16h-19.5l-1.06,9.8h17.08l-.83,8.16H101.87l-1.36,13H120l-.88,8.15Z"/><path class="cls-1" d="M130.41,125.86l5-47.27h18.25q8.28,0,12.41,4.49c2.76,3,3.88,7,3.37,11.94l-1.53,14.65A17.31,17.31,0,0,1,162,121.46q-5.12,4.41-13.33,4.4Zm11.94-8.15h6q4.6,0,6.32-1.92t2.24-7.06L158.24,96c.36-3.46.1-5.87-.76-7.21s-2.84-2-5.91-2h-6Z"/><path class="cls-1" d="M199.19,125.86l-1.06-11.22H187.2l-3.49,11.22h-10.1l15.95-47.27h14.89l5.91,47.27Zm-1.89-19.38-1.77-19-5.85,19Zm-6.62-33.8,6.15-11.82H210.3L197.6,72.68Z"/><path class="cls-1" d="M239,125.86H224.13l-5.91-47.27h11.11l3.6,38.23,11.7-38.23H255Z"/><path class="cls-1" d="M278.49,125.86l-1.06-11.22H266.5L263,125.86h-10.1l16-47.27h14.89l5.91,47.27Zm-1.89-19.38-1.77-19-5.85,19ZM270,72.68l6.15-11.82H289.6L276.9,72.68Z"/><path class="cls-1" d="M318.2,125.86l-8.16-35-3.66,35H297.1l5-47.27H317l8.09,32.62,3.43-32.62h9.28l-5,47.27Z"/><path class="cls-1" d="M343.84,125.86l.89-8.15h9.87l3.25-31H348l.83-8.16h30.78l-.82,8.16H368.9l-3.25,31h9.87l-.89,8.15ZM358,72.68l6.14-11.82h13.48L364.88,72.68Z"/><path class="cls-1" d="M417.65,126.46q-9.93,0-14-4.17c-2.73-2.78-3.85-6.63-3.33-11.55L402.05,94a17,17,0,0,1,5.76-11.71q5-4.25,14.92-4.25,9.11,0,13.12,4.11T439.28,95l-11.11.59c.19-3.62-.18-6.09-1.13-7.42s-2.73-2-5.37-2q-4.44,0-6.3,1.86T413,95l-1.54,14.83c-.35,3.27-.05,5.51.92,6.71s2.93,1.8,5.88,1.8q4,0,5.79-1.92t2.72-7.24l11,.59q-1.31,8.63-6.15,12.68T417.65,126.46Z"/><path class="cls-1" d="M445.42,125.86l5-47.27h30.55l-.82,8.16h-19.5l-1.07,9.8h17.08l-.83,8.16H458.72l-1.36,13h19.5l-.89,8.15Z"/><path class="cls-1" d="M508.35,125.86l-8.15-35-3.67,35h-9.27l5-47.27h14.95l8.1,32.62,3.42-32.62H528l-5,47.27Z"/></g></g></svg>